<?xml version="1.0" encoding="UTF-8"?>
<svg id="Layer_1" xmlns="http://www.w3.org/2000/svg" width="1952.3" height="93.7" version="1.1" xmlns:xlink="http://www.w3.org/1999/xlink" viewBox="0 0 1952.3 93.7">
  <!-- Generator: Adobe Illustrator 29.5.0, SVG Export Plug-In . SVG Version: 2.1.0 Build 137)  -->
  <defs>
    <style>
      .st0 {
        fill: #001751;
      }

      .st1 {
        fill: none;
      }

      .st2 {
        clip-path: url(#clippath);
      }
    </style>
    <clipPath id="clippath">
      <rect class="st1" x="-.4" width="1952.7" height="100.9"/>
    </clipPath>
  </defs>
  <g class="st2">
    <path class="st0" d="M3206.1,46.8c-.4-5.6-.7-11.1-1.1-16.7-.1-1.9.4-2-1.1-3.4-6.4-6.1-13-12-19.6-18-.6-.5-2.6-2.8-3.2-2.8-.6,0-1.6,1.3-2.1,1.7-3,2.7-5.9,5.6-8.9,8.3l-11.7,11.3c-.3,0-.9-.4-1.1-.6-1-.8-2-2-2.9-2.9-2.6-2.5-5.4-4.9-8-7.4-3.6-3.4-7.1-7-10.9-10.4h-.5c0,0-23.9,21.1-23.9,21.1-.7-.6-1.4-1.4-2.1-2.1-6.5-6.1-12.7-12.5-19.2-18.5-.4-.4-1.4-1.6-1.8-1.8-.2,0-.2-.1-.4,0-.3,0-3.6,3.5-4.1,4.1-6.2,6.4-12.3,12.9-18.6,19.2-1-1.1-2.9-2.7-3.4-3.3-4-4.2-7.8-8.5-11.8-12.7-2.3-2.4-4.6-4.7-6.8-7.2-.2-.1-.5,0-.6,0l-23.2,23.4h-.3c-5.5-5.3-10.8-10.8-16.2-16.1-1.7-1.7-3.5-3.2-5.2-5-.4-.4-1.8-2.5-2.5-2.1l-21.5,23.2c-.3,0-2.1-1.9-2.4-2.3-5.2-4.9-10.4-9.9-15.6-14.8-1.4-1.4-2.9-3.1-4.3-4.4-.5-.4-1.1-1.1-1.6-.5l-23.6,23.7c-.3-.7-3.9-4.5-4.7-5.3-4-4.2-7.8-8.5-11.8-12.7-2.2-2.4-4.6-4.7-6.8-7.2-.2-.1-.5,0-.6,0l-23.2,23.4h-.2c-5.5-5.3-10.8-10.8-16.2-16.1-1.7-1.7-3.5-3.2-5.2-5-.4-.4-1.8-2.5-2.5-2.1l-21.5,23.2c-.3,0-2.1-1.9-2.4-2.3-5.2-4.9-10.4-9.9-15.6-14.8-1.4-1.4-2.9-3.1-4.4-4.4-.5-.4-1.1-1.1-1.6-.5l-23.2,21.7c-.2-.2-.4-.4-.7-.7-6.4-6.1-13-12-19.6-17.9-.6-.5-2.6-2.8-3.2-2.8-.6,0-1.6,1.3-2.1,1.7-3,2.7-5.9,5.6-8.9,8.3l-11.7,11.3c-.3,0-.9-.4-1.1-.6-1-.8-2-2-2.9-2.9-2.6-2.5-5.3-4.9-8-7.4-3.6-3.4-7.1-7-10.9-10.3h-.5c0,0-23.9,21.1-23.9,21.1-.7-.6-1.4-1.4-2.1-2.1-6.5-6.1-12.7-12.5-19.2-18.5-.4-.4-1.4-1.6-1.8-1.8-.2,0-.2-.1-.4,0-.3,0-3.6,3.5-4.1,4-6.3,6.5-12.5,13.1-18.9,19.5,0-.4-.3-.8-1.1-1.5-6.4-6.1-13.1-12-19.6-17.9-.6-.5-2.6-2.8-3.2-2.8-.6,0-1.6,1.3-2.1,1.7-3,2.7-5.9,5.6-8.9,8.3l-11.7,11.3c-.4,0-.9-.4-1.2-.6-1-.8-1.9-2-2.9-2.9-2.6-2.5-5.4-4.9-8-7.4-3.6-3.4-7.1-7-10.9-10.3h-.5c0,0-23.9,21.1-23.9,21.1-.8-.6-1.4-1.4-2.1-2.1-6.5-6.1-12.7-12.5-19.2-18.5-.4-.4-1.4-1.6-1.8-1.8-.1,0-.2-.1-.4,0-.3,0-3.6,3.5-4.1,4-6.2,6.4-12.3,12.9-18.7,19.2-1-1.1-2.9-2.7-3.4-3.3-4-4.2-7.8-8.5-11.8-12.7-2.2-2.4-4.6-4.7-6.8-7.2-.2-.1-.5-.1-.6,0l-23.2,23.4h-.2c-5.5-5.3-10.8-10.8-16.2-16.1-1.7-1.7-3.5-3.2-5.2-5-.4-.4-1.8-2.5-2.5-2.1l-20.7,22.2-.8.9c-.3,0-2.1-1.9-2.4-2.3-5.2-4.9-10.4-9.9-15.6-14.9-1.4-1.4-2.9-3.1-4.3-4.4-.5-.4-1.1-1.1-1.6-.5l-.4.4-.2.2c-.1.2-.3.3-.4.4,0,0,0,0-.1.1h-.1c-2.9,2.8-5.7,5.6-8.6,8.2l-11.7,11.3c-.3,0-.9-.4-1.2-.6-1-.8-1.9-2-2.9-2.9-2.6-2.5-5.3-4.9-8-7.4-3.6-3.4-7.2-7-10.9-10.4h-.5c0,0-23.9,21.1-23.9,21.1-.7-.6-1.4-1.4-2.1-2.1-6.5-6.1-12.7-12.5-19.2-18.5-.4-.4-1.4-1.6-1.8-1.8-.2,0-.2-.1-.4,0-.3,0-3.6,3.5-4.1,4.1-6.2,6.4-12.3,12.9-18.6,19.2-1-1.1-2.9-2.7-3.4-3.3-4-4.2-7.8-8.5-11.8-12.7-2.3-2.4-4.6-4.7-6.8-7.2-.2-.1-.5,0-.6,0l-23.2,23.4h-.2c-5.5-5.3-10.8-10.8-16.2-16.1-1.7-1.7-3.5-3.2-5.2-5-.4-.4-1.8-2.5-2.5-2.1l-21.5,23.2c-.3,0-2.1-1.9-2.4-2.3-5.2-4.9-10.4-9.9-15.6-14.8-1.4-1.4-2.9-3.1-4.3-4.4-.5-.4-1.1-1.1-1.6-.5l-23.6,23.7c-.3-.7-3.9-4.5-4.7-5.3-4-4.2-7.8-8.5-11.8-12.7-2.2-2.4-4.6-4.7-6.8-7.2-.2-.1-.5,0-.6,0l-23.2,23.4h-.2c-5.5-5.3-10.8-10.8-16.2-16.1-1.7-1.7-3.5-3.2-5.2-5-.4-.4-1.8-2.5-2.5-2.1l-21.5,23.2c-.3,0-2.1-1.9-2.4-2.3-5.2-4.9-10.4-9.9-15.6-14.8-1.4-1.4-2.9-3.1-4.4-4.4-.5-.4-1.1-1.1-1.6-.5l-23.2,21.7c-.2-.2-.4-.4-.7-.7-6.4-6.1-13.1-12-19.6-17.9-.6-.5-2.6-2.8-3.2-2.8-.6,0-1.6,1.3-2.1,1.7-3,2.7-5.9,5.6-8.9,8.3l-11.7,11.3c-.3,0-.9-.4-1.1-.6-1-.8-2-2-2.9-2.9-2.6-2.5-5.3-4.9-8-7.4-3.6-3.4-7.2-7-10.9-10.3h-.5c0,0-23.9,21.1-23.9,21.1-.8-.6-1.4-1.4-2.1-2.1-6.5-6.1-12.7-12.5-19.2-18.5-.4-.4-1.4-1.6-1.8-1.8-.2,0-.2-.1-.4,0-.3,0-3.6,3.5-4.1,4-6.3,6.5-12.5,13.1-19,19.5,0-.4-.3-.8-1.1-1.5-6.4-6.1-13-12-19.6-17.9-.6-.5-2.6-2.8-3.2-2.8-.6,0-1.6,1.3-2.1,1.7-3,2.7-5.9,5.6-8.9,8.3l-11.7,11.3c-.3,0-.9-.4-1.2-.6-1-.8-1.9-2-2.9-2.9-2.6-2.5-5.4-4.9-8-7.4-3.6-3.4-7.1-7-10.9-10.3h-.5c0,0-23.9,21.1-23.9,21.1-.7-.6-1.4-1.4-2.1-2.1-6.5-6.1-12.7-12.5-19.2-18.5-.4-.4-1.4-1.6-1.8-1.8-.2,0-.2-.1-.4,0-.3,0-3.6,3.5-4.1,4-6.2,6.4-12.3,12.9-18.7,19.2-1-1.1-2.9-2.7-3.4-3.3-4-4.2-7.8-8.5-11.8-12.7-2.3-2.4-4.6-4.7-6.8-7.2-.2-.1-.5-.1-.6,0l-23.2,23.4h-.2c-5.5-5.3-10.8-10.8-16.2-16.1-1.7-1.7-3.5-3.2-5.2-5-.4-.4-1.8-2.5-2.5-2.1l-21.5,23.2s-.1,0-.2,0c-.5-.4-1.9-1.9-2.2-2.2-5.2-4.9-10.4-9.9-15.6-14.9-.8-.8-1.7-1.7-2.5-2.6-.1-.1-.2-.2-.4-.3-.2-.2-.8-.8-1.3-1.3,0,0,0,0,0,0-.7-.7-1.5-1.5-1.8-1.5-.6,0-1.6,1.3-2.1,1.7-3,2.7-5.9,5.6-8.9,8.3l-11.7,11.3c-.4,0-.9-.4-1.2-.6-1-.8-1.9-2-2.9-2.9-2.6-2.5-5.4-4.9-8-7.4-3.6-3.4-7.1-7-10.9-10.4h-.5c0,0-23.9,21.1-23.9,21.1-.8-.6-1.4-1.4-2.1-2.1-6.5-6.1-12.7-12.5-19.2-18.5-.4-.4-1.4-1.6-1.8-1.8-.1,0-.2-.1-.4,0-.3,0-3.6,3.5-4.1,4.1-6.2,6.4-12.3,12.9-18.7,19.2-1-1.1-2.9-2.7-3.4-3.3-4-4.2-7.8-8.5-11.8-12.7-2.2-2.4-4.6-4.7-6.8-7.2-.2-.1-.5,0-.6,0l-23.2,23.4h-.2c-5.5-5.3-10.8-10.8-16.2-16.1-1.7-1.7-3.5-3.2-5.2-5-.4-.4-1.8-2.5-2.5-2.1l-21.5,23.2c-.3,0-2.1-1.9-2.4-2.3-5.2-4.9-10.4-9.9-15.6-14.8-1.4-1.4-2.9-3.1-4.3-4.4-.5-.4-1.1-1.1-1.6-.5l-23.6,23.7c-.3-.7-3.9-4.5-4.7-5.3-3.9-4.2-7.8-8.5-11.8-12.7-2.2-2.4-4.6-4.7-6.8-7.2-.2-.1-.5,0-.7,0l-23.2,23.4h-.2c-5.5-5.3-10.8-10.8-16.2-16.1-1.7-1.7-3.5-3.2-5.2-5-.4-.4-1.8-2.5-2.5-2.1l-21.5,23.2c-.3,0-2.1-1.9-2.4-2.3-5.2-4.9-10.4-9.9-15.6-14.8-1.4-1.4-2.9-3.1-4.4-4.4-.5-.4-1.1-1.1-1.6-.5l-23.2,21.7c-.2-.2-.4-.4-.7-.7-6.4-6.1-13-12-19.6-17.9-.6-.5-2.6-2.8-3.2-2.8-.6,0-1.6,1.3-2.1,1.7-3,2.7-5.9,5.6-8.9,8.3l-11.7,11.3c-.3,0-.9-.4-1.1-.6-1-.8-2-2-2.9-2.9-2.6-2.5-5.4-4.9-8-7.4-3.6-3.4-7.2-7-10.9-10.3h-.4c0,0-23.9,21.1-23.9,21.1-.7-.6-1.4-1.4-2.1-2.1-6.5-6.1-12.7-12.5-19.2-18.5-.4-.4-1.4-1.6-1.8-1.8-.2,0-.2-.1-.4,0-.3,0-3.6,3.5-4.1,4-6.3,6.5-12.5,13.1-19,19.5,0-.4-.3-.8-1.1-1.5-6.4-6.1-13-12-19.6-17.9-.6-.5-2.6-2.8-3.2-2.8-.6,0-1.6,1.3-2.1,1.7-3,2.7-5.9,5.6-8.9,8.3l-11.7,11.3c-.3,0-.9-.4-1.1-.6-1-.8-2-2-2.9-2.9-2.6-2.5-5.4-4.9-8-7.4-3.6-3.4-7.1-7-10.9-10.3h-.5c0,0-23.9,21.1-23.9,21.1-.7-.6-1.4-1.4-2.1-2.1-6.5-6.1-12.7-12.5-19.2-18.5-.4-.4-1.4-1.6-1.8-1.8-.1,0-.2-.1-.4,0-.3,0-3.6,3.5-4.1,4-6.2,6.4-12.3,12.9-18.7,19.2-1-1.1-2.9-2.7-3.4-3.3-4-4.2-7.8-8.5-11.8-12.7-2.2-2.4-4.6-4.7-6.8-7.2-.2-.1-.5-.1-.7,0l-23.2,23.4h-.2c-5.5-5.3-10.8-10.8-16.2-16.1-1.7-1.7-3.5-3.2-5.2-5-.4-.4-1.8-2.5-2.5-2.1l-20.7,22.2-.9.9c-.3,0-2.1-1.9-2.4-2.3-5.2-4.9-10.4-9.9-15.6-14.9-1.4-1.4-2.9-3.1-4.3-4.4-.5-.4-1.1-1.1-1.6-.5l-.2.2-.2.2-.2.2c-.2.2-.3.3-.4.4l-.2.2c-2.9,2.7-5.7,5.5-8.6,8.1l-11.7,11.3c-.3,0-.9-.4-1.2-.6-1-.8-2-2-2.9-2.9-2.6-2.5-5.4-4.9-8-7.4-3.6-3.4-7.1-7-10.9-10.4h-.5c0,0-23.9,21.1-23.9,21.1-.7-.6-1.4-1.4-2.1-2.1-6.5-6.1-12.7-12.5-19.2-18.5-.4-.4-1.4-1.6-1.8-1.8-.2,0-.2-.1-.4,0-.3,0-3.6,3.5-4.1,4.1-6.2,6.4-12.3,12.9-18.6,19.2-1-1.1-2.9-2.7-3.4-3.3-4-4.2-7.8-8.5-11.8-12.7-2.3-2.4-4.6-4.7-6.8-7.2-.2-.1-.5,0-.6,0l-23.2,23.4h-.2c-5.5-5.3-10.8-10.8-16.2-16.1-1.7-1.7-3.5-3.2-5.2-5-.4-.4-1.8-2.5-2.5-2.1l-21.5,23.2c-.3,0-2.1-1.9-2.4-2.3-5.2-4.9-10.4-9.9-15.6-14.8-1.4-1.4-2.9-3.1-4.3-4.4-.5-.4-1.1-1.1-1.6-.5l-23.6,23.7c-.3-.7-3.9-4.5-4.7-5.3-4-4.2-7.8-8.5-11.8-12.7-2.2-2.4-4.6-4.7-6.8-7.2-.2-.1-.5,0-.6,0l-23.2,23.4h-.2c-5.5-5.3-10.8-10.8-16.2-16.1-1.7-1.7-3.5-3.2-5.2-5-.4-.4-1.8-2.5-2.5-2.1l-21.5,23.2c-.3,0-2.1-1.9-2.5-2.3-5.2-4.9-10.4-9.9-15.6-14.8-1.4-1.4-2.9-3.1-4.4-4.4-.5-.4-1.1-1.1-1.6-.5l-23.2,21.7c-.2-.2-.4-.4-.7-.7-6.4-6.1-13-12-19.6-17.9-.6-.5-2.6-2.8-3.2-2.8-.5,0-1.6,1.3-2.1,1.7-3,2.7-5.9,5.6-8.9,8.3l-11.7,11.3c-.3,0-.9-.4-1.1-.6-1-.8-2-2-2.9-2.9-2.6-2.5-5.4-4.9-8-7.4-3.6-3.4-7.1-7-10.9-10.3h-.5c0,0-23.9,21.1-23.9,21.1-.7-.6-1.4-1.4-2.1-2.1-6.5-6.1-12.7-12.5-19.2-18.5-.4-.4-1.4-1.6-1.8-1.8-.1,0-.2-.1-.4,0-.3,0-3.6,3.5-4.1,4-6.3,6.5-12.5,13.1-19,19.5,0-.4-.3-.8-1.1-1.5-6.4-6.1-13-12-19.6-17.9-.6-.5-2.6-2.8-3.2-2.8-.6,0-1.6,1.3-2.1,1.7-3,2.7-5.9,5.6-8.9,8.3l-11.7,11.3c-.3,0-.9-.4-1.2-.6-1-.8-1.9-2-2.9-2.9-2.6-2.5-5.4-4.9-8-7.4-3.6-3.4-7.1-7-10.9-10.3h-.5c0,0-23.9,21.1-23.9,21.1-.8-.6-1.4-1.4-2.1-2.1-6.5-6.1-12.7-12.5-19.2-18.5-.4-.4-1.4-1.6-1.8-1.8-.2,0-.2-.1-.4,0-.3,0-3.6,3.5-4.1,4-6.2,6.4-12.3,12.9-18.7,19.2-1-1.1-2.8-2.7-3.4-3.3-4-4.2-7.8-8.5-11.8-12.7-2.3-2.4-4.6-4.7-6.8-7.2-.2-.1-.5-.1-.6,0l-23.2,23.4h-.2c-5.5-5.3-10.8-10.8-16.2-16.1-1.7-1.7-3.5-3.2-5.2-5-.4-.4-1.8-2.5-2.5-2.1l-21.5,23.2c-.3,0-2.1-1.9-2.4-2.3-5.2-4.9-10.4-9.9-15.6-14.9-1.4-1.4-2.9-3.1-4.3-4.4-.5-.4-1.1-1.1-1.6-.5L-3.4,30h-1.3v15.4c0,1.9-.2,3.8-.4,5.7.2.8-.5,3.4.4,3.7v40.6h1956.9v-44.8l21.7-19.3h.2c2.7,2.5,5.2,5.1,7.8,7.5,4.4,4.2,9,8.8,13.6,12.9.5.4,1.9,1.8,2.2.8.6-.4,1.6-1.6,1.9-1.9,6.1-6.4,9.8-11.2,15.9-17.7,1.7-1.8,3.4-3.5,5.1-5.2l21.8,25.1c.3,0,.7-.3.8-.5,2.2-2.3,4.2-4.9,6.3-7.3l15.8-17.6,23.4,25,24.6-21.4.4.2,21.1,22.8c.1.2.3.2.5.2.4,0,1.9-1.7,2.3-2.1,6.1-6.4,12.1-12.9,18.2-19.3,1.7-1.8,3.4-3.5,5.1-5.2l21.8,25.1c.3,0,.6-.3.8-.5,2.2-2.3,4.2-4.9,6.3-7.3l15.8-17.6,23.4,25,24.6-21.4.4.2,21,21.1c.2.2.4.2.6.1,0,0,0,0,0,0v-.2c.1,0,22.5-22,22.5-22,7.2,7,14.6,13.9,21.8,20.9.6.2,1.5,1.7,2.1,1.5l23.1-23.4,23.2,22.8,24.3-21.5h.2c2.7,2.5,4.7,4.9,7.3,7.4l13.1,15.1c.3,0,.7-.3.9-.5,2.2-2.3,4.1-4.9,6.3-7.3l15.8-17.6,23.4,25,24.6-21.4.4.2,21,21c.2.2.4.2.6.1h0s.2-.1.2-.1h0s22.3-22,22.3-22c7.2,7,14.6,13.9,21.8,20.9.6.2,1.5,1.7,2.1,1.5l23.1-23.4,23.2,22.8,24.3-21.6h.2c2.7,2.5,5.2,5.1,7.8,7.5,4.5,4.2,9,8.8,13.6,12.9.3.3,1.1,1.1,1.7,1.2,0,0,0,.1.1.2l22.5-22.1c7.2,7,14.6,13.9,21.8,20.9.6.2,1.5,1.7,2.1,1.5l23.1-23.4,23.2,22.8,24.3-21.6h.2c2.7,2.5,5.2,5.1,7.8,7.5,4.4,4.2,9,8.8,13.6,12.9.5.4,1.9,1.8,2.2.8.6-.4,1.6-1.6,2-1.9,6.1-6.4,9.8-11.2,15.9-17.7,1.7-1.8,3.4-3.5,5.1-5.2l21.8,25.1c.3,0,.6-.3.8-.5,2.2-2.3,4.2-4.9,6.3-7.3l15.8-17.6,23.4,25,24.6-21.4.4.2,21.1,22.8c.1.2.3.2.5.2.3,0,1.9-1.7,2.3-2.1,6.1-6.4,12.1-12.9,18.2-19.3,1.7-1.8,3.4-3.5,5.1-5.2l21.8,25.1c.3,0,.6-.3.8-.5,2.2-2.3,4.2-4.9,6.3-7.3l15.8-17.6,23.4,25,24.6-21.4.4.2,21,21.1c.2.2.4.2.6.1,0,0,0,0,0,0l.2-.2,22.3-22c7.2,7,14.6,13.9,21.8,20.9.6.2,1.5,1.7,2,1.5l23.1-23.4,23.2,22.8,24.3-21.5h.2c2.7,2.5,5.2,5.1,7.8,7.5,4.5,4.2,9,8.8,13.6,12.9.5.4,2,1.9,2.2.7.3-1.5-.5-3.5-.2-5.1ZM1926.5,30h0,0s0,0,0,0ZM995.2,30h0,0s0,0,0,0ZM345.8,30h0,0s0,0,0,0ZM205.4,30h0,0s0,0,0,0Z"/>
  </g>
</svg>