<?xml version="1.0" encoding="UTF-8"?>
<svg id="Layer_1" xmlns="http://www.w3.org/2000/svg" width="699.4" height="686.1" version="1.1" xmlns:xlink="http://www.w3.org/1999/xlink" viewBox="0 0 699.4 686.1">
  <!-- Generator: Adobe Illustrator 29.5.0, SVG Export Plug-In . SVG Version: 2.1.0 Build 137)  -->
  <defs>
    <style>
      .st0 {
        fill: #00143d;
      }

      .st1 {
        fill: none;
      }

      .st2 {
        clip-path: url(#clippath);
      }
    </style>
    <clipPath id="clippath">
      <rect class="st1" x="29.7" y="23.1" width="640" height="640"/>
    </clipPath>
  </defs>
  <g class="st2">
    <path class="st0" d="M669.1,211.2c-1.5-34-7-57.4-14.9-77.6-8.1-21.5-20.6-40.8-37-56.8-16-16.3-35.4-28.9-56.6-36.9-20.4-7.9-43.6-13.4-77.6-14.9-34.3-1.6-45.1-2-132-2s-97.8.4-131.9,1.9c-34,1.5-57.4,7-77.6,14.9-21.5,8.1-40.8,20.6-56.8,37-16.3,16-28.9,35.4-36.9,56.6-7.9,20.4-13.4,43.6-14.9,77.6-1.6,34.3-2,45.1-2,132s.4,97.8,1.9,131.9c1.5,34,7,57.4,14.9,77.6,8.1,21.5,20.7,40.8,37,56.8,16,16.3,35.4,28.9,56.6,36.9,20.4,7.9,43.6,13.4,77.6,14.9,34.1,1.5,45,1.9,131.9,1.9s97.8-.4,131.9-1.9c34-1.5,57.4-7,77.6-14.9,43-16.6,77-50.6,93.6-93.6,7.9-20.4,13.4-43.6,14.9-77.6,1.5-34.1,1.9-45,1.9-131.9s-.1-97.8-1.6-131.9h0ZM611.4,472.5c-1.4,31.3-6.6,48.1-11,59.4-10.8,27.9-32.9,50-60.8,60.8-11.3,4.4-28.3,9.6-59.4,11-33.8,1.5-43.9,1.9-129.3,1.9s-95.6-.4-129.3-1.9c-31.3-1.4-48.1-6.6-59.4-11-13.9-5.1-26.5-13.3-36.8-23.9-10.6-10.4-18.8-22.9-23.9-36.8-4.4-11.3-9.6-28.3-11-59.4-1.5-33.8-1.9-43.9-1.9-129.3s.4-95.6,1.9-129.3c1.4-31.3,6.6-48.1,11-59.4,5.1-13.9,13.3-26.5,24-36.8,10.4-10.6,22.9-18.8,36.8-23.9,11.3-4.4,28.3-9.6,59.4-11,33.8-1.5,43.9-1.9,129.3-1.9s95.6.4,129.3,1.9c31.3,1.4,48.1,6.6,59.4,11,13.9,5.1,26.5,13.3,36.8,23.9,10.6,10.4,18.8,22.9,23.9,36.8,4.4,11.3,9.6,28.2,11,59.4,1.5,33.8,1.9,43.9,1.9,129.3s-.4,95.4-1.9,129.1h0ZM611.4,472.5"/>
  </g>
  <path class="st0" d="M350.9,178.7c-90.8,0-164.4,73.6-164.4,164.4s73.6,164.4,164.4,164.4,164.4-73.6,164.4-164.4-73.6-164.4-164.4-164.4h0ZM350.9,449.8c-58.9,0-106.6-47.8-106.6-106.6s47.8-106.6,106.6-106.6,106.6,47.8,106.6,106.6-47.8,106.6-106.6,106.6h0ZM350.9,449.8"/>
  <path class="st0" d="M560.2,172.2c0,21.2-17.2,38.4-38.4,38.4s-38.4-17.2-38.4-38.4,17.2-38.4,38.4-38.4,38.4,17.2,38.4,38.4h0ZM560.2,172.2"/>
</svg>