<?xml version="1.0" encoding="UTF-8"?>
<svg id="Layer_1" xmlns="http://www.w3.org/2000/svg" width="500.8" height="524.6" version="1.1" viewBox="0 0 500.8 524.6">
  <!-- Generator: Adobe Illustrator 29.5.1, SVG Export Plug-In . SVG Version: 2.1.0 Build 141)  -->
  <defs>
    <style>
      .st0 {
        fill: none;
        stroke: #e08a00;
        stroke-miterlimit: 10;
        stroke-width: 1.5px;
      }
    </style>
  </defs>
  <path class="st0" d="M262.7,344.8c-22.4,1.5-48.2-7.4-65.7-21.3-22.6-18-27.9-63.2-15.5-88.2,17.6-35.4,49.6-50.8,88.6-45.1,28.3,4.2,49.9,26.6,58,53.4,13.1,43.7-18.3,98-65.4,101.1Z"/>
  <path class="st0" d="M418.5,306.7c-1.2.2-2.5-1-3.6-1.4-22.2-13-45.7-24.1-68-37.1-1.3-.8-4-2-3.1-3.8l66-41.7c26.5,13.3,52.5,27.5,78.8,41.3,1.6.9,2,2.2.3,3.3l-70.4,39.4Z"/>
  <path class="st0" d="M395.2,178.6l-76.7,22.4c-.9.4-2-.6-2-1.5l16.6-79.6,82.6-22,.4,1.5-20.9,79.2Z"/>
  <path class="st0" d="M258.1,506.9c-.6.2-1.2,0-1.8-.2-13.5-23.6-26.5-47.7-39.5-71.6,12.3-26.1,25.6-51.8,38.1-77.8,1.8-3.8,4.1,2,5.2,4,12.2,21.3,23.5,43.1,35.3,64.5l-31.2,68.5c-1.2,1.5-5.3,12.4-6.2,12.7Z"/>
  <path class="st0" d="M419.6,434.7l-75.6-25.1-1.7-.9-25.6-77.3c0-2.2,1.7-2.5,3.6-2l74,20.1,1.7.9,25.1,82.6c0,.8-.7,1.4-1.4,1.8Z"/>
  <path class="st0" d="M85,437.3c-1.8-.1-2.8-1.2-2-3,10-26.1,19.2-52.7,29.6-78.6l72-20.5c1.7-.3,2.8-.3,2.8,1.7l-19.1,76.1c-27.6,8.6-55.5,16.2-83.2,24.4Z"/>
  <path class="st0" d="M189.9,205.3c-.7.7-7.4-1.6-8.8-2-23.8-7-47.3-15.4-71.2-22.4-.5-.2-1-.4-1.3-.8-.8-.8-2.8-7-3.4-8.6-8-22.3-15-44.9-23.3-67.2-.6-1.5-.2-2.8,1.5-2.6l82.4,25.9c.7.6.9,1.6,1.2,2.5,8.3,23.7,14.4,48.3,22.6,72,.2.6.4,3,.2,3.2Z"/>
  <path class="st0" d="M252.8,177.6c-.9.3-1.8.1-2.2-.8l-38-72.1c.9-2.4,1.9-4.9,3-7.3,8.8-19.3,18.8-38.9,28.2-58,.7-1.5,3.9-8.5,4.9-8.7.6-.1.9.4,1.3.8l40.7,75.3c.6,1,.9,2.2.3,3.3l-36.9,66.1c-.3.5-.7,1.1-1.3,1.3Z"/>
  <path class="st0" d="M161,272.7l-66.6,35-75.2-33.3-.8-1.3,69.3-44.7,72.9,41.5c.7.7.7,1.9.4,2.8Z"/>
</svg>