<?xml version="1.0" encoding="UTF-8"?>
<svg id="Layer_1" data-name="Layer 1" xmlns="http://www.w3.org/2000/svg" xmlns:xlink="http://www.w3.org/1999/xlink" viewBox="0 0 1945.33 153.63">
  <defs>
    <style>
      .cls-1 {
        fill: none;
      }

      .cls-2 {
        fill: #a0421d;
      }

      .cls-3 {
        fill: #e08a00;
      }

      .cls-4 {
        clip-path: url(#clippath);
      }
    </style>
    <clipPath id="clippath">
      <rect class="cls-1" width="1945.33" height="153.63"/>
    </clipPath>
  </defs>
  <g class="cls-4">
    <g>
      <g>
        <path class="cls-3" d="M496.42,109.43c-4.39.3-9.45-1.44-12.87-4.17-4.43-3.53-5.46-12.38-3.04-17.27,3.44-6.94,9.71-9.95,17.36-8.83,5.55.81,9.78,5.2,11.35,10.46,2.56,8.56-3.58,19.18-12.8,19.81Z"/>
        <path class="cls-3" d="M526.93,101.97c-.24.04-.49-.19-.71-.27-4.35-2.55-8.96-4.72-13.31-7.27-.26-.15-.78-.39-.6-.74l12.92-8.17c5.18,2.61,10.28,5.39,15.43,8.08.32.17.39.44.06.65l-13.79,7.72Z"/>
        <path class="cls-3" d="M522.38,76.88l-15.03,4.38c-.19.08-.39-.11-.39-.29l3.25-15.59,16.18-4.3.08.28-4.1,15.51Z"/>
        <path class="cls-3" d="M495.52,141.18c-.12.04-.24.02-.35-.04-2.64-4.63-5.18-9.34-7.74-14.03,2.4-5.11,5.01-10.14,7.46-15.23.34-.74.8.4,1.02.78,2.38,4.16,4.6,8.43,6.92,12.63l-6.1,13.41c-.24.3-1.03,2.43-1.21,2.48Z"/>
        <path class="cls-3" d="M527.15,127.05l-14.81-4.92-.33-.18-5.02-15.14c0-.42.34-.49.7-.4l14.49,3.94.33.18,4.91,16.18c-.01.16-.13.28-.27.34Z"/>
        <path class="cls-3" d="M461.62,127.55c-.35-.02-.54-.24-.4-.59,1.97-5.12,3.75-10.32,5.79-15.4l14.1-4.02c.33-.06.55-.05.55.34l-3.75,14.9c-5.4,1.68-10.87,3.18-16.3,4.78Z"/>
        <path class="cls-3" d="M482.17,82.12c-.13.13-1.45-.3-1.72-.38-4.67-1.38-9.27-3.02-13.95-4.38-.09-.04-.19-.08-.26-.15-.16-.15-.55-1.37-.66-1.69-1.57-4.36-2.95-8.8-4.56-13.15-.11-.29-.04-.56.3-.51l16.13,5.07c.14.12.18.32.24.48,1.62,4.64,2.81,9.45,4.43,14.1.04.12.08.58.05.62Z"/>
        <path class="cls-3" d="M494.49,76.68c-.18.05-.35.03-.43-.15l-7.45-14.11c.17-.48.38-.96.59-1.42,1.72-3.78,3.69-7.63,5.53-11.36.14-.29.77-1.66.97-1.7.12-.02.18.07.25.15l7.97,14.75c.12.2.18.43.06.65l-7.23,12.94c-.06.1-.14.22-.26.26Z"/>
        <path class="cls-3" d="M476.52,95.31l-13.05,6.86-14.73-6.53-.16-.26,13.57-8.75,14.28,8.14c.14.14.13.37.08.55Z"/>
      </g>
      <g>
        <path class="cls-3" d="M379.46,109.43c-4.39.3-9.45-1.44-12.87-4.17-4.43-3.53-5.46-12.38-3.04-17.27,3.44-6.94,9.71-9.95,17.36-8.83,5.55.81,9.78,5.2,11.35,10.46,2.56,8.56-3.58,19.18-12.8,19.81Z"/>
        <path class="cls-3" d="M409.98,101.97c-.24.04-.49-.19-.71-.27-4.35-2.55-8.96-4.72-13.31-7.27-.26-.15-.78-.39-.6-.74l12.92-8.17c5.18,2.61,10.28,5.39,15.43,8.08.32.17.39.44.06.65l-13.79,7.72Z"/>
        <path class="cls-3" d="M405.42,76.88l-15.03,4.38c-.19.08-.39-.11-.39-.29l3.25-15.59,16.18-4.3.08.28-4.1,15.51Z"/>
        <path class="cls-3" d="M378.56,141.18c-.12.04-.24.02-.35-.04-2.64-4.63-5.18-9.34-7.74-14.03,2.4-5.11,5.01-10.14,7.46-15.23.34-.74.8.4,1.02.78,2.38,4.16,4.6,8.43,6.92,12.63l-6.1,13.41c-.24.3-1.03,2.43-1.21,2.48Z"/>
        <path class="cls-3" d="M410.19,127.05l-14.81-4.92-.33-.18-5.02-15.14c0-.42.34-.49.7-.4l14.49,3.94.33.18,4.91,16.18c-.01.16-.13.28-.27.34Z"/>
        <path class="cls-3" d="M344.67,127.55c-.35-.02-.54-.24-.4-.59,1.97-5.12,3.75-10.32,5.79-15.4l14.1-4.02c.33-.06.55-.05.55.34l-3.75,14.9c-5.4,1.68-10.87,3.18-16.3,4.78Z"/>
        <path class="cls-3" d="M365.21,82.12c-.13.13-1.45-.3-1.72-.38-4.67-1.38-9.27-3.02-13.95-4.38-.09-.04-.19-.08-.26-.15-.16-.15-.55-1.37-.66-1.69-1.57-4.36-2.95-8.8-4.56-13.15-.11-.29-.04-.56.3-.51l16.13,5.07c.14.12.18.32.24.48,1.62,4.64,2.81,9.45,4.43,14.1.04.12.08.58.05.62Z"/>
        <path class="cls-3" d="M377.53,76.68c-.18.05-.35.03-.43-.15l-7.45-14.11c.17-.48.38-.96.59-1.42,1.72-3.78,3.69-7.63,5.53-11.36.14-.29.77-1.66.97-1.7.12-.02.18.07.25.15l7.97,14.75c.12.2.18.43.06.65l-7.23,12.94c-.06.1-.14.22-.26.26Z"/>
        <path class="cls-3" d="M359.56,95.31l-13.05,6.86-14.73-6.53-.16-.26,13.57-8.75,14.28,8.14c.14.14.13.37.08.55Z"/>
      </g>
      <g>
        <path class="cls-3" d="M257.06,109.43c-4.39.3-9.45-1.44-12.87-4.17-4.43-3.53-5.46-12.38-3.04-17.27,3.44-6.94,9.71-9.95,17.36-8.83,5.55.81,9.78,5.2,11.35,10.46,2.56,8.56-3.58,19.18-12.8,19.81Z"/>
        <path class="cls-3" d="M287.57,101.97c-.24.04-.49-.19-.71-.27-4.35-2.55-8.96-4.72-13.31-7.27-.26-.15-.78-.39-.6-.74l12.92-8.17c5.18,2.61,10.28,5.39,15.43,8.08.32.17.39.44.06.65l-13.79,7.72Z"/>
        <path class="cls-3" d="M283.01,76.88l-15.03,4.38c-.19.08-.39-.11-.39-.29l3.25-15.59,16.18-4.3.08.28-4.1,15.51Z"/>
        <path class="cls-3" d="M256.15,141.18c-.12.04-.24.02-.35-.04-2.64-4.63-5.18-9.34-7.74-14.03,2.4-5.11,5.01-10.14,7.46-15.23.34-.74.8.4,1.02.78,2.38,4.16,4.6,8.43,6.92,12.63l-6.1,13.41c-.24.3-1.03,2.43-1.21,2.48Z"/>
        <path class="cls-3" d="M287.78,127.05l-14.81-4.92-.33-.18-5.02-15.14c0-.42.34-.49.7-.4l14.49,3.94.33.18,4.91,16.18c-.01.16-.13.28-.27.34Z"/>
        <path class="cls-3" d="M222.26,127.55c-.35-.02-.54-.24-.4-.59,1.97-5.12,3.75-10.32,5.79-15.4l14.1-4.02c.33-.06.55-.05.55.34l-3.75,14.9c-5.4,1.68-10.87,3.18-16.3,4.78Z"/>
        <path class="cls-3" d="M242.8,82.12c-.13.13-1.45-.3-1.72-.38-4.67-1.38-9.27-3.02-13.95-4.38-.09-.04-.19-.08-.26-.15-.16-.15-.55-1.37-.66-1.69-1.57-4.36-2.95-8.8-4.56-13.15-.11-.29-.04-.56.3-.51l16.13,5.07c.14.12.18.32.24.48,1.62,4.64,2.81,9.45,4.43,14.1.04.12.08.58.05.62Z"/>
        <path class="cls-3" d="M255.12,76.68c-.18.05-.35.03-.43-.15l-7.45-14.11c.17-.48.38-.96.59-1.42,1.72-3.78,3.69-7.63,5.53-11.36.14-.29.77-1.66.97-1.7.12-.02.18.07.25.15l7.97,14.75c.12.2.18.43.06.65l-7.23,12.94c-.06.1-.14.22-.26.26Z"/>
        <path class="cls-3" d="M237.15,95.31l-13.05,6.86-14.73-6.53-.16-.26,13.57-8.75,14.28,8.14c.14.14.13.37.08.55Z"/>
      </g>
      <g>
        <path class="cls-3" d="M135.91,109.43c-4.39.3-9.45-1.44-12.87-4.17-4.43-3.53-5.46-12.38-3.04-17.27,3.44-6.94,9.71-9.95,17.36-8.83,5.55.81,9.78,5.2,11.35,10.46,2.56,8.56-3.58,19.18-12.8,19.81Z"/>
        <path class="cls-3" d="M166.42,101.97c-.24.04-.49-.19-.71-.27-4.35-2.55-8.96-4.72-13.31-7.27-.26-.15-.78-.39-.6-.74l12.92-8.17c5.18,2.61,10.28,5.39,15.43,8.08.32.17.39.44.06.65l-13.79,7.72Z"/>
        <path class="cls-3" d="M161.86,76.88l-15.03,4.38c-.19.08-.39-.11-.39-.29l3.25-15.59,16.18-4.3.08.28-4.1,15.51Z"/>
        <path class="cls-3" d="M135,141.18c-.12.04-.24.02-.35-.04-2.64-4.63-5.18-9.34-7.74-14.03,2.4-5.11,5.01-10.14,7.46-15.23.34-.74.8.4,1.02.78,2.38,4.16,4.6,8.43,6.92,12.63l-6.1,13.41c-.24.3-1.03,2.43-1.21,2.48Z"/>
        <path class="cls-3" d="M166.63,127.05l-14.81-4.92-.33-.18-5.02-15.14c0-.42.34-.49.7-.4l14.49,3.94.33.18,4.91,16.18c-.01.16-.13.28-.27.34Z"/>
        <path class="cls-3" d="M101.11,127.55c-.35-.02-.54-.24-.4-.59,1.97-5.12,3.75-10.32,5.79-15.4l14.1-4.02c.33-.06.55-.05.55.34l-3.75,14.9c-5.4,1.68-10.87,3.18-16.3,4.78Z"/>
        <path class="cls-3" d="M121.65,82.12c-.13.13-1.45-.3-1.72-.38-4.67-1.38-9.27-3.02-13.95-4.38-.09-.04-.19-.08-.26-.15-.16-.15-.55-1.37-.66-1.69-1.57-4.36-2.95-8.8-4.56-13.15-.11-.29-.04-.56.3-.51l16.13,5.07c.14.12.18.32.24.48,1.62,4.64,2.81,9.45,4.43,14.1.04.12.08.58.05.62Z"/>
        <path class="cls-3" d="M133.97,76.68c-.18.05-.35.03-.43-.15l-7.45-14.11c.17-.48.38-.96.59-1.42,1.72-3.78,3.69-7.63,5.53-11.36.14-.29.77-1.66.97-1.7.12-.02.18.07.25.15l7.97,14.75c.12.2.18.43.06.65l-7.23,12.94c-.06.1-.14.22-.26.26Z"/>
        <path class="cls-3" d="M116,95.31l-13.05,6.86-14.73-6.53-.16-.26,13.57-8.75,14.28,8.14c.14.14.13.37.08.55Z"/>
      </g>
      <g>
        <path class="cls-3" d="M14.76,109.43c-4.39.3-9.45-1.44-12.87-4.17-4.43-3.53-5.46-12.38-3.04-17.27,3.44-6.94,9.71-9.95,17.36-8.83,5.55.81,9.78,5.2,11.35,10.46,2.56,8.56-3.58,19.18-12.8,19.81Z"/>
        <path class="cls-3" d="M45.27,101.97c-.24.04-.49-.19-.71-.27-4.35-2.55-8.96-4.72-13.31-7.27-.26-.15-.78-.39-.6-.74l12.92-8.17c5.18,2.61,10.28,5.39,15.43,8.08.32.17.39.44.06.65l-13.79,7.72Z"/>
        <path class="cls-3" d="M40.71,76.88l-15.03,4.38c-.19.08-.39-.11-.39-.29l3.25-15.59,16.18-4.3.08.28-4.1,15.51Z"/>
        <path class="cls-3" d="M13.85,141.18c-.12.04-.24.02-.35-.04-2.64-4.63-5.18-9.34-7.74-14.03,2.4-5.11,5.01-10.14,7.46-15.23.34-.74.8.4,1.02.78,2.38,4.16,4.6,8.43,6.92,12.63l-6.1,13.41c-.24.3-1.03,2.43-1.21,2.48Z"/>
        <path class="cls-3" d="M45.48,127.05l-14.81-4.92-.33-.18-5.02-15.14c0-.42.34-.49.7-.4l14.49,3.94.33.18,4.91,16.18c-.01.16-.13.28-.27.34Z"/>
        <path class="cls-3" d="M.5,82.12c-.13.13-1.45-.3-1.72-.38-4.67-1.38-9.27-3.02-13.95-4.38-.09-.04-.19-.08-.26-.15-.16-.15-.55-1.37-.66-1.69-1.57-4.36-2.95-8.8-4.56-13.15-.11-.29-.04-.56.3-.51l16.13,5.07c.14.12.18.32.24.48,1.62,4.64,2.81,9.45,4.43,14.1.04.12.08.58.05.62Z"/>
        <path class="cls-3" d="M12.82,76.68c-.18.05-.35.03-.43-.15l-7.45-14.11c.17-.48.38-.96.59-1.42,1.72-3.78,3.69-7.63,5.53-11.36.14-.29.77-1.66.97-1.7.12-.02.18.07.25.15l7.97,14.75c.12.2.18.43.06.65l-7.23,12.94c-.06.1-.14.22-.26.26Z"/>
      </g>
      <g>
        <path class="cls-3" d="M979.95,109.43c-4.39.3-9.45-1.44-12.87-4.17-4.43-3.53-5.46-12.38-3.04-17.27,3.44-6.94,9.71-9.95,17.36-8.83,5.55.81,9.78,5.2,11.35,10.46,2.56,8.56-3.58,19.18-12.8,19.81Z"/>
        <path class="cls-3" d="M1010.46,101.97c-.24.04-.49-.19-.71-.27-4.35-2.55-8.96-4.72-13.31-7.27-.26-.15-.78-.39-.6-.74l12.92-8.17c5.18,2.61,10.28,5.39,15.43,8.08.32.17.39.44.06.65l-13.79,7.72Z"/>
        <path class="cls-3" d="M1005.91,76.88l-15.03,4.38c-.19.08-.39-.11-.39-.29l3.25-15.59,16.18-4.3.08.28-4.1,15.51Z"/>
        <path class="cls-3" d="M979.05,141.18c-.12.04-.24.02-.35-.04-2.64-4.63-5.18-9.34-7.74-14.03,2.4-5.11,5.01-10.14,7.46-15.23.34-.74.8.4,1.02.78,2.38,4.16,4.6,8.43,6.92,12.63l-6.1,13.41c-.24.3-1.03,2.43-1.21,2.48Z"/>
        <path class="cls-3" d="M1010.68,127.05l-14.81-4.92-.33-.18-5.02-15.14c0-.42.34-.49.7-.4l14.49,3.94.33.18,4.91,16.18c-.01.16-.13.28-.27.34Z"/>
        <path class="cls-3" d="M945.16,127.55c-.35-.02-.54-.24-.4-.59,1.97-5.12,3.75-10.32,5.79-15.4l14.1-4.02c.33-.06.55-.05.55.34l-3.75,14.9c-5.4,1.68-10.87,3.18-16.3,4.78Z"/>
        <path class="cls-3" d="M965.7,82.12c-.13.13-1.45-.3-1.72-.38-4.67-1.38-9.27-3.02-13.95-4.38-.09-.04-.19-.08-.26-.15-.16-.15-.55-1.37-.66-1.69-1.57-4.36-2.95-8.8-4.56-13.15-.11-.29-.04-.56.3-.51l16.13,5.07c.14.12.18.32.24.48,1.62,4.64,2.81,9.45,4.43,14.1.04.12.08.58.05.62Z"/>
        <path class="cls-3" d="M978.02,76.68c-.18.05-.35.03-.43-.15l-7.45-14.11c.17-.48.38-.96.59-1.42,1.72-3.78,3.69-7.63,5.53-11.36.14-.29.77-1.66.97-1.7.12-.02.18.07.25.15l7.97,14.75c.12.2.18.43.06.65l-7.23,12.94c-.06.1-.14.22-.26.26Z"/>
        <path class="cls-3" d="M960.05,95.31l-13.05,6.86-14.73-6.53-.16-.26,13.57-8.75,14.28,8.14c.14.14.13.37.08.55Z"/>
      </g>
      <g>
        <path class="cls-3" d="M857.55,109.43c-4.39.3-9.45-1.44-12.87-4.17-4.43-3.53-5.46-12.38-3.04-17.27,3.44-6.94,9.71-9.95,17.36-8.83,5.55.81,9.78,5.2,11.35,10.46,2.56,8.56-3.58,19.18-12.8,19.81Z"/>
        <path class="cls-3" d="M888.06,101.97c-.24.04-.49-.19-.71-.27-4.35-2.55-8.96-4.72-13.31-7.27-.26-.15-.78-.39-.6-.74l12.92-8.17c5.18,2.61,10.28,5.39,15.43,8.08.32.17.39.44.06.65l-13.79,7.72Z"/>
        <path class="cls-3" d="M883.5,76.88l-15.03,4.38c-.19.08-.39-.11-.39-.29l3.25-15.59,16.18-4.3.08.28-4.1,15.51Z"/>
        <path class="cls-3" d="M856.64,141.18c-.12.04-.24.02-.35-.04-2.64-4.63-5.18-9.34-7.74-14.03,2.4-5.11,5.01-10.14,7.46-15.23.34-.74.8.4,1.02.78,2.38,4.16,4.6,8.43,6.92,12.63l-6.1,13.41c-.24.3-1.03,2.43-1.21,2.48Z"/>
        <path class="cls-3" d="M888.27,127.05l-14.81-4.92-.33-.18-5.02-15.14c0-.42.34-.49.7-.4l14.49,3.94.33.18,4.91,16.18c-.01.16-.13.28-.27.34Z"/>
        <path class="cls-3" d="M822.75,127.55c-.35-.02-.54-.24-.4-.59,1.97-5.12,3.75-10.32,5.79-15.4l14.1-4.02c.33-.06.55-.05.55.34l-3.75,14.9c-5.4,1.68-10.87,3.18-16.3,4.78Z"/>
        <path class="cls-3" d="M843.29,82.12c-.13.13-1.45-.3-1.72-.38-4.67-1.38-9.27-3.02-13.95-4.38-.09-.04-.19-.08-.26-.15-.16-.15-.55-1.37-.66-1.69-1.57-4.36-2.95-8.8-4.56-13.15-.11-.29-.04-.56.3-.51l16.13,5.07c.14.12.18.32.24.48,1.62,4.64,2.81,9.45,4.43,14.1.04.12.08.58.05.62Z"/>
        <path class="cls-3" d="M855.61,76.68c-.18.05-.35.03-.43-.15l-7.45-14.11c.17-.48.38-.96.59-1.42,1.72-3.78,3.69-7.63,5.53-11.36.14-.29.77-1.66.97-1.7.12-.02.18.07.25.15l7.97,14.75c.12.2.18.43.06.65l-7.23,12.94c-.06.1-.14.22-.26.26Z"/>
        <path class="cls-3" d="M837.64,95.31l-13.05,6.86-14.73-6.53-.16-.26,13.57-8.75,14.28,8.14c.14.14.13.37.08.55Z"/>
      </g>
      <g>
        <path class="cls-3" d="M736.4,109.43c-4.39.3-9.45-1.44-12.87-4.17-4.43-3.53-5.46-12.38-3.04-17.27,3.44-6.94,9.71-9.95,17.36-8.83,5.55.81,9.78,5.2,11.35,10.46,2.56,8.56-3.58,19.18-12.8,19.81Z"/>
        <path class="cls-3" d="M766.91,101.97c-.24.04-.49-.19-.71-.27-4.35-2.55-8.96-4.72-13.31-7.27-.26-.15-.78-.39-.6-.74l12.92-8.17c5.18,2.61,10.28,5.39,15.43,8.08.32.17.39.44.06.65l-13.79,7.72Z"/>
        <path class="cls-3" d="M762.35,76.88l-15.03,4.38c-.19.08-.39-.11-.39-.29l3.25-15.59,16.18-4.3.08.28-4.1,15.51Z"/>
        <path class="cls-3" d="M735.49,141.18c-.12.04-.24.02-.35-.04-2.64-4.63-5.18-9.34-7.74-14.03,2.4-5.11,5.01-10.14,7.46-15.23.34-.74.8.4,1.02.78,2.38,4.16,4.6,8.43,6.92,12.63l-6.1,13.41c-.24.3-1.03,2.43-1.21,2.48Z"/>
        <path class="cls-3" d="M767.12,127.05l-14.81-4.92-.33-.18-5.02-15.14c0-.42.34-.49.7-.4l14.49,3.94.33.18,4.91,16.18c-.01.16-.13.28-.27.34Z"/>
        <path class="cls-3" d="M701.6,127.55c-.35-.02-.54-.24-.4-.59,1.97-5.12,3.75-10.32,5.79-15.4l14.1-4.02c.33-.06.55-.05.55.34l-3.75,14.9c-5.4,1.68-10.87,3.18-16.3,4.78Z"/>
        <path class="cls-3" d="M722.14,82.12c-.13.13-1.45-.3-1.72-.38-4.67-1.38-9.27-3.02-13.95-4.38-.09-.04-.19-.08-.26-.15-.16-.15-.55-1.37-.66-1.69-1.57-4.36-2.95-8.8-4.56-13.15-.11-.29-.04-.56.3-.51l16.13,5.07c.14.12.18.32.24.48,1.62,4.64,2.81,9.45,4.43,14.1.04.12.08.58.05.62Z"/>
        <path class="cls-3" d="M734.46,76.68c-.18.05-.35.03-.43-.15l-7.45-14.11c.17-.48.38-.96.59-1.42,1.72-3.78,3.69-7.63,5.53-11.36.14-.29.77-1.66.97-1.7.12-.02.18.07.25.15l7.97,14.75c.12.2.18.43.06.65l-7.23,12.94c-.06.1-.14.22-.26.26Z"/>
        <path class="cls-3" d="M716.49,95.31l-13.05,6.86-14.73-6.53-.16-.26,13.57-8.75,14.28,8.14c.14.14.13.37.08.55Z"/>
      </g>
      <g>
        <path class="cls-3" d="M615.24,109.43c-4.39.3-9.45-1.44-12.87-4.17-4.43-3.53-5.46-12.38-3.04-17.27,3.44-6.94,9.71-9.95,17.36-8.83,5.55.81,9.78,5.2,11.35,10.46,2.56,8.56-3.58,19.18-12.8,19.81Z"/>
        <path class="cls-3" d="M645.76,101.97c-.24.04-.49-.19-.71-.27-4.35-2.55-8.96-4.72-13.31-7.27-.26-.15-.78-.39-.6-.74l12.92-8.17c5.18,2.61,10.28,5.39,15.43,8.08.32.17.39.44.06.65l-13.79,7.72Z"/>
        <path class="cls-3" d="M641.2,76.88l-15.03,4.38c-.19.08-.39-.11-.39-.29l3.25-15.59,16.18-4.3.08.28-4.1,15.51Z"/>
        <path class="cls-3" d="M614.34,141.18c-.12.04-.24.02-.35-.04-2.64-4.63-5.18-9.34-7.74-14.03,2.4-5.11,5.01-10.14,7.46-15.23.34-.74.8.4,1.02.78,2.38,4.16,4.6,8.43,6.92,12.63l-6.1,13.41c-.24.3-1.03,2.43-1.21,2.48Z"/>
        <path class="cls-3" d="M645.97,127.05l-14.81-4.92-.33-.18-5.02-15.14c0-.42.34-.49.7-.4l14.49,3.94.33.18,4.91,16.18c-.01.16-.13.28-.27.34Z"/>
        <path class="cls-3" d="M580.45,127.55c-.35-.02-.54-.24-.4-.59,1.97-5.12,3.75-10.32,5.79-15.4l14.1-4.02c.33-.06.55-.05.55.34l-3.75,14.9c-5.4,1.68-10.87,3.18-16.3,4.78Z"/>
        <path class="cls-3" d="M600.99,82.12c-.13.13-1.45-.3-1.72-.38-4.67-1.38-9.27-3.02-13.95-4.38-.09-.04-.19-.08-.26-.15-.16-.15-.55-1.37-.66-1.69-1.57-4.36-2.95-8.8-4.56-13.15-.11-.29-.04-.56.3-.51l16.13,5.07c.14.12.18.32.24.48,1.62,4.64,2.81,9.45,4.43,14.1.04.12.08.58.05.62Z"/>
        <path class="cls-3" d="M613.31,76.68c-.18.05-.35.03-.43-.15l-7.45-14.11c.17-.48.38-.96.59-1.42,1.72-3.78,3.69-7.63,5.53-11.36.14-.29.77-1.66.97-1.7.12-.02.18.07.25.15l7.97,14.75c.12.2.18.43.06.65l-7.23,12.94c-.06.1-.14.22-.26.26Z"/>
        <path class="cls-3" d="M595.34,95.31l-13.05,6.86-14.73-6.53-.16-.26,13.57-8.75,14.28,8.14c.14.14.13.37.08.55Z"/>
      </g>
      <g>
        <path class="cls-3" d="M1698.95,109.43c-4.39.3-9.45-1.44-12.87-4.17-4.43-3.53-5.46-12.38-3.04-17.27,3.44-6.94,9.71-9.95,17.36-8.83,5.55.81,9.78,5.2,11.35,10.46,2.56,8.56-3.58,19.18-12.8,19.81Z"/>
        <path class="cls-3" d="M1729.46,101.97c-.24.04-.49-.19-.71-.27-4.35-2.55-8.96-4.72-13.31-7.27-.26-.15-.78-.39-.6-.74l12.92-8.17c5.18,2.61,10.28,5.39,15.43,8.08.32.17.39.44.06.65l-13.79,7.72Z"/>
        <path class="cls-3" d="M1724.91,76.88l-15.03,4.38c-.19.08-.39-.11-.39-.29l3.25-15.59,16.18-4.3.08.28-4.1,15.51Z"/>
        <path class="cls-3" d="M1698.05,141.18c-.12.04-.24.02-.35-.04-2.64-4.63-5.18-9.34-7.74-14.03,2.4-5.11,5.01-10.14,7.46-15.23.34-.74.8.4,1.02.78,2.38,4.16,4.6,8.43,6.92,12.63l-6.1,13.41c-.24.3-1.03,2.43-1.21,2.48Z"/>
        <path class="cls-3" d="M1729.68,127.05l-14.81-4.92-.33-.18-5.02-15.14c0-.42.34-.49.7-.4l14.49,3.94.33.18,4.91,16.18c-.01.16-.13.28-.27.34Z"/>
        <path class="cls-3" d="M1664.15,127.55c-.35-.02-.54-.24-.4-.59,1.97-5.12,3.75-10.32,5.79-15.4l14.1-4.02c.33-.06.55-.05.55.34l-3.75,14.9c-5.4,1.68-10.87,3.18-16.3,4.78Z"/>
        <path class="cls-3" d="M1684.7,82.12c-.13.13-1.45-.3-1.72-.38-4.67-1.38-9.27-3.02-13.95-4.38-.09-.04-.19-.08-.26-.15-.16-.15-.55-1.37-.66-1.69-1.57-4.36-2.95-8.8-4.56-13.15-.11-.29-.04-.56.3-.51l16.13,5.07c.14.12.18.32.24.48,1.62,4.64,2.81,9.45,4.43,14.1.04.12.08.58.05.62Z"/>
        <path class="cls-3" d="M1697.02,76.68c-.18.05-.35.03-.43-.15l-7.45-14.11c.17-.48.38-.96.59-1.42,1.72-3.78,3.69-7.63,5.53-11.36.14-.29.77-1.66.97-1.7.12-.02.18.07.25.15l7.97,14.75c.12.2.18.43.06.65l-7.23,12.94c-.06.1-.14.22-.26.26Z"/>
        <path class="cls-3" d="M1679.05,95.31l-13.05,6.86-14.73-6.53-.16-.26,13.57-8.75,14.28,8.14c.14.14.13.37.08.55Z"/>
      </g>
      <g>
        <path class="cls-3" d="M1581.99,109.43c-4.39.3-9.45-1.44-12.87-4.17-4.43-3.53-5.46-12.38-3.04-17.27,3.44-6.94,9.71-9.95,17.36-8.83,5.55.81,9.78,5.2,11.35,10.46,2.56,8.56-3.58,19.18-12.8,19.81Z"/>
        <path class="cls-3" d="M1612.5,101.97c-.24.04-.49-.19-.71-.27-4.35-2.55-8.96-4.72-13.31-7.27-.26-.15-.78-.39-.6-.74l12.92-8.17c5.18,2.61,10.28,5.39,15.43,8.08.32.17.39.44.06.65l-13.79,7.72Z"/>
        <path class="cls-3" d="M1607.95,76.88l-15.03,4.38c-.19.08-.39-.11-.39-.29l3.25-15.59,16.18-4.3.08.28-4.1,15.51Z"/>
        <path class="cls-3" d="M1581.09,141.18c-.12.04-.24.02-.35-.04-2.64-4.63-5.18-9.34-7.74-14.03,2.4-5.11,5.01-10.14,7.46-15.23.34-.74.8.4,1.02.78,2.38,4.16,4.6,8.43,6.92,12.63l-6.1,13.41c-.24.3-1.03,2.43-1.21,2.48Z"/>
        <path class="cls-3" d="M1612.72,127.05l-14.81-4.92-.33-.18-5.02-15.14c0-.42.34-.49.7-.4l14.49,3.94.33.18,4.91,16.18c-.01.16-.13.28-.27.34Z"/>
        <path class="cls-3" d="M1547.19,127.55c-.35-.02-.54-.24-.4-.59,1.97-5.12,3.75-10.32,5.79-15.4l14.1-4.02c.33-.06.55-.05.55.34l-3.75,14.9c-5.4,1.68-10.87,3.18-16.3,4.78Z"/>
        <path class="cls-3" d="M1567.74,82.12c-.13.13-1.45-.3-1.72-.38-4.67-1.38-9.27-3.02-13.95-4.38-.09-.04-.19-.08-.26-.15-.16-.15-.55-1.37-.66-1.69-1.57-4.36-2.95-8.8-4.56-13.15-.11-.29-.04-.56.3-.51l16.13,5.07c.14.12.18.32.24.48,1.62,4.64,2.81,9.45,4.43,14.1.04.12.08.58.05.62Z"/>
        <path class="cls-3" d="M1580.06,76.68c-.18.05-.35.03-.43-.15l-7.45-14.11c.17-.48.38-.96.59-1.42,1.72-3.78,3.69-7.63,5.53-11.36.14-.29.77-1.66.97-1.7.12-.02.18.07.25.15l7.97,14.75c.12.2.18.43.06.65l-7.23,12.94c-.06.1-.14.22-.26.26Z"/>
        <path class="cls-3" d="M1562.09,95.31l-13.05,6.86-14.73-6.53-.16-.26,13.57-8.75,14.28,8.14c.14.14.13.37.08.55Z"/>
      </g>
      <g>
        <path class="cls-3" d="M1459.58,109.43c-4.39.3-9.45-1.44-12.87-4.17-4.43-3.53-5.46-12.38-3.04-17.27,3.44-6.94,9.71-9.95,17.36-8.83,5.55.81,9.78,5.2,11.35,10.46,2.56,8.56-3.58,19.18-12.8,19.81Z"/>
        <path class="cls-3" d="M1490.1,101.97c-.24.04-.49-.19-.71-.27-4.35-2.55-8.96-4.72-13.31-7.27-.26-.15-.78-.39-.6-.74l12.92-8.17c5.18,2.61,10.28,5.39,15.43,8.08.32.17.39.44.06.65l-13.79,7.72Z"/>
        <path class="cls-3" d="M1485.54,76.88l-15.03,4.38c-.19.08-.39-.11-.39-.29l3.25-15.59,16.18-4.3.08.28-4.1,15.51Z"/>
        <path class="cls-3" d="M1458.68,141.18c-.12.04-.24.02-.35-.04-2.64-4.63-5.18-9.34-7.74-14.03,2.4-5.11,5.01-10.14,7.46-15.23.34-.74.8.4,1.02.78,2.38,4.16,4.6,8.43,6.92,12.63l-6.1,13.41c-.24.3-1.03,2.43-1.21,2.48Z"/>
        <path class="cls-3" d="M1490.31,127.05l-14.81-4.92-.33-.18-5.02-15.14c0-.42.34-.49.7-.4l14.49,3.94.33.18,4.91,16.18c-.01.16-.13.28-.27.34Z"/>
        <path class="cls-3" d="M1424.79,127.55c-.35-.02-.54-.24-.4-.59,1.97-5.12,3.75-10.32,5.79-15.4l14.1-4.02c.33-.06.55-.05.55.34l-3.75,14.9c-5.4,1.68-10.87,3.18-16.3,4.78Z"/>
        <path class="cls-3" d="M1445.33,82.12c-.13.13-1.45-.3-1.72-.38-4.67-1.38-9.27-3.02-13.95-4.38-.09-.04-.19-.08-.26-.15-.16-.15-.55-1.37-.66-1.69-1.57-4.36-2.95-8.8-4.56-13.15-.11-.29-.04-.56.3-.51l16.13,5.07c.14.12.18.32.24.48,1.62,4.64,2.81,9.45,4.43,14.1.04.12.08.58.05.62Z"/>
        <path class="cls-3" d="M1457.65,76.68c-.18.05-.35.03-.43-.15l-7.45-14.11c.17-.48.38-.96.59-1.42,1.72-3.78,3.69-7.63,5.53-11.36.14-.29.77-1.66.97-1.7.12-.02.18.07.25.15l7.97,14.75c.12.2.18.43.06.65l-7.23,12.94c-.06.1-.14.22-.26.26Z"/>
        <path class="cls-3" d="M1439.68,95.31l-13.05,6.86-14.73-6.53-.16-.26,13.57-8.75,14.28,8.14c.14.14.13.37.08.55Z"/>
      </g>
      <g>
        <path class="cls-3" d="M1338.43,109.43c-4.39.3-9.45-1.44-12.87-4.17-4.43-3.53-5.46-12.38-3.04-17.27,3.44-6.94,9.71-9.95,17.36-8.83,5.55.81,9.78,5.2,11.35,10.46,2.56,8.56-3.58,19.18-12.8,19.81Z"/>
        <path class="cls-3" d="M1368.95,101.97c-.24.04-.49-.19-.71-.27-4.35-2.55-8.96-4.72-13.31-7.27-.26-.15-.78-.39-.6-.74l12.92-8.17c5.18,2.61,10.28,5.39,15.43,8.08.32.17.39.44.06.65l-13.79,7.72Z"/>
        <path class="cls-3" d="M1364.39,76.88l-15.03,4.38c-.19.08-.39-.11-.39-.29l3.25-15.59,16.18-4.3.08.28-4.1,15.51Z"/>
        <path class="cls-3" d="M1337.53,141.18c-.12.04-.24.02-.35-.04-2.64-4.63-5.18-9.34-7.74-14.03,2.4-5.11,5.01-10.14,7.46-15.23.34-.74.8.4,1.02.78,2.38,4.16,4.6,8.43,6.92,12.63l-6.1,13.41c-.24.3-1.03,2.43-1.21,2.48Z"/>
        <path class="cls-3" d="M1369.16,127.05l-14.81-4.92-.33-.18-5.02-15.14c0-.42.34-.49.7-.4l14.49,3.94.33.18,4.91,16.18c-.01.16-.13.28-.27.34Z"/>
        <path class="cls-3" d="M1303.64,127.55c-.35-.02-.54-.24-.4-.59,1.97-5.12,3.75-10.32,5.79-15.4l14.1-4.02c.33-.06.55-.05.55.34l-3.75,14.9c-5.4,1.68-10.87,3.18-16.3,4.78Z"/>
        <path class="cls-3" d="M1324.18,82.12c-.13.13-1.45-.3-1.72-.38-4.67-1.38-9.27-3.02-13.95-4.38-.09-.04-.19-.08-.26-.15-.16-.15-.55-1.37-.66-1.69-1.57-4.36-2.95-8.8-4.56-13.15-.11-.29-.04-.56.3-.51l16.13,5.07c.14.12.18.32.24.48,1.62,4.64,2.81,9.45,4.43,14.1.04.12.08.58.05.62Z"/>
        <path class="cls-3" d="M1336.5,76.68c-.18.05-.35.03-.43-.15l-7.45-14.11c.17-.48.38-.96.59-1.42,1.72-3.78,3.69-7.63,5.53-11.36.14-.29.77-1.66.97-1.7.12-.02.18.07.25.15l7.97,14.75c.12.2.18.43.06.65l-7.23,12.94c-.06.1-.14.22-.26.26Z"/>
        <path class="cls-3" d="M1318.53,95.31l-13.05,6.86-14.73-6.53-.16-.26,13.57-8.75,14.28,8.14c.14.14.13.37.08.55Z"/>
      </g>
      <g>
        <path class="cls-3" d="M1217.28,109.43c-4.39.3-9.45-1.44-12.87-4.17-4.43-3.53-5.46-12.38-3.04-17.27,3.44-6.94,9.71-9.95,17.36-8.83,5.55.81,9.78,5.2,11.35,10.46,2.56,8.56-3.58,19.18-12.8,19.81Z"/>
        <path class="cls-3" d="M1247.8,101.97c-.24.04-.49-.19-.71-.27-4.35-2.55-8.96-4.72-13.31-7.27-.26-.15-.78-.39-.6-.74l12.92-8.17c5.18,2.61,10.28,5.39,15.43,8.08.32.17.39.44.06.65l-13.79,7.72Z"/>
        <path class="cls-3" d="M1243.24,76.88l-15.03,4.38c-.19.08-.39-.11-.39-.29l3.25-15.59,16.18-4.3.08.28-4.1,15.51Z"/>
        <path class="cls-3" d="M1216.38,141.18c-.12.04-.24.02-.35-.04-2.64-4.63-5.18-9.34-7.74-14.03,2.4-5.11,5.01-10.14,7.46-15.23.34-.74.8.4,1.02.78,2.38,4.16,4.6,8.43,6.92,12.63l-6.1,13.41c-.24.3-1.03,2.43-1.21,2.48Z"/>
        <path class="cls-3" d="M1248.01,127.05l-14.81-4.92-.33-.18-5.02-15.14c0-.42.34-.49.7-.4l14.49,3.94.33.18,4.91,16.18c-.01.16-.13.28-.27.34Z"/>
        <path class="cls-3" d="M1182.49,127.55c-.35-.02-.54-.24-.4-.59,1.97-5.12,3.75-10.32,5.79-15.4l14.1-4.02c.33-.06.55-.05.55.34l-3.75,14.9c-5.4,1.68-10.87,3.18-16.3,4.78Z"/>
        <path class="cls-3" d="M1203.03,82.12c-.13.13-1.45-.3-1.72-.38-4.67-1.38-9.27-3.02-13.95-4.38-.09-.04-.19-.08-.26-.15-.16-.15-.55-1.37-.66-1.69-1.57-4.36-2.95-8.8-4.56-13.15-.11-.29-.04-.56.3-.51l16.13,5.07c.14.12.18.32.24.48,1.62,4.64,2.81,9.45,4.43,14.1.04.12.08.58.05.62Z"/>
        <path class="cls-3" d="M1215.35,76.68c-.18.05-.35.03-.43-.15l-7.45-14.11c.17-.48.38-.96.59-1.42,1.72-3.78,3.69-7.63,5.53-11.36.14-.29.77-1.66.97-1.7.12-.02.18.07.25.15l7.97,14.75c.12.2.18.43.06.65l-7.23,12.94c-.06.1-.14.22-.26.26Z"/>
        <path class="cls-3" d="M1197.38,95.31l-13.05,6.86-14.73-6.53-.16-.26,13.57-8.75,14.28,8.14c.14.14.13.37.08.55Z"/>
      </g>
      <g>
        <path class="cls-3" d="M1098.65,109.43c-4.39.3-9.45-1.44-12.87-4.17-4.43-3.53-5.46-12.38-3.04-17.27,3.44-6.94,9.71-9.95,17.36-8.83,5.55.81,9.78,5.2,11.35,10.46,2.56,8.56-3.58,19.18-12.8,19.81Z"/>
        <path class="cls-3" d="M1129.16,101.97c-.24.04-.49-.19-.71-.27-4.35-2.55-8.96-4.72-13.31-7.27-.26-.15-.78-.39-.6-.74l12.92-8.17c5.18,2.61,10.28,5.39,15.43,8.08.32.17.39.44.06.65l-13.79,7.72Z"/>
        <path class="cls-3" d="M1124.61,76.88l-15.03,4.38c-.19.08-.39-.11-.39-.29l3.25-15.59,16.18-4.3.08.28-4.1,15.51Z"/>
        <path class="cls-3" d="M1097.75,141.18c-.12.04-.24.02-.35-.04-2.64-4.63-5.18-9.34-7.74-14.03,2.4-5.11,5.01-10.14,7.46-15.23.34-.74.8.4,1.02.78,2.38,4.16,4.6,8.43,6.92,12.63l-6.1,13.41c-.24.3-1.03,2.43-1.21,2.48Z"/>
        <path class="cls-3" d="M1129.38,127.05l-14.81-4.92-.33-.18-5.02-15.14c0-.42.34-.49.7-.4l14.49,3.94.33.18,4.91,16.18c-.01.16-.13.28-.27.34Z"/>
        <path class="cls-3" d="M1063.85,127.55c-.35-.02-.54-.24-.4-.59,1.97-5.12,3.75-10.32,5.79-15.4l14.1-4.02c.33-.06.55-.05.55.34l-3.75,14.9c-5.4,1.68-10.87,3.18-16.3,4.78Z"/>
        <path class="cls-3" d="M1084.4,82.12c-.13.13-1.45-.3-1.72-.38-4.67-1.38-9.27-3.02-13.95-4.38-.09-.04-.19-.08-.26-.15-.16-.15-.55-1.37-.66-1.69-1.57-4.36-2.95-8.8-4.56-13.15-.11-.29-.04-.56.3-.51l16.13,5.07c.14.12.18.32.24.48,1.62,4.64,2.81,9.45,4.43,14.1.04.12.08.58.05.62Z"/>
        <path class="cls-3" d="M1096.72,76.68c-.18.05-.35.03-.43-.15l-7.45-14.11c.17-.48.38-.96.59-1.42,1.72-3.78,3.69-7.63,5.53-11.36.14-.29.77-1.66.97-1.7.12-.02.18.07.25.15l7.97,14.75c.12.2.18.43.06.65l-7.23,12.94c-.06.1-.14.22-.26.26Z"/>
        <path class="cls-3" d="M1078.75,95.31l-13.05,6.86-14.73-6.53-.16-.26,13.57-8.75,14.28,8.14c.14.14.13.37.08.55Z"/>
      </g>
      <g>
        <path class="cls-3" d="M1938.92,109.43c-4.39.3-9.45-1.44-12.87-4.17-4.43-3.53-5.46-12.38-3.04-17.27,3.44-6.94,9.71-9.95,17.36-8.83,5.55.81,9.78,5.2,11.35,10.46,2.56,8.56-3.58,19.18-12.8,19.81Z"/>
        <path class="cls-3" d="M1938.02,141.18c-.12.04-.24.02-.35-.04-2.64-4.63-5.18-9.34-7.74-14.03,2.4-5.11,5.01-10.14,7.46-15.23.34-.74.8.4,1.02.78,2.38,4.16,4.6,8.43,6.92,12.63l-6.1,13.41c-.24.3-1.03,2.43-1.21,2.48Z"/>
        <path class="cls-3" d="M1904.13,127.55c-.35-.02-.54-.24-.4-.59,1.97-5.12,3.75-10.32,5.79-15.4l14.1-4.02c.33-.06.55-.05.55.34l-3.75,14.9c-5.4,1.68-10.87,3.18-16.3,4.78Z"/>
        <path class="cls-3" d="M1924.67,82.12c-.13.13-1.45-.3-1.72-.38-4.67-1.38-9.27-3.02-13.95-4.38-.09-.04-.19-.08-.26-.15-.16-.15-.55-1.37-.66-1.69-1.57-4.36-2.95-8.8-4.56-13.15-.11-.29-.04-.56.3-.51l16.13,5.07c.14.12.18.32.24.48,1.62,4.64,2.81,9.45,4.43,14.1.04.12.08.58.05.62Z"/>
        <path class="cls-3" d="M1936.99,76.68c-.18.05-.35.03-.43-.15l-7.45-14.11c.17-.48.38-.96.59-1.42,1.72-3.78,3.69-7.63,5.53-11.36.14-.29.77-1.66.97-1.7.12-.02.18.07.25.15l7.97,14.75c.12.2.18.43.06.65l-7.23,12.94c-.06.1-.14.22-.26.26Z"/>
        <path class="cls-3" d="M1919.02,95.31l-13.05,6.86-14.73-6.53-.16-.26,13.57-8.75,14.28,8.14c.14.14.13.37.08.55Z"/>
      </g>
      <g>
        <path class="cls-3" d="M1817.77,109.43c-4.39.3-9.45-1.44-12.87-4.17-4.43-3.53-5.46-12.38-3.04-17.27,3.44-6.94,9.71-9.95,17.36-8.83,5.55.81,9.78,5.2,11.35,10.46,2.56,8.56-3.58,19.18-12.8,19.81Z"/>
        <path class="cls-3" d="M1848.29,101.97c-.24.04-.49-.19-.71-.27-4.35-2.55-8.96-4.72-13.31-7.27-.26-.15-.78-.39-.6-.74l12.92-8.17c5.18,2.61,10.28,5.39,15.43,8.08.32.17.39.44.06.65l-13.79,7.72Z"/>
        <path class="cls-3" d="M1843.73,76.88l-15.03,4.38c-.19.08-.39-.11-.39-.29l3.25-15.59,16.18-4.3.08.28-4.1,15.51Z"/>
        <path class="cls-3" d="M1816.87,141.18c-.12.04-.24.02-.35-.04-2.64-4.63-5.18-9.34-7.74-14.03,2.4-5.11,5.01-10.14,7.46-15.23.34-.74.8.4,1.02.78,2.38,4.16,4.6,8.43,6.92,12.63l-6.1,13.41c-.24.3-1.03,2.43-1.21,2.48Z"/>
        <path class="cls-3" d="M1848.5,127.05l-14.81-4.92-.33-.18-5.02-15.14c0-.42.34-.49.7-.4l14.49,3.94.33.18,4.91,16.18c-.01.16-.13.28-.27.34Z"/>
        <path class="cls-3" d="M1782.98,127.55c-.35-.02-.54-.24-.4-.59,1.97-5.12,3.75-10.32,5.79-15.4l14.1-4.02c.33-.06.55-.05.55.34l-3.75,14.9c-5.4,1.68-10.87,3.18-16.3,4.78Z"/>
        <path class="cls-3" d="M1803.52,82.12c-.13.13-1.45-.3-1.72-.38-4.67-1.38-9.27-3.02-13.95-4.38-.09-.04-.19-.08-.26-.15-.16-.15-.55-1.37-.66-1.69-1.57-4.36-2.95-8.8-4.56-13.15-.11-.29-.04-.56.3-.51l16.13,5.07c.14.12.18.32.24.48,1.62,4.64,2.81,9.45,4.43,14.1.04.12.08.58.05.62Z"/>
        <path class="cls-3" d="M1815.84,76.68c-.18.05-.35.03-.43-.15l-7.45-14.11c.17-.48.38-.96.59-1.42,1.72-3.78,3.69-7.63,5.53-11.36.14-.29.77-1.66.97-1.7.12-.02.18.07.25.15l7.97,14.75c.12.2.18.43.06.65l-7.23,12.94c-.06.1-.14.22-.26.26Z"/>
        <path class="cls-3" d="M1797.87,95.31l-13.05,6.86-14.73-6.53-.16-.26,13.57-8.75,14.28,8.14c.14.14.13.37.08.55Z"/>
      </g>
      <path class="cls-2" d="M2277.33,33.03c-.09.04-.17.08-.26.12-.2.1-.31.15-.42.15l-20.69-11.65-19.95,11.23-18.57-11.02-17.17,11.43-22.05-11.64-.29.16c-.74.42-1.45.86-2.15,1.31-.5.31-1,.63-1.51.93l-4.61,2.73c-2.91,1.73-5.82,3.46-8.72,5.19-.27.16-.54.35-.81.53-.31.21-.62.43-1,.64-.4.22-.61.31-.7.34l-20.96-12.17-.31.19c-1.26.77-2.49,1.56-3.71,2.36-.91.59-1.81,1.18-2.74,1.76-3.64,2.28-6.92,4.34-10.23,6.35-.27.16-.6.4-.95.64-.52.37-1.12.79-1.51.96-.03.01-.05.02-.07.03l-21.03-12.3-17.99,11.98-22.05-11.64-.29.16c-.74.42-1.44.86-2.15,1.3-.5.31-1,.63-1.51.93l-4.55,2.7c-2.93,1.74-5.86,3.48-8.78,5.22-.27.16-.54.35-.81.53-.31.21-.62.43-1,.64-.4.22-.62.31-.7.34l-20.96-12.17-.31.19c-1.26.77-2.48,1.56-3.7,2.36-.91.59-1.82,1.18-2.74,1.76-3.62,2.27-6.89,4.32-10.23,6.35-.27.16-.6.4-.95.64-.52.37-1.12.79-1.52.96-.03.01-.05.02-.07.03l-21.07-12.32-.32.2c-2.14,1.38-4.27,2.77-6.4,4.15-4.01,2.61-8.16,5.31-12.27,7.93-.07.04-.27.02-.46-.07l-20.85-11.04-19.89,10.87c-.09.04-.17.08-.26.12-.2.1-.31.15-.42.15l-20.69-11.65-19.95,11.23-19.92-11.83-.32.21c-2.12,1.37-4.23,2.74-6.34,4.12-4,2.6-8.14,5.3-12.24,7.91-.07.04-.26.03-.46-.07l-20.85-11.04-19.89,10.87c-.09.04-.18.08-.26.12-.2.1-.31.15-.41.15l-20.69-11.65-19.95,11.23-18.57-11.02-17.17,11.43-22.05-11.64h0s0,0,0,0l-.26.16h-.02s-.08.06-.12.09l-9.41,5.65c-2.49,1.48-4.98,2.96-7.46,4.44-.29.17-.57.35-.85.53-.31.19-.62.39-.94.58l-.12.07s-.09.05-.13.08c-.06.03-.12.05-.17.08-.19.1-.3.14-.4.15l-9.56-5.58-.05.08-11.5-6.59-19.9,11.23-18.52-11.02-17.12,11.43-21.99-11.64-.29.16c-.74.42-1.44.86-2.15,1.31-.5.31-1,.63-1.5.93l-4.6,2.74c-2.9,1.73-5.81,3.46-8.7,5.19-.27.16-.54.35-.81.53-.31.21-.62.43-1,.63-.4.22-.61.31-.7.35l-20.9-12.17-.31.19c-1.26.77-2.49,1.57-3.71,2.37-.9.59-1.8,1.17-2.72,1.75-3.61,2.27-6.87,4.32-10.21,6.35-.27.16-.6.4-.95.64-.52.37-1.11.79-1.51.96-.03.01-.05.02-.07.03l-20.98-12.3-17.94,11.98-21.99-11.64-.29.16c-.74.42-1.44.86-2.15,1.31-.5.31-1,.63-1.5.93l-4.6,2.74c-2.9,1.73-5.81,3.46-8.7,5.19-.27.16-.54.35-.81.53-.31.21-.62.43-.99.63-.4.22-.62.31-.7.35l-20.9-12.17-.31.19c-1.26.77-2.47,1.56-3.69,2.36-.91.59-1.81,1.18-2.73,1.76-3.62,2.28-6.89,4.33-10.21,6.35-.27.16-.6.4-.94.64-.52.37-1.12.79-1.51.96-.03.01-.05.02-.07.03l-21.02-12.32-.32.2c-2.14,1.39-4.28,2.78-6.42,4.18-3.99,2.6-8.12,5.3-12.2,7.9-.07.04-.27.02-.46-.07l-20.79-11.05-19.84,10.87c-.09.04-.17.08-.26.12-.2.1-.31.15-.41.15l-20.64-11.65-19.9,11.23-19.87-11.83-.32.21c-2.11,1.37-4.22,2.74-6.32,4.12-3.99,2.6-8.12,5.3-12.21,7.91-.07.04-.27.02-.46-.07l-20.79-11.05-19.84,10.87c-.09.04-.17.08-.26.12-.2.1-.31.15-.41.15l-20.64-11.65-19.9,11.23-18.52-11.02-17.12,11.44-21.73-11.4-.29.16c-.88.5-1.79,1-2.69,1.5l-1.11.62c-1.77.99-3.57,1.94-5.36,2.88-2.78,1.47-5.66,2.99-8.38,4.62h0s-1.94,1.06-1.94,1.06c-.09.04-.17.08-.26.12-.2.1-.31.15-.42.15l-20.69-11.65-19.95,11.23-18.57-11.02-17.17,11.43-22.05-11.64-.29.16c-.74.42-1.45.86-2.15,1.3-.5.31-1,.63-1.51.93l-4.64,2.75c-2.9,1.72-5.8,3.44-8.69,5.17-.27.16-.54.35-.81.53-.31.21-.62.43-1,.63-.4.22-.62.31-.71.35l-20.96-12.17-.31.19c-1.26.77-2.49,1.57-3.71,2.36-.91.59-1.81,1.18-2.73,1.76-3.62,2.27-6.89,4.32-10.23,6.35-.27.16-.6.4-.95.64-.52.37-1.12.79-1.52.96-.03.01-.05.02-.07.03l-21.03-12.3-17.99,11.98-22.05-11.64-.29.16c-.74.42-1.45.86-2.15,1.31-.5.31-1,.63-1.51.93l-4.58,2.72c-2.92,1.73-5.84,3.47-8.75,5.21-.27.16-.54.35-.81.53-.31.21-.62.43-1,.64-.4.22-.62.31-.7.34l-20.96-12.17-.31.19c-1.26.77-2.48,1.56-3.7,2.36-.91.59-1.82,1.18-2.74,1.76-3.62,2.27-6.89,4.32-10.23,6.35-.27.16-.6.4-.95.64-.52.37-1.12.79-1.52.96-.03.01-.05.02-.07.03l-21.07-12.32-.31.2c-2.15,1.39-4.29,2.78-6.43,4.18-4,2.6-8.14,5.3-12.24,7.9-.07.04-.27.02-.46-.07l-20.85-11.04-19.89,10.87c-.09.04-.17.08-.26.12-.2.1-.31.15-.42.15l-20.69-11.65-19.95,11.23-19.92-11.83-.32.21c-2.11,1.37-4.22,2.74-6.32,4.11-4.01,2.61-8.15,5.31-12.26,7.92-.07.04-.27.02-.47-.07l-20.85-11.04-19.89,10.87c-.09.04-.18.08-.26.12-.2.1-.31.15-.42.15l-20.69-11.65-19.95,11.23-18.57-11.02-17.17,11.43-22.05-11.64h0s0,0,0,0l-.26.16h-.02s-.09.07-.13.09l-9.31,5.59c-2.52,1.5-5.04,2.99-7.55,4.49-.29.17-.57.35-.85.53-.31.19-.62.39-.94.58l-.12.07s-.09.05-.13.08c-.06.03-.12.05-.18.08-.19.1-.3.14-.4.15l-9.56-5.58-.05.08-11.5-6.59-19.9,11.23-18.52-11.02-17.12,11.43-21.99-11.64-.29.16c-.74.42-1.45.86-2.15,1.31-.5.31-.99.63-1.5.93l-4.57,2.72c-2.91,1.73-5.83,3.47-8.73,5.21-.27.16-.54.35-.81.53-.31.21-.62.43-1,.63-.4.22-.61.31-.7.35l-20.9-12.17-.31.19c-1.26.77-2.48,1.56-3.7,2.36-.9.59-1.81,1.18-2.73,1.76-3.62,2.28-6.88,4.33-10.21,6.35-.27.16-.6.4-.95.64-.52.37-1.12.79-1.51.96-.03.01-.05.02-.07.03l-20.98-12.3-17.94,11.98-21.99-11.64-.29.16c-.74.42-1.45.86-2.15,1.31-.5.31-.99.63-1.5.93l-4.5,2.68c-2.93,1.75-5.87,3.49-8.79,5.24-.27.16-.54.35-.81.53-.31.21-.62.43-1,.63-.4.22-.61.31-.7.35l-20.9-12.17-.31.19c-1.26.77-2.48,1.56-3.7,2.36-.9.59-1.81,1.18-2.73,1.76-3.61,2.27-6.87,4.32-10.21,6.35-.27.16-.6.4-.95.64-.52.37-1.11.79-1.51.96-.03.01-.05.02-.07.03l-21.02-12.32-.31.2c-2.14,1.39-4.27,2.78-6.41,4.17-3.99,2.61-8.12,5.3-12.21,7.91-.07.04-.27.02-.46-.07l-20.79-11.05-19.84,10.87c-.09.04-.17.08-.26.12-.2.1-.31.15-.41.15l-20.64-11.65-19.9,11.23-19.87-11.83-.32.21c-2.11,1.37-4.21,2.74-6.31,4.11-4,2.61-8.13,5.31-12.23,7.92-.07.04-.27.02-.46-.07l-20.79-11.05-19.84,10.87c-.09.04-.17.08-.26.12-.2.1-.31.15-.41.15l-20.64-11.65-19.9,11.23-18.52-11.02-17.12,11.43-21.99-11.64-.29.16c-.74.42-1.45.87-2.16,1.31-.5.31-.99.62-1.5.92l-4.46,2.66c-2.95,1.75-5.9,3.51-8.83,5.27-.29.17-.56.35-.85.53-.31.19-.62.39-.94.58l-.12.07c-.15.09-.41.25-.66.33l-9.59-5.61-.04.06c-.75-.53-3.26-2-11.88-7.05.75-.56,1.62-1.09,2.47-1.61.5-.3.99-.61,1.47-.91l4.26-2.78c2.06-1.34,4.12-2.69,6.18-4.02,1.03-.67,2.06-1.34,3.1-2l1.56-1c.12-.08.24-.16.37-.25.28-.2.57-.41.84-.49.15-.04.31-.04.42,0,.06.02.11.05.17.08l21.46,11.66,19.89-11.22,18.52,11.02,17.12-11.43,21.99,11.64.29-.16c.74-.42,1.44-.86,2.15-1.3.5-.31,1-.63,1.51-.93l4.57-2.72c2.91-1.73,5.83-3.47,8.73-5.21.27-.16.54-.35.81-.53.31-.21.62-.43,1-.63.4-.22.61-.31.7-.35l20.9,12.17.31-.19c1.26-.77,2.49-1.57,3.71-2.37.9-.59,1.8-1.17,2.72-1.75,3.62-2.28,6.88-4.33,10.21-6.35.27-.16.6-.4.94-.64.52-.37,1.12-.79,1.51-.96.03-.01.05-.02.07-.03l20.98,12.3,17.94-11.98,21.99,11.64.29-.16c.74-.42,1.44-.86,2.15-1.31.5-.31.99-.63,1.5-.93l4.57-2.72c2.91-1.73,5.83-3.47,8.73-5.21.27-.16.54-.35.81-.53.31-.21.62-.43,1-.64.4-.22.61-.31.7-.34l20.9,12.17.31-.19c1.26-.77,2.48-1.57,3.7-2.36.9-.59,1.8-1.18,2.72-1.75,3.6-2.27,6.85-4.31,10.21-6.35.27-.16.6-.4.94-.64.52-.37,1.12-.79,1.51-.96.03-.01.05-.02.07-.03l21.02,12.32.31-.2c2.12-1.38,4.24-2.76,6.35-4.14,4.01-2.62,8.16-5.32,12.27-7.94.07-.04.27-.02.46.08l20.79,11.04,19.84-10.87c.09-.04.17-.08.26-.12.2-.1.31-.15.41-.15l20.64,11.65,19.9-11.23,19.87,11.83.32-.21c2.11-1.37,4.21-2.74,6.31-4.11,4-2.61,8.13-5.31,12.23-7.92.07-.04.27-.02.46.08l20.79,11.04,19.84-10.87c.09-.04.17-.08.26-.12.2-.1.31-.15.41-.15l20.64,11.65,19.9-11.23,18.52,11.02,17.12-11.43,21.99,11.64.29-.16c.74-.42,1.45-.86,2.15-1.31.5-.31.99-.63,1.5-.93l.21-.12c3.08-1.83,5.9-3.52,8.83-5.27l.06.09c.84-.55,1.69-1.09,2.54-1.64.37-.22.72-.43,1.1-.66.27-.16.54-.35.81-.53.31-.21.62-.43,1-.64.31-.17.51-.26.62-.31.06,0,.12,0,.17.01l20.94,11.31.81.44h0s.01,0,.01,0l.27-.17,4.84-2.72c.33-.18.67-.38,1.02-.57l2.99-1.68c.59-.32,1.17-.64,1.75-.96,1.92-1.05,3.9-2.13,5.88-3.34l3.18-1.79,18.57,11.02,17.17-11.43,22.05,11.64.29-.16c.74-.42,1.45-.86,2.16-1.31.5-.31,1-.63,1.51-.93l4.58-2.72c2.92-1.73,5.84-3.47,8.75-5.21.27-.16.54-.35.81-.53.31-.21.62-.43,1-.63.4-.22.62-.31.7-.35l20.96,12.17.31-.19c1.26-.77,2.49-1.57,3.72-2.37.9-.59,1.81-1.17,2.73-1.75,3.62-2.27,6.89-4.32,10.23-6.35.27-.16.6-.4.95-.64.52-.37,1.12-.79,1.52-.96.03-.01.05-.02.07-.03l21.03,12.3,17.99-11.98,22.05,11.64.29-.16c.74-.42,1.45-.86,2.16-1.31.5-.31,1-.63,1.51-.93l4.58-2.72c2.92-1.73,5.84-3.47,8.75-5.21.27-.16.54-.35.81-.53.31-.21.62-.43,1-.63.4-.22.62-.31.7-.35l20.96,12.17.31-.19c1.27-.77,2.49-1.57,3.72-2.37.9-.59,1.81-1.17,2.72-1.75,3.62-2.27,6.89-4.32,10.23-6.35.27-.16.6-.4.95-.64.52-.37,1.12-.79,1.52-.96.03-.01.05-.02.07-.03l21.07,12.32.31-.2c2.13-1.38,4.26-2.76,6.39-4.15,4.02-2.61,8.17-5.31,12.28-7.93.07-.04.27-.02.47.08l20.85,11.04,19.89-10.87c.09-.04.18-.08.26-.12.2-.1.31-.15.41-.15l20.69,11.65,19.95-11.23,19.92,11.83.32-.21c2.12-1.37,4.22-2.74,6.33-4.11,4.01-2.61,8.15-5.3,12.25-7.91.07-.04.27-.02.46.08l20.85,11.04,19.89-10.87c.09-.04.17-.08.26-.12.2-.1.31-.15.42-.15l20.69,11.65,19.95-11.23,18.57,11.02,17.17-11.43,22.05,11.64.29-.16c.74-.42,1.45-.86,2.16-1.31.5-.31,1-.62,1.5-.93l4.61-2.73c2.91-1.73,5.82-3.46,8.72-5.19.27-.16.54-.35.81-.53.31-.21.62-.43,1-.63.4-.22.62-.31.71-.35l6.72,3.9c1.22.73,2.47,1.48,3.66,2.13l3.16,1.83c.14.08.28.17.41.25,1.14.69,2.31,1.39,3.53,2.06.54.29,1.05.6,1.56.9.45.27.91.54,1.39.8l.21.12h0s0,0,.02,0l.29.16,20.01-11.26,18.52,11.02,17.12-11.43,21.99,11.64.29-.16c.74-.42,1.44-.86,2.15-1.31.5-.31,1-.63,1.5-.93l4.54-2.7c2.92-1.74,5.85-3.48,8.76-5.22.27-.16.54-.35.81-.53.31-.21.62-.43,1-.64.4-.22.61-.31.7-.34l20.9,12.17.31-.19c1.26-.77,2.48-1.57,3.7-2.36.9-.59,1.81-1.18,2.72-1.75,3.61-2.27,6.87-4.32,10.21-6.35.27-.16.6-.4.95-.64.52-.37,1.11-.79,1.51-.96.03-.01.05-.02.07-.03l20.98,12.3,17.94-11.98,21.99,11.64.29-.16c.74-.42,1.44-.86,2.15-1.31.5-.31,1-.63,1.5-.93l4.6-2.74c2.9-1.73,5.8-3.45,8.69-5.18.27-.16.54-.35.81-.53.31-.21.62-.43,1-.64.4-.22.61-.31.7-.34l20.9,12.17.31-.19c1.26-.77,2.48-1.57,3.71-2.36.9-.59,1.8-1.17,2.72-1.75,3.61-2.27,6.87-4.32,10.21-6.35.27-.16.6-.4.95-.64.52-.37,1.12-.79,1.51-.96.03-.01.05-.02.07-.03l21.02,12.32.31-.2c2.13-1.38,4.25-2.76,6.37-4.15,4-2.61,8.15-5.31,12.25-7.93.07-.04.27-.02.46.08l20.79,11.04,19.84-10.87c.09-.04.17-.08.26-.12.2-.1.31-.15.41-.15l20.64,11.65,19.9-11.23,19.87,11.83.32-.21c2.11-1.37,4.21-2.74,6.31-4.11,4-2.61,8.13-5.31,12.23-7.92.07-.04.27-.02.46.08l20.79,11.04,19.84-10.87c.09-.04.17-.08.26-.12.2-.1.31-.15.41-.15l20.64,11.65,19.9-11.23,18.52,11.02,17.12-11.43,21.99,11.64.29-.16c.74-.42,1.44-.86,2.15-1.31.5-.31,1-.63,1.5-.93l.21-.12c3.08-1.83,5.9-3.52,8.83-5.27l.06.09c.85-.55,1.69-1.09,2.54-1.64.37-.22.72-.43,1.09-.65.27-.16.54-.35.81-.53.31-.21.62-.43,1-.64.31-.17.51-.26.62-.31.06,0,.12,0,.17.01l20.93,11.31.82.44h0s.01,0,.01,0l.27-.17,4.84-2.73c.28-.16.58-.33.88-.49l3.14-1.77c.58-.32,1.16-.64,1.74-.95,1.92-1.05,3.9-2.13,5.88-3.33l3.18-1.79,18.57,11.02,17.17-11.43,22.05,11.64.29-.16c.74-.42,1.45-.86,2.15-1.3.5-.31,1-.63,1.51-.93l4.55-2.7c2.93-1.74,5.86-3.48,8.78-5.22.27-.16.54-.35.81-.53.31-.21.62-.43,1-.64.4-.22.61-.31.7-.34l20.96,12.17.31-.19c1.26-.77,2.49-1.57,3.71-2.36.91-.59,1.81-1.18,2.73-1.76,3.62-2.27,6.89-4.32,10.23-6.35.27-.16.6-.39.95-.64.52-.37,1.12-.79,1.52-.96.03-.01.05-.02.07-.03l21.03,12.3,17.99-11.98,22.05,11.64.29-.16c.74-.42,1.45-.86,2.16-1.31.5-.31,1-.62,1.5-.93l4.61-2.73c2.91-1.73,5.82-3.46,8.72-5.19.27-.16.54-.35.81-.53.31-.21.62-.43,1-.63.4-.22.62-.31.71-.35l20.96,12.17.31-.19c1.26-.77,2.49-1.57,3.72-2.36.9-.59,1.81-1.17,2.73-1.75,3.47-2.18,6.86-4.31,10.23-6.35.27-.16.6-.4.95-.64.52-.37,1.12-.79,1.51-.96.03-.01.05-.02.07-.03l21.07,12.32.31-.2c2.14-1.38,4.27-2.77,6.41-4.16,4.01-2.61,8.16-5.31,12.26-7.92.07-.04.27-.02.46.08l20.85,11.04,19.89-10.87c.09-.04.18-.08.26-.12.2-.1.31-.15.41-.15l20.69,11.65,19.95-11.23,19.92,11.83.32-.21c2.12-1.37,4.23-2.74,6.34-4.12,4-2.6,8.14-5.3,12.24-7.91.07-.04.27-.02.46.08l20.85,11.04,19.89-10.87c.09-.04.18-.08.26-.12.2-.1.31-.15.42-.15l20.69,11.65,19.95-11.23,18.57,11.02,17.17-11.43,22.05,11.64.29-.16c.74-.42,1.45-.86,2.16-1.31.5-.31,1-.62,1.5-.93l4.55-2.7c2.93-1.74,5.86-3.48,8.78-5.22.28-.16.54-.35.81-.53.31-.21.62-.43,1-.63.4-.22.62-.31.71-.35l20.64,11.99.61-1.05-20.8-12.08-.2-.07c-.41-.07-.87.13-1.58.52-.36.2-.71.43-1.06.67-.25.17-.49.34-.75.49-2.92,1.74-5.85,3.48-8.78,5.22l-4.55,2.7c-.52.31-1.02.62-1.53.94-.6.38-1.2.75-1.82,1.12l-22.1-11.67-17.13,11.41-18.51-10.99-19.96,11.24-20.2-11.37-.19-.07c-.55-.1-.96.1-1.26.25-.06.03-.13.06-.25.12l-19.37,10.58-20.28-10.75c-.59-.29-1.18-.31-1.66-.03-4.12,2.62-8.27,5.32-12.27,7.92-2.01,1.3-4.01,2.61-6.02,3.91l-19.88-11.8-19.96,11.24-20.2-11.37-.19-.07c-.54-.1-.96.1-1.26.25-.06.03-.13.06-.25.12l-19.37,10.58-20.28-10.75c-.59-.29-1.18-.31-1.66-.03-4.13,2.63-8.28,5.33-12.29,7.94-2.03,1.32-4.06,2.64-6.09,3.96l-20.7-12.1-.12-.02c-.36-.04-.59.06-.8.15-.48.2-1.1.64-1.7,1.07-.32.23-.63.45-.88.6-3.38,2.05-6.77,4.18-10.25,6.36-.92.58-1.83,1.17-2.74,1.76-1.12.73-2.23,1.45-3.38,2.16l-20.49-11.9-.2-.07c-.4-.07-.87.13-1.58.52-.36.2-.71.44-1.06.67-.25.17-.49.34-.74.49-2.9,1.73-5.81,3.46-8.72,5.19l-4.61,2.74c-.52.31-1.02.62-1.53.94-.6.38-1.2.75-1.82,1.12l-22.1-11.67-17.96,11.96-20.65-12.07-.13-.02c-.36-.04-.6.06-.8.15-.48.2-1.1.64-1.71,1.07-.32.23-.63.45-.88.6-3.35,2.04-6.63,4.09-10.25,6.36-.93.58-1.84,1.17-2.75,1.77-1.11.72-2.23,1.45-3.37,2.15l-20.49-11.9-.2-.07c-.4-.07-.87.13-1.58.52-.36.2-.71.44-1.06.67-.25.17-.49.34-.74.49-2.92,1.74-5.85,3.48-8.78,5.22l-4.55,2.7c-.52.31-1.03.63-1.54.95-.6.38-1.2.75-1.82,1.11l-22.1-11.67-17.13,11.41-18.51-10.99-11.56,6.51c-.61.34-1.22.68-1.83,1.03l-2.17,1.22c-.36.2-.72.39-1.07.59-1.12.61-2.18,1.19-3.35,1.89l-20.91-11.34c-.11-.06-.22-.12-.35-.16-.01,0-.02,0-.03,0l-.09-.05-.19-.06c-.18-.03-.38,0-.61.08-.07.01-.15,0-.22.03-.48.14-.88.42-1.23.67-.11.08-.21.15-.31.22l-1.56,1c-.2.13-.4.26-.6.39-3.87,2.32-7.41,4.43-11.36,6.78l-.21.12c-.52.31-1.02.63-1.53.95-.6.38-1.19.75-1.81,1.11l-22.04-11.67-17.09,11.41-18.46-10.99-19.91,11.24-20.15-11.37-.19-.07c-.54-.1-.96.1-1.25.25-.06.03-.13.06-.25.12l-19.32,10.58-20.23-10.74c-.59-.29-1.18-.31-1.65-.03-4.12,2.63-8.26,5.33-12.26,7.94-1.99,1.3-3.99,2.6-5.99,3.9l-19.83-11.8-19.91,11.24-20.15-11.37-.19-.07c-.55-.1-.96.1-1.25.25-.06.03-.13.06-.25.12l-19.32,10.58-20.23-10.75c-.59-.29-1.18-.31-1.65-.03-4.13,2.63-8.27,5.34-12.28,7.95-2.02,1.32-4.03,2.63-6.05,3.94l-20.53-12.03-.11-.06-.13-.02c-.36-.04-.59.06-.8.15-.48.2-1.1.64-1.7,1.07-.32.23-.63.45-.88.6-3.35,2.04-6.61,4.09-10.22,6.36-.92.58-1.83,1.17-2.74,1.76-1.11.73-2.23,1.45-3.37,2.16l-20.43-11.9-.21-.07c-.4-.07-.86.13-1.58.52-.36.2-.71.44-1.06.68-.25.17-.49.34-.74.49-2.89,1.73-5.79,3.46-8.69,5.18l-4.6,2.74c-.52.31-1.02.63-1.53.94-.6.38-1.19.75-1.81,1.11l-22.04-11.67-17.91,11.96-20.48-12.01-.11-.06-.13-.02c-.36-.04-.59.06-.8.15-.48.2-1.1.64-1.7,1.07-.32.23-.63.45-.88.6-3.35,2.04-6.61,4.09-10.22,6.36-.92.58-1.83,1.17-2.74,1.77-1.11.72-2.22,1.45-3.36,2.15l-20.43-11.9-.2-.07c-.4-.07-.86.13-1.58.52-.37.2-.72.44-1.06.67-.25.17-.49.34-.74.49-2.91,1.74-5.83,3.48-8.76,5.22l-4.54,2.7c-.52.31-1.02.63-1.53.94-.6.38-1.19.75-1.81,1.11l-22.04-11.67-17.09,11.41-18.46-10.99-20.03,11.27-6.85-3.98c-.98-.59-1.98-1.18-3.02-1.75l-3.83-2.22c-1.26-.75-2.56-1.53-3.78-2.19l-3.03-1.76-.2-.07c-.41-.07-.87.13-1.58.52-.36.2-.71.44-1.06.67-.25.17-.49.34-.74.49-2.9,1.73-5.81,3.46-8.72,5.19l-4.61,2.74c-.52.31-1.02.62-1.53.94-.6.38-1.2.75-1.82,1.12l-22.1-11.67-17.13,11.41-18.51-10.99-19.96,11.24-20.2-11.37-.19-.07c-.55-.1-.96.1-1.26.25-.06.03-.13.06-.25.12l-19.37,10.58-20.28-10.75c-.59-.29-1.18-.31-1.65-.03-4.13,2.63-8.27,5.32-12.28,7.93-2,1.3-4,2.61-6.01,3.91l-19.88-11.8-19.97,11.24-20.2-11.37-.19-.07c-.55-.1-.96.1-1.26.25-.06.03-.13.06-.25.12l-19.37,10.58-20.28-10.75c-.59-.29-1.18-.31-1.65-.03-4.14,2.63-8.29,5.34-12.31,7.95-2.02,1.32-4.04,2.63-6.07,3.94l-20.7-12.1-.13-.02c-.36-.04-.6.06-.8.15-.48.2-1.1.64-1.71,1.07-.32.23-.63.45-.88.6-3.35,2.04-6.63,4.09-10.25,6.36-.92.58-1.83,1.17-2.74,1.76-1.12.73-2.23,1.45-3.38,2.16l-20.49-11.9-.2-.07c-.4-.07-.87.13-1.59.52-.36.2-.71.44-1.06.67-.25.17-.49.34-.74.49-2.91,1.74-5.83,3.47-8.75,5.2l-4.58,2.72c-.52.31-1.02.63-1.53.94-.6.38-1.2.75-1.82,1.11l-22.1-11.67-17.96,11.96-20.65-12.07-.13-.02c-.36-.04-.6.06-.8.15-.48.2-1.1.64-1.71,1.07-.32.23-.63.45-.88.6-3.35,2.04-6.63,4.09-10.25,6.36-.92.58-1.83,1.17-2.74,1.76-1.12.73-2.23,1.45-3.38,2.16l-20.49-11.9-.2-.07c-.4-.07-.87.13-1.59.52-.36.2-.71.44-1.06.67-.25.17-.49.34-.74.49-2.91,1.74-5.83,3.47-8.75,5.2l-4.58,2.72c-.52.31-1.03.63-1.53.94-.6.38-1.2.75-1.82,1.11l-22.1-11.67-17.13,11.41-18.51-10.99-11.54,6.5c-.64.36-1.29.72-1.94,1.09l-2.05,1.16c-.37.2-.74.4-1.1.6-1.12.61-2.18,1.19-3.35,1.89l-20.91-11.34c-.11-.06-.22-.12-.35-.16-.01,0-.02,0-.03,0l-.09-.05-.19-.06c-.19-.03-.39,0-.63.08-.07.01-.14,0-.21.03-.48.14-.88.42-1.23.67-.11.08-.21.15-.31.22l-1.56,1c-.2.13-.4.26-.6.38-3.88,2.32-7.41,4.43-11.36,6.78l-.21.12c-.52.31-1.02.63-1.53.94-.6.38-1.2.75-1.81,1.11l-22.04-11.67-17.09,11.41-18.46-10.99-19.91,11.24-20.15-11.37-.19-.07c-.55-.1-.96.1-1.25.25-.06.03-.13.06-.25.12l-19.32,10.58-20.23-10.75c-.59-.29-1.18-.31-1.65-.03-4.12,2.63-8.26,5.33-12.26,7.94-1.99,1.3-3.99,2.6-5.99,3.9l-19.83-11.8-19.91,11.24-20.15-11.37-.19-.07c-.55-.1-.96.1-1.25.25-.06.03-.13.06-.25.12l-19.32,10.58-20.23-10.75c-.59-.29-1.18-.31-1.65-.03-4.13,2.64-8.28,5.34-12.3,7.96-2.01,1.31-4.02,2.62-6.04,3.93l-20.53-12.03-.11-.06h-.13c-.36-.06-.6.04-.8.13-.48.2-1.1.64-1.7,1.07-.32.23-.63.45-.88.6-3.36,2.05-6.62,4.09-10.22,6.36-.92.58-1.83,1.17-2.74,1.76-1.11.72-2.22,1.45-3.37,2.16l-20.43-11.9-.2-.07c-.4-.07-.86.13-1.58.52-.36.2-.71.44-1.06.67-.25.17-.49.34-.74.49-2.9,1.74-5.81,3.47-8.73,5.2l-4.57,2.72c-.52.31-1.02.63-1.53.94-.6.38-1.19.75-1.81,1.11l-22.04-11.67-17.91,11.96L30.85,6.76l-.11-.06h-.13c-.35-.06-.6.04-.8.13-.48.2-1.1.64-1.7,1.07-.32.23-.63.45-.88.6-3.33,2.03-6.6,4.08-10.22,6.36-.92.58-1.83,1.17-2.73,1.76-1.11.73-2.23,1.45-3.37,2.16L-9.52,6.88l-.2-.07c-.4-.07-.87.13-1.58.52-.36.2-.71.44-1.06.67-.25.17-.49.34-.74.49-2.9,1.74-5.81,3.47-8.73,5.2l-4.57,2.72c-.52.31-1.03.63-1.53.95-.6.38-1.19.75-1.81,1.11l-22.04-11.67-17.09,11.41-18.46-10.99-19.92,11.24-20.87-11.34c-.11-.06-.22-.12-.35-.16-.34-.12-.76-.12-1.15-.02-.48.14-.88.42-1.22.67-.11.08-.21.15-.31.22l-1.56,1c-1.04.67-2.07,1.34-3.1,2.01-2.06,1.34-4.12,2.68-6.18,4.03l-4.26,2.78c-.46.3-.95.6-1.44.89-.97.59-1.97,1.2-2.82,1.87-.26.2-.41.5-.41.8,0,.3.15.59.47.84,3.76,2.21,10.62,6.22,11.98,7.02l9.97,5.84.11.05c.11.04.21.06.31.06.16,0,.29-.04.39-.07.35-.1.72-.32.96-.47l.1-.06c.34-.2.66-.4.97-.6.27-.17.54-.34.82-.51,2.94-1.76,5.88-3.51,8.83-5.27l4.46-2.66c.51-.31,1.02-.62,1.52-.94.6-.38,1.2-.75,1.82-1.12l22.04,11.67,17.09-11.41,18.46,10.99,19.91-11.24,20.15,11.37.19.07c.55.1.96-.1,1.25-.25.06-.03.13-.06.25-.12l19.32-10.58,20.23,10.75c.59.29,1.18.31,1.65.03,4.12-2.63,8.26-5.33,12.26-7.94,1.99-1.3,3.99-2.6,5.99-3.9l19.83,11.8,19.91-11.24,20.15,11.37.19.07c.55.1.96-.1,1.25-.25.06-.03.13-.06.25-.12l19.32-10.58,20.23,10.75c.59.29,1.18.31,1.65.03,4.12-2.62,8.25-5.32,12.24-7.93,2.03-1.32,4.06-2.65,6.09-3.97l20.53,12.03.11.06h.13c.35.06.59-.05.8-.13.48-.2,1.1-.64,1.7-1.07.32-.23.63-.45.88-.6,3.35-2.04,6.61-4.09,10.22-6.36.93-.58,1.84-1.18,2.75-1.77,1.11-.72,2.22-1.45,3.36-2.15l20.43,11.9.21.07c.4.07.86-.13,1.58-.52.36-.2.71-.44,1.06-.67.25-.17.49-.34.74-.49,2.92-1.75,5.86-3.5,8.79-5.24l4.5-2.68c.52-.31,1.02-.63,1.53-.94.6-.38,1.2-.75,1.82-1.11l22.04,11.67,17.91-11.96,20.48,12.01.11.06h.13c.35.06.59-.04.8-.13.48-.2,1.1-.64,1.7-1.07.32-.23.63-.45.88-.6,3.33-2.03,6.6-4.08,10.22-6.36.93-.58,1.84-1.18,2.75-1.77,1.11-.72,2.22-1.45,3.36-2.15l20.43,11.9.21.07c.4.07.86-.13,1.58-.52.36-.2.71-.44,1.06-.67.25-.17.49-.34.74-.49,2.9-1.74,5.81-3.47,8.73-5.2l4.57-2.72c.52-.31,1.02-.63,1.53-.94.6-.38,1.2-.75,1.81-1.11l22.04,11.67,17.09-11.41,18.46,10.99,19.91-11.23,20.61,11.82h.02s.06.04.06.04l.11.05c.11.04.21.06.31.06.16,0,.29-.04.39-.07.29-.08.57-.24.81-.38,0,0,.01,0,.03-.01l.11-.07s.01,0,.02-.01l.1-.06s0,0,0,0l8.31-4.99c.78-.46,1.56-.93,2.34-1.39l4.47-2.65c.52-.31,1.02-.62,1.52-.94.4-.25.8-.49,1.2-.74l.63-.38,22.09,11.66,17.13-11.41,18.51,10.99,19.96-11.24,20.2,11.37.19.07c.55.1.96-.1,1.26-.25.06-.03.13-.06.25-.12l19.37-10.58,20.28,10.75c.59.29,1.18.31,1.65.03,4.13-2.63,8.28-5.33,12.29-7.94,2-1.3,4-2.6,6-3.9l19.88,11.8,19.97-11.24,20.2,11.37.19.07c.55.1.96-.1,1.26-.25.06-.03.13-.06.25-.12l19.37-10.58,20.29,10.75c.59.29,1.18.31,1.65.03,4.12-2.62,8.26-5.32,12.27-7.92,2.04-1.33,4.07-2.65,6.11-3.97l20.59,12.03.23.08c.35.04.59-.06.8-.15.48-.2,1.1-.64,1.7-1.07.32-.23.63-.45.88-.6,3.35-2.04,6.63-4.09,10.25-6.36.93-.58,1.84-1.18,2.75-1.77,1.11-.72,2.22-1.45,3.37-2.15l20.49,11.9.21.07c.4.07.86-.13,1.58-.52.36-.2.71-.44,1.06-.67.25-.17.49-.34.74-.49,2.91-1.74,5.83-3.47,8.75-5.2l4.58-2.72c.52-.31,1.03-.63,1.53-.95.6-.38,1.2-.75,1.82-1.11l22.1,11.67,17.96-11.96,20.54,12.01.23.08c.36.04.59-.06.8-.15.48-.2,1.1-.64,1.7-1.07.32-.23.63-.45.88-.6,3.35-2.04,6.63-4.09,10.25-6.36.93-.58,1.84-1.17,2.75-1.77,1.11-.72,2.23-1.45,3.37-2.15l20.49,11.9.21.07c.4.07.87-.13,1.58-.52.36-.2.71-.44,1.06-.67.25-.17.49-.34.74-.49,2.89-1.72,5.79-3.45,8.69-5.17l4.64-2.75c.52-.31,1.03-.63,1.54-.95.6-.38,1.2-.75,1.82-1.11l22.1,11.67,17.13-11.41,18.51,10.99,19.96-11.24,20.2,11.37.19.07c.54.1.96-.1,1.26-.25.06-.03.13-.06.25-.12l19.29-10.54,21.75,11.41,17.09-11.41,18.47,10.99,19.91-11.24,20.15,11.37.19.07c.55.1.96-.1,1.25-.25.06-.03.13-.06.25-.12l19.32-10.58,20.23,10.75c.59.29,1.18.31,1.65.03,4.12-2.62,8.25-5.32,12.24-7.93,2-1.3,4-2.61,6-3.91l19.83,11.8,19.91-11.24,20.15,11.37.19.07c.54.1.96-.1,1.25-.25.06-.03.13-.06.25-.12l19.32-10.58,20.23,10.75c.59.29,1.18.31,1.65.03,4.11-2.62,8.24-5.32,12.23-7.92,2.03-1.32,4.06-2.65,6.1-3.97l20.53,12.03.11.06h.13c.35.06.59-.04.8-.13.48-.2,1.1-.64,1.7-1.07.32-.23.63-.45.88-.6,3.32-2.02,6.59-4.08,10.22-6.36.93-.58,1.84-1.18,2.75-1.77,1.11-.72,2.22-1.44,3.36-2.15l20.43,11.9.21.07c.4.07.87-.13,1.58-.52.36-.2.71-.43,1.05-.67.25-.17.49-.34.74-.49,2.89-1.73,5.79-3.46,8.7-5.19l4.6-2.74c.52-.31,1.02-.63,1.53-.95.6-.38,1.19-.75,1.81-1.11l22.04,11.67,17.91-11.96,20.48,12.01.11.06.13.02c.35.04.59-.06.8-.15.48-.2,1.1-.64,1.7-1.07.32-.23.63-.45.88-.6,3.35-2.04,6.61-4.09,10.22-6.36.92-.58,1.83-1.17,2.73-1.76,1.11-.73,2.23-1.45,3.37-2.16l20.43,11.9.21.07c.4.07.86-.13,1.58-.52.36-.2.71-.44,1.06-.68.25-.17.49-.34.74-.49,2.89-1.73,5.79-3.46,8.7-5.19l4.6-2.74c.52-.31,1.02-.63,1.53-.94.6-.38,1.19-.75,1.81-1.11l22.04,11.67,17.09-11.41,18.46,10.99,19.91-11.23,20.61,11.82h.02s.05.03.05.03l.12.06c.11.04.21.06.31.06.16,0,.29-.04.39-.07.28-.08.57-.24.8-.38.01,0,.02,0,.03-.01l.12-.07s0,0,0,0l.05-.03,8.37-5.02c.84-.5,1.68-1,2.51-1.5l4.3-2.55c.52-.31,1.02-.62,1.52-.94.39-.24.78-.48,1.17-.72l.66-.4,22.09,11.66,17.13-11.41,18.51,10.99,19.96-11.24,20.2,11.37.19.07c.54.1.96-.1,1.26-.25.06-.03.13-.06.25-.12l19.37-10.58,20.29,10.75c.59.29,1.18.3,1.65.03,4.13-2.62,8.27-5.32,12.27-7.93,2-1.31,4.01-2.61,6.02-3.91l19.88,11.8,19.96-11.24,20.2,11.37.19.07c.54.1.96-.1,1.26-.25.06-.03.13-.06.25-.12l19.37-10.58,20.29,10.75c.59.29,1.18.31,1.65.03,4.14-2.63,8.29-5.33,12.3-7.94,2.03-1.32,4.05-2.63,6.08-3.95l20.59,12.03.23.08c.36.04.59-.06.8-.15.48-.2,1.1-.64,1.7-1.07.32-.23.63-.45.88-.6,3.35-2.04,6.63-4.09,10.25-6.36.93-.58,1.84-1.18,2.76-1.77,1.11-.72,2.22-1.44,3.36-2.15l20.49,11.9.21.07c.4.07.86-.13,1.58-.52.36-.2.71-.44,1.06-.67.25-.17.49-.34.74-.49,2.92-1.74,5.85-3.48,8.78-5.22l4.55-2.7c.52-.31,1.03-.63,1.54-.95.6-.38,1.19-.75,1.81-1.11l22.1,11.67,17.96-11.96,20.54,12.01.23.08c.36.04.59-.06.8-.15.48-.2,1.1-.64,1.7-1.07.33-.23.63-.45.88-.6,3.33-2.02,6.61-4.08,10.25-6.36.93-.58,1.84-1.17,2.75-1.77,1.11-.72,2.23-1.45,3.37-2.15l20.49,11.9.21.07c.4.06.86-.13,1.58-.52.36-.2.71-.44,1.06-.67.25-.17.49-.34.74-.49,2.9-1.73,5.81-3.46,8.72-5.19l4.61-2.74c.52-.31,1.03-.63,1.53-.94.6-.38,1.2-.75,1.82-1.11l22.1,11.67,17.13-11.41,18.51,10.99,19.96-11.24,20.2,11.37.19.07c.55.1.96-.1,1.26-.25.06-.03.13-.06.25-.12l19.66-10.74-.58-1.07-19.61,10.71Z"/>
    </g>
  </g>
</svg>