<?xml version="1.0" encoding="UTF-8"?>
<svg id="Layer_1" data-name="Layer 1" xmlns="http://www.w3.org/2000/svg" viewBox="0 0 1940.65 954.96">
  <defs>
    <style>
      .cls-1 {
        fill: #001751;
      }
    </style>
  </defs>
  <path class="cls-1" d="M1940.65,58.2v896.76H0V57.6l.2-19.52,6.21-7.05c.14-.15.31-.18.49-.07,1.7,1.86,3.48,3.65,5.22,5.49,3.03,3.22,5.99,6.53,9.04,9.74.43.46,1.83,1.72,2.62,2.56,4.86-4.82,9.53-9.84,14.31-14.73.4-.41,2.94-3.05,3.16-3.11.13-.04.2-.02.32.05.28.15,1.05,1.08,1.39,1.39,5.02,4.6,9.76,9.55,14.75,14.19.54.51,1.02,1.09,1.6,1.57l18.36-16.25.35.07c2.85,2.55,5.56,5.3,8.33,7.93,2.02,1.92,4.11,3.79,6.12,5.69.73.7,1.47,1.63,2.22,2.24.22.17.62.54.88.47l8.99-8.68c2.32-2.09,4.52-4.31,6.82-6.4.37-.33,1.17-1.37,1.6-1.34.43.05,2,1.78,2.43,2.17,5.02,4.56,10.09,9.09,15.03,13.77.58.54.76.84.81,1.19,4.95-4.9,9.68-10,14.54-14.96.4-.41,2.95-3.05,3.15-3.11.15-.04.21-.02.32.05.29.15,1.06,1.08,1.39,1.39,5.03,4.6,9.77,9.55,14.75,14.19.54.51,1.03,1.09,1.6,1.57l18.37-16.25.35.07c2.85,2.55,5.55,5.3,8.33,7.93,2.02,1.92,4.11,3.79,6.12,5.69.72.7,1.47,1.63,2.23,2.24.21.17.61.54.87.47l9-8.68c2.32-2.09,4.5-4.31,6.81-6.4.37-.33,1.17-1.37,1.59-1.34.44.05,2.01,1.78,2.44,2.17,5.02,4.56,10.1,9.09,15.02,13.77.24.22.41.4.53.56l17.78-16.65c.41-.43.87.09,1.24.41,1.14.96,2.24,2.29,3.34,3.35,3.97,3.81,7.95,7.63,11.96,11.39.29.27,1.67,1.8,1.88,1.74l16.5-17.78c.54-.36,1.6,1.24,1.93,1.58,1.27,1.33,2.67,2.53,3.97,3.81,4.17,4.1,8.23,8.3,12.45,12.32l.19.05,17.81-17.94c.14-.15.32-.18.49-.07,1.71,1.86,3.49,3.66,5.22,5.49,3.03,3.22,6,6.53,9.04,9.75.58.62,3.35,3.54,3.58,4.07l18.12-18.18c.41-.43.87.09,1.25.41,1.14.96,2.23,2.29,3.33,3.35,3.96,3.81,7.95,7.63,11.97,11.39.28.27,1.66,1.8,1.86,1.74l16.51-17.78c.54-.36,1.6,1.24,1.93,1.58,1.27,1.33,2.67,2.53,3.97,3.81,4.15,4.1,8.22,8.3,12.44,12.32l.19.05,17.82-17.94c.15-.15.32-.18.49-.07,1.7,1.86,3.48,3.66,5.23,5.49,3.02,3.22,5.99,6.53,9.03,9.75.43.46,1.83,1.71,2.62,2.55,4.86-4.82,9.52-9.84,14.31-14.73.4-.41,2.94-3.06,3.15-3.12.14-.03.2,0,.32.05.29.15,1.06,1.09,1.39,1.4,5.02,4.6,9.76,9.54,14.75,14.18.54.51,1.03,1.09,1.6,1.57l18.37-16.25.35.07c2.85,2.55,5.56,5.3,8.33,7.94,2.02,1.91,4.11,3.78,6.13,5.69.72.69,1.47,1.63,2.22,2.23.21.17.62.54.88.47l8.99-8.68c2.25-2.02,4.38-4.17,6.62-6.21l.19-.18c.09-.08.19-.19.31-.32l.12-.13.12-.12.15-.15c.41-.43.88.09,1.25.41,1.14.96,2.23,2.29,3.33,3.35,3.97,3.81,7.96,7.63,11.97,11.4.28.26,1.67,1.79,1.87,1.73l.65-.71,15.85-17.07c.53-.36,1.6,1.24,1.93,1.59,1.27,1.32,2.67,2.53,3.97,3.81,4.16,4.1,8.23,8.29,12.45,12.32l.19.05,17.81-17.93c.15-.15.32-.18.5-.07,1.71,1.86,3.49,3.65,5.22,5.49,3.03,3.22,5.99,6.53,9.04,9.74.42.46,1.82,1.72,2.62,2.56,4.86-4.82,9.54-9.84,14.31-14.73.4-.41,2.94-3.05,3.16-3.11.13-.04.2-.02.31.05.29.15,1.06,1.08,1.39,1.39,5.03,4.6,9.77,9.55,14.75,14.19.54.51,1.03,1.09,1.6,1.57l18.37-16.25.35.07c2.85,2.55,5.55,5.3,8.33,7.93,2.01,1.92,4.11,3.79,6.12,5.69.73.7,1.47,1.63,2.23,2.24.21.17.61.54.87.47l9-8.68c2.32-2.09,4.5-4.31,6.82-6.4.36-.33,1.16-1.37,1.59-1.34.42.05,2,1.78,2.44,2.17,5.01,4.56,10.09,9.09,15.02,13.77.58.54.77.84.81,1.19,4.96-4.9,9.69-10,14.55-14.96.4-.41,2.95-3.05,3.15-3.11.15-.04.21-.02.33.05.28.15,1.05,1.08,1.38,1.39,5.03,4.6,9.77,9.55,14.75,14.19.55.51,1.04,1.09,1.6,1.57l18.37-16.25.35.07c2.85,2.55,5.56,5.3,8.34,7.93,2.02,1.92,4.11,3.79,6.12,5.69.72.7,1.47,1.63,2.23,2.24.21.17.61.54.87.47l8.99-8.68c2.33-2.09,4.51-4.31,6.82-6.4.38-.33,1.16-1.37,1.6-1.34.43.05,2,1.78,2.43,2.17,5.03,4.56,10.1,9.09,15.03,13.77.23.22.4.4.52.56l17.78-16.65c.41-.43.87.09,1.24.41,1.14.96,2.24,2.29,3.34,3.35,3.97,3.81,7.95,7.63,11.96,11.39.29.27,1.67,1.8,1.87,1.74l16.51-17.78c.54-.36,1.6,1.24,1.93,1.58,1.27,1.33,2.67,2.53,3.97,3.81,4.15,4.1,8.22,8.3,12.44,12.32l.19.05,17.81-17.94c.15-.15.33-.18.5-.07,1.71,1.86,3.49,3.66,5.22,5.49,3.03,3.22,6,6.53,9.03,9.75.59.62,3.36,3.54,3.58,4.07l18.12-18.18c.4-.43.87.09,1.25.41,1.13.96,2.23,2.29,3.33,3.35,3.97,3.81,7.95,7.63,11.96,11.39.28.27,1.67,1.8,1.87,1.74l16.51-17.78c.53-.36,1.59,1.24,1.92,1.58,1.27,1.33,2.67,2.53,3.97,3.81,4.16,4.1,8.23,8.3,12.45,12.32l.19.05,17.82-17.94c.14-.15.32-.18.49-.07,1.71,1.86,3.49,3.66,5.22,5.49,3.03,3.22,6,6.53,9.04,9.75.43.46,1.83,1.71,2.62,2.55,4.87-4.82,9.54-9.84,14.32-14.73.39-.41,2.94-3.06,3.15-3.12.14-.03.21,0,.32.05.28.15,1.05,1.09,1.39,1.4,5.03,4.6,9.77,9.54,14.75,14.18.54.51,1.02,1.09,1.6,1.57l18.36-16.25.35.07c2.85,2.55,5.56,5.3,8.33,7.94,2.02,1.91,4.11,3.78,6.13,5.69.72.69,1.47,1.63,2.22,2.23.21.17.61.54.88.47l8.99-8.68c2.32-2.08,4.51-4.3,6.82-6.39.37-.34,1.16-1.38,1.59-1.33.24.02.84.58,1.4,1.14,0,0,0,0,0,0,.43.42.84.85,1.03,1.02.09.08.18.16.27.24.63.66,1.27,1.36,1.9,1.96,3.96,3.81,7.95,7.63,11.97,11.4.24.22,1.3,1.4,1.72,1.67.07.05.12.07.15.06l16.51-17.78c.54-.36,1.6,1.24,1.93,1.59,1.27,1.32,2.67,2.53,3.97,3.81,4.15,4.1,8.22,8.29,12.44,12.32l.19.05,17.82-17.93c.14-.15.32-.18.49-.07,1.7,1.86,3.48,3.65,5.23,5.49,3.02,3.22,5.99,6.53,9.03,9.74.43.46,1.83,1.72,2.62,2.56,4.86-4.82,9.53-9.84,14.32-14.73.39-.41,2.94-3.05,3.15-3.11.14-.04.2-.02.32.05.28.15,1.06,1.08,1.39,1.39,5.02,4.6,9.76,9.55,14.75,14.19.54.51,1.03,1.09,1.6,1.57l18.36-16.25.35.07c2.85,2.55,5.56,5.3,8.33,7.93,2.02,1.92,4.11,3.79,6.13,5.69.72.7,1.47,1.63,2.22,2.24.21.17.62.54.88.47l8.99-8.68c2.32-2.09,4.51-4.31,6.81-6.4.38-.33,1.17-1.37,1.6-1.34.43.05,2,1.78,2.43,2.17,5.03,4.56,10.1,9.09,15.03,13.77.58.54.76.84.81,1.19,4.95-4.9,9.69-10,14.54-14.96.4-.41,2.95-3.05,3.16-3.11.14-.04.21-.02.32.05.28.15,1.05,1.08,1.39,1.39,5.03,4.6,9.76,9.55,14.75,14.19.54.51,1.02,1.09,1.6,1.57l18.36-16.25.35.07c2.85,2.55,5.56,5.3,8.34,7.93,2.02,1.92,4.11,3.79,6.12,5.69.72.7,1.47,1.63,2.22,2.24.21.17.61.54.87.47l9-8.68c2.32-2.09,4.51-4.31,6.82-6.4.36-.33,1.16-1.37,1.59-1.34.44.05,2,1.78,2.44,2.17,5.01,4.56,10.09,9.09,15.02,13.77.24.22.4.4.52.56l17.79-16.65c.4-.43.87.09,1.24.41,1.13.96,2.24,2.29,3.34,3.35,3.96,3.81,7.94,7.63,11.96,11.39.28.27,1.67,1.8,1.87,1.74l16.51-17.78c.54-.36,1.6,1.24,1.92,1.58,1.27,1.33,2.67,2.53,3.97,3.81,4.16,4.1,8.22,8.3,12.45,12.32l.19.05,17.81-17.94c.14-.15.33-.18.49-.07,1.71,1.86,3.49,3.66,5.22,5.49,3.03,3.22,6,6.53,9.04,9.75.59.62,3.35,3.54,3.58,4.07l18.12-18.18c.41-.43.88.09,1.25.41,1.14.96,2.23,2.29,3.33,3.35,3.97,3.81,7.96,7.63,11.97,11.39.28.27,1.66,1.8,1.87,1.74l16.5-17.78c.54-.36,1.6,1.24,1.93,1.58,1.27,1.33,2.67,2.53,3.97,3.81,4.16,4.1,8.23,8.3,12.45,12.32l.19.05,17.82-17.94c.14-.15.31-.18.49-.07,1.7,1.86,3.48,3.66,5.22,5.49,3.03,3.22,5.99,6.53,9.04,9.75.42.46,1.82,1.71,2.62,2.55,4.86-4.82,9.53-9.84,14.31-14.73.4-.41,2.94-3.06,3.16-3.12.13-.03.2,0,.31.05.29.15,1.06,1.09,1.4,1.4,5.02,4.6,9.75,9.54,14.75,14.18.54.51,1.02,1.09,1.59,1.57l18.37-16.25.35.07c2.85,2.55,5.55,5.3,8.33,7.94,2.02,1.91,4.11,3.78,6.12,5.69.73.69,1.47,1.63,2.22,2.23.21.17.62.54.88.47l8.99-8.68c2.26-2.02,4.39-4.17,6.62-6.21l.1-.09s.07-.07.1-.09c.09-.08.19-.19.31-.32l.12-.13.27-.27c.4-.43.87.09,1.25.41,1.13.96,2.23,2.29,3.33,3.35,3.97,3.81,7.95,7.63,11.96,11.4.28.26,1.67,1.79,1.87,1.73l.65-.71,15.86-17.07c.53-.36,1.59,1.24,1.92,1.59,1.27,1.32,2.67,2.53,3.97,3.81,4.16,4.1,8.23,8.29,12.45,12.32l.19.05,17.82-17.93c.14-.15.32-.18.49-.07,1.71,1.86,3.49,3.65,5.22,5.49,3.03,3.22,5.99,6.53,9.04,9.74.43.46,1.83,1.72,2.62,2.56,4.86-4.82,9.54-9.84,14.32-14.73.39-.41,2.94-3.05,3.15-3.11.14-.04.21-.02.32.05.28.15,1.05,1.08,1.39,1.39,5.03,4.6,9.77,9.55,14.75,14.19.54.51,1.02,1.09,1.6,1.57l18.36-16.25.35.07c2.85,2.55,5.56,5.3,8.33,7.93,2.02,1.92,4.11,3.79,6.13,5.69.72.7,1.47,1.63,2.22,2.24.21.17.61.54.88.47l8.99-8.68c2.32-2.09,4.51-4.31,6.82-6.4.37-.33,1.16-1.37,1.59-1.34.43.05,2,1.78,2.44,2.17,1.58,1.43,4.72,4.61,6.31,6.04v18.15Z"/>
</svg>