<?xml version="1.0" encoding="UTF-8"?>
<svg id="Layer_1" data-name="Layer 1" xmlns="http://www.w3.org/2000/svg" viewBox="0 0 1944.94 134.2">
  <defs>
    <style>
      .cls-1 {
        fill: #e08a00;
      }

      .cls-2 {
        fill: #a0421d;
      }

      .cls-3 {
        fill: none;
        stroke: #e08a00;
        stroke-miterlimit: 10;
      }
    </style>
  </defs>
  <g>
    <path class="cls-3" d="M29.58,97.35c-.2,1.88-.06,3.78-.1,5.68-.07,3.67-.03,7.71-.32,11.34-.03.41.2,1.51-.52,1.15-1.07-.91-2-1.95-3.01-2.92-4.23-4.02-8.48-8.04-12.7-12.06-1.06-1.02-2.06-2.1-3.17-3.07l-17.89,18.11c-.12,0-.21-.06-.25-.18s-.11-.74-.12-.92c-.1-1.45-.04-3.02-.1-4.48-.15-3.66-.38-7.36-.53-11.02-.03-.64.03-1.29,0-1.93l-18.21-1.11-.08-.28,17.25-17.19-17.15-19.22c.1-.28.16-.36.45-.39,2.49-.22,5.29.18,7.81,0,.25,0,.47.11.72.11,2.75.02,5.51-.02,8.26-.02.19-.38.08-.79.12-1.18.53-6.17,1.15-12.35,1.56-18.52.02-.36-.15-1.52.27-1.61l18.31,20.49,19.74-19.23c.2.07.34.13.38.35.07.39.02,1.33,0,1.77-.14,4.33-.38,8.67-.53,13-.05,1.48-.02,2.95-.1,4.42l18.89.93c.08.17.08.36,0,.53-.19.37-1.26,1.18-1.61,1.51-5.28,5.22-10.72,10.28-16.02,15.5l16.85,19.45c-.11.48-2.49.12-2.96.37-5.08.12-10.15.51-15.24.62ZM21.67,77.55l-10.76-11.83L-1,78.98l12.21,10.57,10.42-11.75c.06-.07.06-.15.04-.24Z"/>
    <path class="cls-1" d="M137.81,97.35c-.2,1.88-.06,3.78-.1,5.68-.07,3.67-.03,7.71-.32,11.34-.03.41.2,1.51-.52,1.15-1.07-.91-2-1.95-3.01-2.92-4.23-4.02-8.48-8.04-12.7-12.06-1.06-1.02-2.06-2.1-3.17-3.07l-17.89,18.11c-.12,0-.21-.06-.25-.18s-.11-.74-.12-.92c-.1-1.45-.04-3.02-.1-4.48-.15-3.66-.38-7.36-.53-11.02-.03-.64.03-1.29,0-1.93l-18.21-1.11-.08-.28,17.25-17.19-17.15-19.22c.1-.28.16-.36.45-.39,2.49-.22,5.29.18,7.81,0,.25,0,.47.11.72.11,2.75.02,5.51-.02,8.26-.02.19-.38.08-.79.12-1.18.53-6.17,1.15-12.35,1.56-18.52.02-.36-.15-1.52.27-1.61l18.31,20.49,19.74-19.23c.2.07.34.13.38.35.07.39.02,1.33,0,1.77-.14,4.33-.38,8.67-.53,13-.05,1.48-.02,2.95-.1,4.42l18.89.93c.08.17.08.36,0,.53-.19.37-1.26,1.18-1.61,1.51-5.28,5.22-10.72,10.28-16.02,15.5l16.85,19.45c-.11.48-2.49.12-2.96.37-5.08.12-10.15.51-15.24.62ZM129.9,77.55l-10.76-11.83-11.91,13.25,12.21,10.57,10.42-11.75c.06-.07.06-.15.04-.24Z"/>
  </g>
  <g>
    <path class="cls-3" d="M241.67,97.35c-.2,1.88-.06,3.78-.1,5.68-.07,3.67-.03,7.71-.32,11.34-.03.41.2,1.51-.52,1.15-1.07-.91-2-1.95-3.01-2.92-4.23-4.02-8.48-8.04-12.7-12.06-1.06-1.02-2.06-2.1-3.17-3.07l-17.89,18.11c-.12,0-.21-.06-.25-.18s-.11-.74-.12-.92c-.1-1.45-.04-3.02-.1-4.48-.15-3.66-.38-7.36-.53-11.02-.03-.64.03-1.29,0-1.93l-18.21-1.11-.08-.28,17.25-17.19-17.15-19.22c.1-.28.16-.36.45-.39,2.49-.22,5.29.18,7.81,0,.25,0,.47.11.72.11,2.75.02,5.51-.02,8.26-.02.19-.38.08-.79.12-1.18.53-6.17,1.15-12.35,1.56-18.52.02-.36-.15-1.52.27-1.61l18.31,20.49,19.74-19.23c.2.07.34.13.38.35.07.39.02,1.33,0,1.77-.14,4.33-.38,8.67-.53,13-.05,1.48-.02,2.95-.1,4.42l18.89.93c.08.17.08.36,0,.53-.19.37-1.26,1.18-1.61,1.51-5.28,5.22-10.72,10.28-16.02,15.5l16.85,19.45c-.11.48-2.49.12-2.96.37-5.08.12-10.15.51-15.24.62ZM233.75,77.55l-10.76-11.83-11.91,13.25,12.21,10.57,10.42-11.75c.06-.07.06-.15.04-.24Z"/>
    <path class="cls-1" d="M349.9,97.35c-.2,1.88-.06,3.78-.1,5.68-.07,3.67-.03,7.71-.32,11.34-.03.41.2,1.51-.52,1.15-1.07-.91-2-1.95-3.01-2.92-4.23-4.02-8.48-8.04-12.7-12.06-1.06-1.02-2.06-2.1-3.17-3.07l-17.89,18.11c-.12,0-.21-.06-.25-.18s-.11-.74-.12-.92c-.1-1.45-.04-3.02-.1-4.48-.15-3.66-.38-7.36-.53-11.02-.03-.64.03-1.29,0-1.93l-18.21-1.11-.08-.28,17.25-17.19-17.15-19.22c.1-.28.16-.36.45-.39,2.49-.22,5.29.18,7.81,0,.25,0,.47.11.72.11,2.75.02,5.51-.02,8.26-.02.19-.38.08-.79.12-1.18.53-6.17,1.15-12.35,1.56-18.52.02-.36-.15-1.52.27-1.61l18.31,20.49,19.74-19.23c.2.07.34.13.38.35.07.39.02,1.33,0,1.77-.14,4.33-.38,8.67-.53,13-.05,1.48-.02,2.95-.1,4.42l18.89.93c.08.17.08.36,0,.53-.19.37-1.26,1.18-1.61,1.51-5.28,5.22-10.72,10.28-16.02,15.5l16.85,19.45c-.11.48-2.49.12-2.96.37-5.08.12-10.15.51-15.24.62ZM341.98,77.55l-10.76-11.83-11.91,13.25,12.21,10.57,10.42-11.75c.06-.07.06-.15.04-.24Z"/>
  </g>
  <g>
    <path class="cls-3" d="M453.75,97.35c-.2,1.88-.06,3.78-.1,5.68-.07,3.67-.03,7.71-.32,11.34-.03.41.2,1.51-.52,1.15-1.07-.91-2-1.95-3.01-2.92-4.23-4.02-8.48-8.04-12.7-12.06-1.06-1.02-2.06-2.1-3.17-3.07l-17.89,18.11c-.12,0-.21-.06-.25-.18s-.11-.74-.12-.92c-.1-1.45-.04-3.02-.1-4.48-.15-3.66-.38-7.36-.53-11.02-.03-.64.03-1.29,0-1.93l-18.21-1.11-.08-.28,17.25-17.19-17.15-19.22c.1-.28.16-.36.45-.39,2.49-.22,5.29.18,7.81,0,.25,0,.47.11.72.11,2.75.02,5.51-.02,8.26-.02.19-.38.08-.79.12-1.18.53-6.17,1.15-12.35,1.56-18.52.02-.36-.15-1.52.27-1.61l18.31,20.49,19.74-19.23c.2.07.34.13.38.35.07.39.02,1.33,0,1.77-.14,4.33-.38,8.67-.53,13-.05,1.48-.02,2.95-.1,4.42l18.89.93c.08.17.08.36,0,.53-.19.37-1.26,1.18-1.61,1.51-5.28,5.22-10.72,10.28-16.02,15.5l16.85,19.45c-.11.48-2.49.12-2.96.37-5.08.12-10.15.51-15.24.62ZM445.84,77.55l-10.76-11.83-11.91,13.25,12.21,10.57,10.42-11.75c.06-.07.06-.15.04-.24Z"/>
    <path class="cls-1" d="M561.98,97.35c-.2,1.88-.06,3.78-.1,5.68-.07,3.67-.03,7.71-.32,11.34-.03.41.2,1.51-.52,1.15-1.07-.91-2-1.95-3.01-2.92-4.23-4.02-8.48-8.04-12.7-12.06-1.06-1.02-2.06-2.1-3.17-3.07l-17.89,18.11c-.12,0-.21-.06-.25-.18s-.11-.74-.12-.92c-.1-1.45-.04-3.02-.1-4.48-.15-3.66-.38-7.36-.53-11.02-.03-.64.03-1.29,0-1.93l-18.21-1.11-.08-.28,17.25-17.19-17.15-19.22c.1-.28.16-.36.45-.39,2.49-.22,5.29.18,7.81,0,.25,0,.47.11.72.11,2.75.02,5.51-.02,8.26-.02.19-.38.08-.79.12-1.18.53-6.17,1.15-12.35,1.56-18.52.02-.36-.15-1.52.27-1.61l18.31,20.49,19.74-19.23c.2.07.34.13.38.35.07.39.02,1.33,0,1.77-.14,4.33-.38,8.67-.53,13-.05,1.48-.02,2.95-.1,4.42l18.89.93c.08.17.08.36,0,.53-.19.37-1.26,1.18-1.61,1.51-5.28,5.22-10.72,10.28-16.02,15.5l16.85,19.45c-.11.48-2.49.12-2.96.37-5.08.12-10.15.51-15.24.62ZM554.07,77.55l-10.76-11.83-11.91,13.25,12.21,10.57,10.42-11.75c.06-.07.06-.15.04-.24Z"/>
  </g>
  <g>
    <path class="cls-3" d="M665.84,97.35c-.2,1.88-.06,3.78-.1,5.68-.07,3.67-.03,7.71-.32,11.34-.03.41.2,1.51-.52,1.15-1.07-.91-2-1.95-3.01-2.92-4.23-4.02-8.48-8.04-12.7-12.06-1.06-1.02-2.06-2.1-3.17-3.07l-17.89,18.11c-.12,0-.21-.06-.25-.18s-.11-.74-.12-.92c-.1-1.45-.04-3.02-.1-4.48-.15-3.66-.38-7.36-.53-11.02-.03-.64.03-1.29,0-1.93l-18.21-1.11-.08-.28,17.25-17.19-17.15-19.22c.1-.28.16-.36.45-.39,2.49-.22,5.29.18,7.81,0,.25,0,.47.11.72.11,2.75.02,5.51-.02,8.26-.02.19-.38.08-.79.12-1.18.53-6.17,1.15-12.35,1.56-18.52.02-.36-.15-1.52.27-1.61l18.31,20.49,19.74-19.23c.2.07.34.13.38.35.07.39.02,1.33,0,1.77-.14,4.33-.38,8.67-.53,13-.05,1.48-.02,2.95-.1,4.42l18.89.93c.08.17.08.36,0,.53-.19.37-1.26,1.18-1.61,1.51-5.28,5.22-10.72,10.28-16.02,15.5l16.85,19.45c-.11.48-2.49.12-2.96.37-5.08.12-10.15.51-15.24.62ZM657.92,77.55l-10.76-11.83-11.91,13.25,12.21,10.57,10.42-11.75c.06-.07.06-.15.04-.24Z"/>
    <path class="cls-1" d="M774.07,97.35c-.2,1.88-.06,3.78-.1,5.68-.07,3.67-.03,7.71-.32,11.34-.03.41.2,1.51-.52,1.15-1.07-.91-2-1.95-3.01-2.92-4.23-4.02-8.48-8.04-12.7-12.06-1.06-1.02-2.06-2.1-3.17-3.07l-17.89,18.11c-.12,0-.21-.06-.25-.18s-.11-.74-.12-.92c-.1-1.45-.04-3.02-.1-4.48-.15-3.66-.38-7.36-.53-11.02-.03-.64.03-1.29,0-1.93l-18.21-1.11-.08-.28,17.25-17.19-17.15-19.22c.1-.28.16-.36.45-.39,2.49-.22,5.29.18,7.81,0,.25,0,.47.11.72.11,2.75.02,5.51-.02,8.26-.02.19-.38.08-.79.12-1.18.53-6.17,1.15-12.35,1.56-18.52.02-.36-.15-1.52.27-1.61l18.31,20.49,19.74-19.23c.2.07.34.13.38.35.07.39.02,1.33,0,1.77-.14,4.33-.38,8.67-.53,13-.05,1.48-.02,2.95-.1,4.42l18.89.93c.08.17.08.36,0,.53-.19.37-1.26,1.18-1.61,1.51-5.28,5.22-10.72,10.28-16.02,15.5l16.85,19.45c-.11.48-2.49.12-2.96.37-5.08.12-10.15.51-15.24.62ZM766.15,77.55l-10.76-11.83-11.91,13.25,12.21,10.57,10.42-11.75c.06-.07.06-.15.04-.24Z"/>
  </g>
  <g>
    <path class="cls-3" d="M877.92,97.35c-.2,1.88-.06,3.78-.1,5.68-.07,3.67-.03,7.71-.32,11.34-.03.41.2,1.51-.52,1.15-1.07-.91-2-1.95-3.01-2.92-4.23-4.02-8.48-8.04-12.7-12.06-1.06-1.02-2.06-2.1-3.17-3.07l-17.89,18.11c-.12,0-.21-.06-.25-.18s-.11-.74-.12-.92c-.1-1.45-.04-3.02-.1-4.48-.15-3.66-.38-7.36-.53-11.02-.03-.64.03-1.29,0-1.93l-18.21-1.11-.08-.28,17.25-17.19-17.15-19.22c.1-.28.16-.36.45-.39,2.49-.22,5.29.18,7.81,0,.25,0,.47.11.72.11,2.75.02,5.51-.02,8.26-.02.19-.38.08-.79.12-1.18.53-6.17,1.15-12.35,1.56-18.52.02-.36-.15-1.52.27-1.61l18.31,20.49,19.74-19.23c.2.07.34.13.38.35.07.39.02,1.33,0,1.77-.14,4.33-.38,8.67-.53,13-.05,1.48-.02,2.95-.1,4.42l18.89.93c.08.17.08.36,0,.53-.19.37-1.26,1.18-1.61,1.51-5.28,5.22-10.72,10.28-16.02,15.5l16.85,19.45c-.11.48-2.49.12-2.96.37-5.08.12-10.15.51-15.24.62ZM870,77.55l-10.76-11.83-11.91,13.25,12.21,10.57,10.42-11.75c.06-.07.06-.15.04-.24Z"/>
    <path class="cls-1" d="M986.15,97.35c-.2,1.88-.06,3.78-.1,5.68-.07,3.67-.03,7.71-.32,11.34-.03.41.2,1.51-.52,1.15-1.07-.91-2-1.95-3.01-2.92-4.23-4.02-8.48-8.04-12.7-12.06-1.06-1.02-2.06-2.1-3.17-3.07l-17.89,18.11c-.12,0-.21-.06-.25-.18s-.11-.74-.12-.92c-.1-1.45-.04-3.02-.1-4.48-.15-3.66-.38-7.36-.53-11.02-.03-.64.03-1.29,0-1.93l-18.21-1.11-.08-.28,17.25-17.19-17.15-19.22c.1-.28.16-.36.45-.39,2.49-.22,5.29.18,7.81,0,.25,0,.47.11.72.11,2.75.02,5.51-.02,8.26-.02.19-.38.08-.79.12-1.18.53-6.17,1.15-12.35,1.56-18.52.02-.36-.15-1.52.27-1.61l18.31,20.49,19.74-19.23c.2.07.34.13.38.35.07.39.02,1.33,0,1.77-.14,4.33-.38,8.67-.53,13-.05,1.48-.02,2.95-.1,4.42l18.89.93c.08.17.08.36,0,.53-.19.37-1.26,1.18-1.61,1.51-5.28,5.22-10.72,10.28-16.02,15.5l16.85,19.45c-.11.48-2.49.12-2.96.37-5.08.12-10.15.51-15.24.62ZM978.24,77.55l-10.76-11.83-11.91,13.25,12.21,10.57,10.42-11.75c.06-.07.06-.15.04-.24Z"/>
  </g>
  <g>
    <path class="cls-3" d="M1090.01,97.35c-.2,1.88-.06,3.78-.1,5.68-.07,3.67-.03,7.71-.32,11.34-.03.41.2,1.51-.52,1.15-1.07-.91-2-1.95-3.01-2.92-4.23-4.02-8.48-8.04-12.7-12.06-1.06-1.02-2.06-2.1-3.17-3.07l-17.89,18.11c-.12,0-.21-.06-.25-.18s-.11-.74-.12-.92c-.1-1.45-.04-3.02-.1-4.48-.15-3.66-.38-7.36-.53-11.02-.03-.64.03-1.29,0-1.93l-18.21-1.11-.08-.28,17.25-17.19-17.15-19.22c.1-.28.16-.36.45-.39,2.49-.22,5.29.18,7.81,0,.25,0,.47.11.72.11,2.75.02,5.51-.02,8.26-.02.19-.38.08-.79.12-1.18.53-6.17,1.15-12.35,1.56-18.52.02-.36-.15-1.52.27-1.61l18.31,20.49,19.74-19.23c.2.07.34.13.38.35.07.39.02,1.33,0,1.77-.14,4.33-.38,8.67-.53,13-.05,1.48-.02,2.95-.1,4.42l18.89.93c.08.17.08.36,0,.53-.19.37-1.26,1.18-1.61,1.51-5.28,5.22-10.72,10.28-16.02,15.5l16.85,19.45c-.11.48-2.49.12-2.96.37-5.08.12-10.15.51-15.24.62ZM1082.09,77.55l-10.76-11.83-11.91,13.25,12.21,10.57,10.42-11.75c.06-.07.06-.15.04-.24Z"/>
    <path class="cls-1" d="M1198.24,97.35c-.2,1.88-.06,3.78-.1,5.68-.07,3.67-.03,7.71-.32,11.34-.03.41.2,1.51-.52,1.15-1.07-.91-2-1.95-3.01-2.92-4.23-4.02-8.48-8.04-12.7-12.06-1.06-1.02-2.06-2.1-3.17-3.07l-17.89,18.11c-.12,0-.21-.06-.25-.18s-.11-.74-.12-.92c-.1-1.45-.04-3.02-.1-4.48-.15-3.66-.38-7.36-.53-11.02-.03-.64.03-1.29,0-1.93l-18.21-1.11-.08-.28,17.25-17.19-17.15-19.22c.1-.28.16-.36.45-.39,2.49-.22,5.29.18,7.81,0,.25,0,.47.11.72.11,2.75.02,5.51-.02,8.26-.02.19-.38.08-.79.12-1.18.53-6.17,1.15-12.35,1.56-18.52.02-.36-.15-1.52.27-1.61l18.31,20.49,19.74-19.23c.2.07.34.13.38.35.07.39.02,1.33,0,1.77-.14,4.33-.38,8.67-.53,13-.05,1.48-.02,2.95-.1,4.42l18.89.93c.08.17.08.36,0,.53-.19.37-1.26,1.18-1.61,1.51-5.28,5.22-10.72,10.28-16.02,15.5l16.85,19.45c-.11.48-2.49.12-2.96.37-5.08.12-10.15.51-15.24.62ZM1190.32,77.55l-10.76-11.83-11.91,13.25,12.21,10.57,10.42-11.75c.06-.07.06-.15.04-.24Z"/>
  </g>
  <g>
    <path class="cls-3" d="M1302.09,97.35c-.2,1.88-.06,3.78-.1,5.68-.07,3.67-.03,7.71-.32,11.34-.03.41.2,1.51-.52,1.15-1.07-.91-2-1.95-3.01-2.92-4.23-4.02-8.48-8.04-12.7-12.06-1.06-1.02-2.06-2.1-3.17-3.07l-17.89,18.11c-.12,0-.21-.06-.25-.18s-.11-.74-.12-.92c-.1-1.45-.04-3.02-.1-4.48-.15-3.66-.38-7.36-.53-11.02-.03-.64.03-1.29,0-1.93l-18.21-1.11-.08-.28,17.25-17.19-17.15-19.22c.1-.28.16-.36.45-.39,2.49-.22,5.29.18,7.81,0,.25,0,.47.11.72.11,2.75.02,5.51-.02,8.26-.02.19-.38.08-.79.12-1.18.53-6.17,1.15-12.35,1.56-18.52.02-.36-.15-1.52.27-1.61l18.31,20.49,19.74-19.23c.2.07.34.13.38.35.07.39.02,1.33,0,1.77-.14,4.33-.38,8.67-.53,13-.05,1.48-.02,2.95-.1,4.42l18.89.93c.08.17.08.36,0,.53-.19.37-1.26,1.18-1.61,1.51-5.28,5.22-10.72,10.28-16.02,15.5l16.85,19.45c-.11.48-2.49.12-2.96.37-5.08.12-10.15.51-15.24.62ZM1294.17,77.55l-10.76-11.83-11.91,13.25,12.21,10.57,10.42-11.75c.06-.07.06-.15.04-.24Z"/>
    <path class="cls-1" d="M1410.32,97.35c-.2,1.88-.06,3.78-.1,5.68-.07,3.67-.03,7.71-.32,11.34-.03.41.2,1.51-.52,1.15-1.07-.91-2-1.95-3.01-2.92-4.23-4.02-8.48-8.04-12.7-12.06-1.06-1.02-2.06-2.1-3.17-3.07l-17.89,18.11c-.12,0-.21-.06-.25-.18s-.11-.74-.12-.92c-.1-1.45-.04-3.02-.1-4.48-.15-3.66-.38-7.36-.53-11.02-.03-.64.03-1.29,0-1.93l-18.21-1.11-.08-.28,17.25-17.19-17.15-19.22c.1-.28.16-.36.45-.39,2.49-.22,5.29.18,7.81,0,.25,0,.47.11.72.11,2.75.02,5.51-.02,8.26-.02.19-.38.08-.79.12-1.18.53-6.17,1.15-12.35,1.56-18.52.02-.36-.15-1.52.27-1.61l18.31,20.49,19.74-19.23c.2.07.34.13.38.35.07.39.02,1.33,0,1.77-.14,4.33-.38,8.67-.53,13-.05,1.48-.02,2.95-.1,4.42l18.89.93c.08.17.08.36,0,.53-.19.37-1.26,1.18-1.61,1.51-5.28,5.22-10.72,10.28-16.02,15.5l16.85,19.45c-.11.48-2.49.12-2.96.37-5.08.12-10.15.51-15.24.62ZM1402.4,77.55l-10.76-11.83-11.91,13.25,12.21,10.57,10.42-11.75c.06-.07.06-.15.04-.24Z"/>
  </g>
  <g>
    <path class="cls-3" d="M1514.17,97.35c-.2,1.88-.06,3.78-.1,5.68-.07,3.67-.03,7.71-.32,11.34-.03.41.2,1.51-.52,1.15-1.07-.91-2-1.95-3.01-2.92-4.23-4.02-8.48-8.04-12.7-12.06-1.06-1.02-2.06-2.1-3.17-3.07l-17.89,18.11c-.12,0-.21-.06-.25-.18s-.11-.74-.12-.92c-.1-1.45-.04-3.02-.1-4.48-.15-3.66-.38-7.36-.53-11.02-.03-.64.03-1.29,0-1.93l-18.21-1.11-.08-.28,17.25-17.19-17.15-19.22c.1-.28.16-.36.45-.39,2.49-.22,5.29.18,7.81,0,.25,0,.47.11.72.11,2.75.02,5.51-.02,8.26-.02.19-.38.08-.79.12-1.18.53-6.17,1.15-12.35,1.56-18.52.02-.36-.15-1.52.27-1.61l18.31,20.49,19.74-19.23c.2.07.34.13.38.35.07.39.02,1.33,0,1.77-.14,4.33-.38,8.67-.53,13-.05,1.48-.02,2.95-.1,4.42l18.89.93c.08.17.08.36,0,.53-.19.37-1.26,1.18-1.61,1.51-5.28,5.22-10.72,10.28-16.02,15.5l16.85,19.45c-.11.48-2.49.12-2.96.37-5.08.12-10.15.51-15.24.62ZM1506.26,77.55l-10.76-11.83-11.91,13.25,12.21,10.57,10.42-11.75c.06-.07.06-.15.04-.24Z"/>
    <path class="cls-1" d="M1622.4,97.35c-.2,1.88-.06,3.78-.1,5.68-.07,3.67-.03,7.71-.32,11.34-.03.41.2,1.51-.52,1.15-1.07-.91-2-1.95-3.01-2.92-4.23-4.02-8.48-8.04-12.7-12.06-1.06-1.02-2.06-2.1-3.17-3.07l-17.89,18.11c-.12,0-.21-.06-.25-.18s-.11-.74-.12-.92c-.1-1.45-.04-3.02-.1-4.48-.15-3.66-.38-7.36-.53-11.02-.03-.64.03-1.29,0-1.93l-18.21-1.11-.08-.28,17.25-17.19-17.15-19.22c.1-.28.16-.36.45-.39,2.49-.22,5.29.18,7.81,0,.25,0,.47.11.72.11,2.75.02,5.51-.02,8.26-.02.19-.38.08-.79.12-1.18.53-6.17,1.15-12.35,1.56-18.52.02-.36-.15-1.52.27-1.61l18.31,20.49,19.74-19.23c.2.07.34.13.38.35.07.39.02,1.33,0,1.77-.14,4.33-.38,8.67-.53,13-.05,1.48-.02,2.95-.1,4.42l18.89.93c.08.17.08.36,0,.53-.19.37-1.26,1.18-1.61,1.51-5.28,5.22-10.72,10.28-16.02,15.5l16.85,19.45c-.11.48-2.49.12-2.96.37-5.08.12-10.15.51-15.24.62ZM1614.49,77.55l-10.76-11.83-11.91,13.25,12.21,10.57,10.42-11.75c.06-.07.06-.15.04-.24Z"/>
  </g>
  <g>
    <path class="cls-3" d="M1726.26,97.35c-.2,1.88-.06,3.78-.1,5.68-.07,3.67-.03,7.71-.32,11.34-.03.41.2,1.51-.52,1.15-1.07-.91-2-1.95-3.01-2.92-4.23-4.02-8.48-8.04-12.7-12.06-1.06-1.02-2.06-2.1-3.17-3.07l-17.89,18.11c-.12,0-.21-.06-.25-.18s-.11-.74-.12-.92c-.1-1.45-.04-3.02-.1-4.48-.15-3.66-.38-7.36-.53-11.02-.03-.64.03-1.29,0-1.93l-18.21-1.11-.08-.28,17.25-17.19-17.15-19.22c.1-.28.16-.36.45-.39,2.49-.22,5.29.18,7.81,0,.25,0,.47.11.72.11,2.75.02,5.51-.02,8.26-.02.19-.38.08-.79.12-1.18.53-6.17,1.15-12.35,1.56-18.52.02-.36-.15-1.52.27-1.61l18.31,20.49,19.74-19.23c.2.07.34.13.38.35.07.39.02,1.33,0,1.77-.14,4.33-.38,8.67-.53,13-.05,1.48-.02,2.95-.1,4.42l18.89.93c.08.17.08.36,0,.53-.19.37-1.26,1.18-1.61,1.51-5.28,5.22-10.72,10.28-16.02,15.5l16.85,19.45c-.11.48-2.49.12-2.96.37-5.08.12-10.15.51-15.24.62ZM1718.34,77.55l-10.76-11.83-11.91,13.25,12.21,10.57,10.42-11.75c.06-.07.06-.15.04-.24Z"/>
    <path class="cls-1" d="M1834.49,97.35c-.2,1.88-.06,3.78-.1,5.68-.07,3.67-.03,7.71-.32,11.34-.03.41.2,1.51-.52,1.15-1.07-.91-2-1.95-3.01-2.92-4.23-4.02-8.48-8.04-12.7-12.06-1.06-1.02-2.06-2.1-3.17-3.07l-17.89,18.11c-.12,0-.21-.06-.25-.18s-.11-.74-.12-.92c-.1-1.45-.04-3.02-.1-4.48-.15-3.66-.38-7.36-.53-11.02-.03-.64.03-1.29,0-1.93l-18.21-1.11-.08-.28,17.25-17.19-17.15-19.22c.1-.28.16-.36.45-.39,2.49-.22,5.29.18,7.81,0,.25,0,.47.11.72.11,2.75.02,5.51-.02,8.26-.02.19-.38.08-.79.12-1.18.53-6.17,1.15-12.35,1.56-18.52.02-.36-.15-1.52.27-1.61l18.31,20.49,19.74-19.23c.2.07.34.13.38.35.07.39.02,1.33,0,1.77-.14,4.33-.38,8.67-.53,13-.05,1.48-.02,2.95-.1,4.42l18.89.93c.08.17.08.36,0,.53-.19.37-1.26,1.18-1.61,1.51-5.28,5.22-10.72,10.28-16.02,15.5l16.85,19.45c-.11.48-2.49.12-2.96.37-5.08.12-10.15.51-15.24.62ZM1826.57,77.55l-10.76-11.83-11.91,13.25,12.21,10.57,10.42-11.75c.06-.07.06-.15.04-.24Z"/>
  </g>
  <path class="cls-3" d="M1938.34,97.35c-.2,1.88-.06,3.78-.1,5.68-.07,3.67-.03,7.71-.32,11.34-.03.41.2,1.51-.52,1.15-1.07-.91-2-1.95-3.01-2.92-4.23-4.02-8.48-8.04-12.7-12.06-1.06-1.02-2.06-2.1-3.17-3.07l-17.89,18.11c-.12,0-.21-.06-.25-.18s-.11-.74-.12-.92c-.1-1.45-.04-3.02-.1-4.48-.15-3.66-.38-7.36-.53-11.02-.03-.64.03-1.29,0-1.93l-18.21-1.11-.08-.28,17.25-17.19-17.15-19.22c.1-.28.16-.36.45-.39,2.49-.22,5.29.18,7.81,0,.25,0,.47.11.72.11,2.75.02,5.51-.02,8.26-.02.19-.38.08-.79.12-1.18.53-6.17,1.15-12.35,1.56-18.52.02-.36-.15-1.52.27-1.61l18.31,20.49,19.74-19.23c.2.07.34.13.38.35.07.39.02,1.33,0,1.77-.14,4.33-.38,8.67-.53,13-.05,1.48-.02,2.95-.1,4.42l18.89.93c.08.17.08.36,0,.53-.19.37-1.26,1.18-1.61,1.51-5.28,5.22-10.72,10.28-16.02,15.5l16.85,19.45c-.11.48-2.49.12-2.96.37-5.08.12-10.15.51-15.24.62ZM1930.43,77.55l-10.76-11.83-11.91,13.25,12.21,10.57,10.42-11.75c.06-.07.06-.15.04-.24Z"/>
  <rect class="cls-2" x="-2.67" y="4.97" width="1949.09" height="2.65"/>
</svg>