<?xml version="1.0" encoding="UTF-8"?>
<svg id="Layer_1" data-name="Layer 1" xmlns="http://www.w3.org/2000/svg" viewBox="0 0 1920.21 171.97">
  <defs>
    <style>
      .cls-1 {
        fill: none;
        stroke: #e08a00;
        stroke-miterlimit: 10;
      }

      .cls-2 {
        fill: #a0421d;
      }

      .cls-3 {
        fill: #e08a00;
      }
    </style>
  </defs>
  <g>
    <path class="cls-3" d="M1118.49,135.99c-.23,2.18-.07,4.39-.11,6.58-.08,4.26-.04,8.94-.37,13.15-.04.47.23,1.75-.6,1.33-1.24-1.05-2.32-2.26-3.5-3.38-4.91-4.66-9.83-9.32-14.73-14-1.24-1.18-2.39-2.44-3.68-3.56l-20.76,21.01c-.14,0-.24-.07-.29-.21s-.12-.86-.14-1.07c-.12-1.68-.04-3.5-.11-5.2-.18-4.25-.44-8.53-.61-12.78-.03-.74.03-1.5,0-2.24l-21.13-1.29-.09-.32,20.01-19.95-19.89-22.29c.11-.32.18-.42.52-.45,2.89-.25,6.14.21,9.06,0,.29,0,.55.13.83.13,3.19.03,6.39-.02,9.59-.02.23-.44.09-.91.13-1.37.62-7.16,1.34-14.33,1.81-21.48.03-.42-.18-1.76.31-1.87l21.25,23.77,22.9-22.31c.23.09.4.15.45.4.08.45.02,1.54,0,2.06-.17,5.02-.44,10.06-.61,15.08-.06,1.71-.02,3.42-.12,5.13l21.92,1.08c.09.2.09.42,0,.61-.22.43-1.46,1.37-1.87,1.75-6.13,6.06-12.44,11.93-18.58,17.99l19.55,22.56c-.13.56-2.89.14-3.44.43-5.9.14-11.78.59-17.68.72ZM1109.3,113.02l-12.48-13.72-13.81,15.37,14.16,12.26,12.09-13.63c.07-.09.07-.17.05-.28Z"/>
    <path class="cls-1" d="M981.3,135.99c-.23,2.18-.07,4.39-.11,6.58-.08,4.26-.04,8.94-.37,13.15-.04.47.23,1.75-.6,1.33-1.24-1.05-2.32-2.26-3.5-3.38-4.91-4.66-9.83-9.32-14.73-14-1.24-1.18-2.39-2.44-3.68-3.56l-20.76,21.01c-.14,0-.24-.07-.29-.21s-.12-.86-.14-1.07c-.12-1.68-.04-3.5-.11-5.2-.18-4.25-.44-8.53-.61-12.78-.03-.74.03-1.5,0-2.24l-21.13-1.29-.09-.32,20.01-19.95-19.89-22.29c.11-.32.18-.42.52-.45,2.89-.25,6.14.21,9.06,0,.29,0,.55.13.83.13,3.19.03,6.39-.02,9.59-.02.23-.44.09-.91.13-1.37.62-7.16,1.34-14.33,1.81-21.48.03-.42-.18-1.76.31-1.87l21.25,23.77,22.9-22.31c.23.09.4.15.45.4.08.45.02,1.54,0,2.06-.17,5.02-.44,10.06-.61,15.08-.06,1.71-.02,3.42-.12,5.13l21.92,1.08c.09.2.09.42,0,.61-.22.43-1.46,1.37-1.87,1.75-6.13,6.06-12.44,11.93-18.58,17.99l19.55,22.56c-.13.56-2.89.14-3.44.43-5.9.14-11.78.59-17.68.72ZM972.11,113.02l-12.48-13.72-13.81,15.37,14.16,12.26,12.09-13.63c.07-.09.07-.17.05-.28Z"/>
    <path class="cls-3" d="M1396.02,135.99c-.23,2.18-.07,4.39-.11,6.58-.08,4.26-.04,8.94-.37,13.15-.04.47.23,1.75-.6,1.33-1.24-1.05-2.32-2.26-3.5-3.38-4.91-4.66-9.83-9.32-14.73-14-1.24-1.18-2.39-2.44-3.68-3.56l-20.76,21.01c-.14,0-.24-.07-.29-.21s-.12-.86-.14-1.07c-.12-1.68-.04-3.5-.11-5.2-.18-4.25-.44-8.53-.61-12.78-.03-.74.03-1.5,0-2.24l-21.13-1.29-.09-.32,20.01-19.95-19.89-22.29c.11-.32.18-.42.52-.45,2.89-.25,6.14.21,9.06,0,.29,0,.55.13.83.13,3.19.03,6.39-.02,9.59-.02.23-.44.09-.91.13-1.37.62-7.16,1.34-14.33,1.81-21.48.03-.42-.18-1.76.31-1.87l21.25,23.77,22.9-22.31c.23.09.4.15.45.4.08.45.02,1.54,0,2.06-.17,5.02-.44,10.06-.61,15.08-.06,1.71-.02,3.42-.12,5.13l21.92,1.08c.09.2.09.42,0,.61-.22.43-1.46,1.37-1.87,1.75-6.13,6.06-12.44,11.93-18.58,17.99l19.55,22.56c-.13.56-2.89.14-3.44.43-5.9.14-11.78.59-17.68.72ZM1386.83,113.02l-12.48-13.72-13.81,15.37,14.16,12.26,12.09-13.63c.07-.09.07-.17.05-.28Z"/>
    <path class="cls-1" d="M1258.83,135.99c-.23,2.18-.07,4.39-.11,6.58-.08,4.26-.04,8.94-.37,13.15-.04.47.23,1.75-.6,1.33-1.24-1.05-2.32-2.26-3.5-3.38-4.91-4.66-9.83-9.32-14.73-14-1.24-1.18-2.39-2.44-3.68-3.56l-20.76,21.01c-.14,0-.24-.07-.29-.21s-.12-.86-.14-1.07c-.12-1.68-.04-3.5-.11-5.2-.18-4.25-.44-8.53-.61-12.78-.03-.74.03-1.5,0-2.24l-21.13-1.29-.09-.32,20.01-19.95-19.89-22.29c.11-.32.18-.42.52-.45,2.89-.25,6.14.21,9.06,0,.29,0,.55.13.83.13,3.19.03,6.39-.02,9.59-.02.23-.44.09-.91.13-1.37.62-7.16,1.34-14.33,1.81-21.48.03-.42-.18-1.76.31-1.87l21.25,23.77,22.9-22.31c.23.09.4.15.45.4.08.45.02,1.54,0,2.06-.17,5.02-.44,10.06-.61,15.08-.06,1.71-.02,3.42-.12,5.13l21.92,1.08c.09.2.09.42,0,.61-.22.43-1.46,1.37-1.87,1.75-6.13,6.06-12.44,11.93-18.58,17.99l19.55,22.56c-.13.56-2.89.14-3.44.43-5.9.14-11.78.59-17.68.72ZM1249.64,113.02l-12.48-13.72-13.81,15.37,14.16,12.26,12.09-13.63c.07-.09.07-.17.05-.28Z"/>
    <path class="cls-3" d="M844.11,135.99c-.23,2.18-.07,4.39-.11,6.58-.08,4.26-.04,8.94-.37,13.15-.04.47.23,1.75-.6,1.33-1.24-1.05-2.32-2.26-3.5-3.38-4.91-4.66-9.83-9.32-14.73-14-1.24-1.18-2.39-2.44-3.68-3.56l-20.76,21.01c-.14,0-.24-.07-.29-.21s-.12-.86-.14-1.07c-.12-1.68-.04-3.5-.11-5.2-.18-4.25-.44-8.53-.61-12.78-.03-.74.03-1.5,0-2.24l-21.13-1.29-.09-.32,20.01-19.95-19.89-22.29c.11-.32.18-.42.52-.45,2.89-.25,6.14.21,9.06,0,.29,0,.55.13.83.13,3.19.03,6.39-.02,9.59-.02.23-.44.09-.91.13-1.37.62-7.16,1.34-14.33,1.81-21.48.03-.42-.18-1.76.31-1.87l21.25,23.77,22.9-22.31c.23.09.4.15.45.4.08.45.02,1.54,0,2.06-.17,5.02-.44,10.06-.61,15.08-.06,1.71-.02,3.42-.12,5.13l21.92,1.08c.09.2.09.42,0,.61-.22.43-1.46,1.37-1.87,1.75-6.13,6.06-12.44,11.93-18.58,17.99l19.55,22.56c-.13.56-2.89.14-3.44.43-5.9.14-11.78.59-17.68.72ZM834.93,113.02l-12.48-13.72-13.81,15.37,14.16,12.26,12.09-13.63c.07-.09.07-.17.05-.28Z"/>
    <path class="cls-1" d="M706.92,135.99c-.23,2.18-.07,4.39-.11,6.58-.08,4.26-.04,8.94-.37,13.15-.04.47.23,1.75-.6,1.33-1.24-1.05-2.32-2.26-3.5-3.38-4.91-4.66-9.83-9.32-14.73-14-1.24-1.18-2.39-2.44-3.68-3.56l-20.76,21.01c-.14,0-.24-.07-.29-.21s-.12-.86-.14-1.07c-.12-1.68-.04-3.5-.11-5.2-.18-4.25-.44-8.53-.61-12.78-.03-.74.03-1.5,0-2.24l-21.13-1.29-.09-.32,20.01-19.95-19.89-22.29c.11-.32.18-.42.52-.45,2.89-.25,6.14.21,9.06,0,.29,0,.55.13.83.13,3.19.03,6.39-.02,9.59-.02.23-.44.09-.91.13-1.37.62-7.16,1.34-14.33,1.81-21.48.03-.42-.18-1.76.31-1.87l21.25,23.77,22.9-22.31c.23.09.4.15.45.4.08.45.02,1.54,0,2.06-.17,5.02-.44,10.06-.61,15.08-.06,1.71-.02,3.42-.12,5.13l21.92,1.08c.09.2.09.42,0,.61-.22.43-1.46,1.37-1.87,1.75-6.13,6.06-12.44,11.93-18.58,17.99l19.55,22.56c-.13.56-2.89.14-3.44.43-5.9.14-11.78.59-17.68.72ZM697.74,113.02l-12.48-13.72-13.81,15.37,14.16,12.26,12.09-13.63c.07-.09.07-.17.05-.28Z"/>
    <path class="cls-3" d="M569.73,135.99c-.23,2.18-.07,4.39-.11,6.58-.08,4.26-.04,8.94-.37,13.15-.04.47.23,1.75-.6,1.33-1.24-1.05-2.32-2.26-3.5-3.38-4.91-4.66-9.83-9.32-14.73-14-1.24-1.18-2.39-2.44-3.68-3.56l-20.76,21.01c-.14,0-.24-.07-.29-.21s-.12-.86-.14-1.07c-.12-1.68-.04-3.5-.11-5.2-.18-4.25-.44-8.53-.61-12.78-.03-.74.03-1.5,0-2.24l-21.13-1.29-.09-.32,20.01-19.95-19.89-22.29c.11-.32.18-.42.52-.45,2.89-.25,6.14.21,9.06,0,.29,0,.55.13.83.13,3.19.03,6.39-.02,9.59-.02.23-.44.09-.91.13-1.37.62-7.16,1.34-14.33,1.81-21.48.03-.42-.18-1.76.31-1.87l21.25,23.77,22.9-22.31c.23.09.4.15.45.4.08.45.02,1.54,0,2.06-.17,5.02-.44,10.06-.61,15.08-.06,1.71-.02,3.42-.12,5.13l21.92,1.08c.09.2.09.42,0,.61-.22.43-1.46,1.37-1.87,1.75-6.13,6.06-12.44,11.93-18.58,17.99l19.55,22.56c-.13.56-2.89.14-3.44.43-5.9.14-11.78.59-17.68.72ZM560.55,113.02l-12.48-13.72-13.81,15.37,14.16,12.26,12.09-13.63c.07-.09.07-.17.05-.28Z"/>
    <path class="cls-1" d="M432.54,135.99c-.23,2.18-.07,4.39-.11,6.58-.08,4.26-.04,8.94-.37,13.15-.04.47.23,1.75-.6,1.33-1.24-1.05-2.32-2.26-3.5-3.38-4.91-4.66-9.83-9.32-14.73-14-1.24-1.18-2.39-2.44-3.68-3.56l-20.76,21.01c-.14,0-.24-.07-.29-.21s-.12-.86-.14-1.07c-.12-1.68-.04-3.5-.11-5.2-.18-4.25-.44-8.53-.61-12.78-.03-.74.03-1.5,0-2.24l-21.13-1.29-.09-.32,20.01-19.95-19.89-22.29c.11-.32.18-.42.52-.45,2.89-.25,6.14.21,9.06,0,.29,0,.55.13.83.13,3.19.03,6.39-.02,9.59-.02.23-.44.09-.91.13-1.37.62-7.16,1.34-14.33,1.81-21.48.03-.42-.18-1.76.31-1.87l21.25,23.77,22.9-22.31c.23.09.4.15.45.4.08.45.02,1.54,0,2.06-.17,5.02-.44,10.06-.61,15.08-.06,1.71-.02,3.42-.12,5.13l21.92,1.08c.09.2.09.42,0,.61-.22.43-1.46,1.37-1.87,1.75-6.13,6.06-12.44,11.93-18.58,17.99l19.55,22.56c-.13.56-2.89.14-3.44.43-5.9.14-11.78.59-17.68.72ZM423.36,113.02l-12.48-13.72-13.81,15.37,14.16,12.26,12.09-13.63c.07-.09.07-.17.05-.28Z"/>
    <path class="cls-3" d="M295.35,135.99c-.23,2.18-.07,4.39-.11,6.58-.08,4.26-.04,8.94-.37,13.15-.04.47.23,1.75-.6,1.33-1.24-1.05-2.32-2.26-3.5-3.38-4.91-4.66-9.83-9.32-14.73-14-1.24-1.18-2.39-2.44-3.68-3.56l-20.76,21.01c-.14,0-.24-.07-.29-.21s-.12-.86-.14-1.07c-.12-1.68-.04-3.5-.11-5.2-.18-4.25-.44-8.53-.61-12.78-.03-.74.03-1.5,0-2.24l-21.13-1.29-.09-.32,20.01-19.95-19.89-22.29c.11-.32.18-.42.52-.45,2.89-.25,6.14.21,9.06,0,.29,0,.55.13.83.13,3.19.03,6.39-.02,9.59-.02.23-.44.09-.91.13-1.37.62-7.16,1.34-14.33,1.81-21.48.03-.42-.18-1.76.31-1.87l21.25,23.77,22.9-22.31c.23.09.4.15.45.4.08.45.02,1.54,0,2.06-.17,5.02-.44,10.06-.61,15.08-.06,1.71-.02,3.42-.12,5.13l21.92,1.08c.09.2.09.42,0,.61-.22.43-1.46,1.37-1.87,1.75-6.13,6.06-12.44,11.93-18.58,17.99l19.55,22.56c-.13.56-2.89.14-3.44.43-5.9.14-11.78.59-17.68.72ZM286.17,113.02l-12.48-13.72-13.81,15.37,14.16,12.26,12.09-13.63c.07-.09.07-.17.05-.28Z"/>
    <path class="cls-1" d="M158.16,135.99c-.23,2.18-.07,4.39-.11,6.58-.08,4.26-.04,8.94-.37,13.15-.04.47.23,1.75-.6,1.33-1.24-1.05-2.32-2.26-3.5-3.38-4.91-4.66-9.83-9.32-14.73-14-1.24-1.18-2.39-2.44-3.68-3.56l-20.76,21.01c-.14,0-.24-.07-.29-.21s-.12-.86-.14-1.07c-.12-1.68-.04-3.5-.11-5.2-.18-4.25-.44-8.53-.61-12.78-.03-.74.03-1.5,0-2.24l-21.13-1.29-.09-.32,20.01-19.95-19.89-22.29c.11-.32.18-.42.52-.45,2.89-.25,6.14.21,9.06,0,.29,0,.55.13.83.13,3.19.03,6.39-.02,9.59-.02.23-.44.09-.91.13-1.37.62-7.16,1.34-14.33,1.81-21.48.03-.42-.18-1.76.31-1.87l21.25,23.77,22.9-22.31c.23.09.4.15.45.4.08.45.02,1.54,0,2.06-.17,5.02-.44,10.06-.61,15.08-.06,1.71-.02,3.42-.12,5.13l21.92,1.08c.09.2.09.42,0,.61-.22.43-1.46,1.37-1.87,1.75-6.13,6.06-12.44,11.93-18.58,17.99l19.55,22.56c-.13.56-2.89.14-3.44.43-5.9.14-11.78.59-17.68.72ZM148.98,113.02l-12.48-13.72-13.81,15.37,14.16,12.26,12.09-13.63c.07-.09.07-.17.05-.28Z"/>
    <path class="cls-3" d="M20.98,135.99c-.23,2.18-.07,4.39-.11,6.58-.08,4.26-.04,8.94-.37,13.15-.04.47.23,1.75-.6,1.33-1.24-1.05-2.32-2.26-3.5-3.38-4.91-4.66-9.83-9.32-14.73-14-1.24-1.18-2.39-2.44-3.68-3.56l-20.76,21.01c-.14,0-.24-.07-.29-.21s-.12-.86-.14-1.07c-.12-1.68-.04-3.5-.11-5.2-.18-4.25-.44-8.53-.61-12.78-.03-.74.03-1.5,0-2.24l-21.13-1.29-.09-.32,20.01-19.95-19.89-22.29c.11-.32.18-.42.52-.45,2.89-.25,6.14.21,9.06,0,.29,0,.55.13.83.13,3.19.03,6.39-.02,9.59-.02.23-.44.09-.91.13-1.37.62-7.16,1.34-14.33,1.81-21.48.03-.42-.18-1.76.31-1.87L-1.52,90.48l22.9-22.31c.23.09.4.15.45.4.08.45.02,1.54,0,2.06-.17,5.02-.44,10.06-.61,15.08-.06,1.71-.02,3.42-.12,5.13l21.92,1.08c.09.2.09.42,0,.61-.22.43-1.46,1.37-1.87,1.75-6.13,6.06-12.44,11.93-18.58,17.99l19.55,22.56c-.13.56-2.89.14-3.44.43-5.9.14-11.78.59-17.68.72ZM11.79,113.02L-.69,99.3l-13.81,15.37L-.34,126.93l12.09-13.63c.07-.09.07-.17.05-.28Z"/>
    <path class="cls-3" d="M1943.21,135.99c-.23,2.18-.07,4.39-.11,6.58-.08,4.26-.04,8.94-.37,13.15-.04.47.23,1.75-.6,1.33-1.24-1.05-2.32-2.26-3.5-3.38-4.91-4.66-9.83-9.32-14.73-14-1.24-1.18-2.39-2.44-3.68-3.56l-20.76,21.01c-.14,0-.24-.07-.29-.21s-.12-.86-.14-1.07c-.12-1.68-.04-3.5-.11-5.2-.18-4.25-.44-8.53-.61-12.78-.03-.74.03-1.5,0-2.24l-21.13-1.29-.09-.32,20.01-19.95-19.89-22.29c.11-.32.18-.42.52-.45,2.89-.25,6.14.21,9.06,0,.29,0,.55.13.83.13,3.19.03,6.39-.02,9.59-.02.23-.44.09-.91.13-1.37.62-7.16,1.34-14.33,1.81-21.48.03-.42-.18-1.76.31-1.87l21.25,23.77,22.9-22.31c.23.09.4.15.45.4.08.45.02,1.54,0,2.06-.17,5.02-.44,10.06-.61,15.08-.06,1.71-.02,3.42-.12,5.13l21.92,1.08c.09.2.09.42,0,.61-.22.43-1.46,1.37-1.87,1.75-6.13,6.06-12.44,11.93-18.58,17.99l19.55,22.56c-.13.56-2.89.14-3.44.43-5.9.14-11.78.59-17.68.72ZM1934.03,113.02l-12.48-13.72-13.81,15.37,14.16,12.26,12.09-13.63c.07-.09.07-.17.05-.28Z"/>
    <path class="cls-1" d="M1806.02,135.99c-.23,2.18-.07,4.39-.11,6.58-.08,4.26-.04,8.94-.37,13.15-.04.47.23,1.75-.6,1.33-1.24-1.05-2.32-2.26-3.5-3.38-4.91-4.66-9.83-9.32-14.73-14-1.24-1.18-2.39-2.44-3.68-3.56l-20.76,21.01c-.14,0-.24-.07-.29-.21s-.12-.86-.14-1.07c-.12-1.68-.04-3.5-.11-5.2-.18-4.25-.44-8.53-.61-12.78-.03-.74.03-1.5,0-2.24l-21.13-1.29-.09-.32,20.01-19.95-19.89-22.29c.11-.32.18-.42.52-.45,2.89-.25,6.14.21,9.06,0,.29,0,.55.13.83.13,3.19.03,6.39-.02,9.59-.02.23-.44.09-.91.13-1.37.62-7.16,1.34-14.33,1.81-21.48.03-.42-.18-1.76.31-1.87l21.25,23.77,22.9-22.31c.23.09.4.15.45.4.08.45.02,1.54,0,2.06-.17,5.02-.44,10.06-.61,15.08-.06,1.71-.02,3.42-.12,5.13l21.92,1.08c.09.2.09.42,0,.61-.22.43-1.46,1.37-1.87,1.75-6.13,6.06-12.44,11.93-18.58,17.99l19.55,22.56c-.13.56-2.89.14-3.44.43-5.9.14-11.78.59-17.68.72ZM1796.84,113.02l-12.48-13.72-13.81,15.37,14.16,12.26,12.09-13.63c.07-.09.07-.17.05-.28Z"/>
    <path class="cls-3" d="M1668.83,135.99c-.23,2.18-.07,4.39-.11,6.58-.08,4.26-.04,8.94-.37,13.15-.04.47.23,1.75-.6,1.33-1.24-1.05-2.32-2.26-3.5-3.38-4.91-4.66-9.83-9.32-14.73-14-1.24-1.18-2.39-2.44-3.68-3.56l-20.76,21.01c-.14,0-.24-.07-.29-.21s-.12-.86-.14-1.07c-.12-1.68-.04-3.5-.11-5.2-.18-4.25-.44-8.53-.61-12.78-.03-.74.03-1.5,0-2.24l-21.13-1.29-.09-.32,20.01-19.95-19.89-22.29c.11-.32.18-.42.52-.45,2.89-.25,6.14.21,9.06,0,.29,0,.55.13.83.13,3.19.03,6.39-.02,9.59-.02.23-.44.09-.91.13-1.37.62-7.16,1.34-14.33,1.81-21.48.03-.42-.18-1.76.31-1.87l21.25,23.77,22.9-22.31c.23.09.4.15.45.4.08.45.02,1.54,0,2.06-.17,5.02-.44,10.06-.61,15.08-.06,1.71-.02,3.42-.12,5.13l21.92,1.08c.09.2.09.42,0,.61-.22.43-1.46,1.37-1.87,1.75-6.13,6.06-12.44,11.93-18.58,17.99l19.55,22.56c-.13.56-2.89.14-3.44.43-5.9.14-11.78.59-17.68.72ZM1659.65,113.02l-12.48-13.72-13.81,15.37,14.16,12.26,12.09-13.63c.07-.09.07-.17.05-.28Z"/>
    <path class="cls-1" d="M1531.64,135.99c-.23,2.18-.07,4.39-.11,6.58-.08,4.26-.04,8.94-.37,13.15-.04.47.23,1.75-.6,1.33-1.24-1.05-2.32-2.26-3.5-3.38-4.91-4.66-9.83-9.32-14.73-14-1.24-1.18-2.39-2.44-3.68-3.56l-20.76,21.01c-.14,0-.24-.07-.29-.21s-.12-.86-.14-1.07c-.12-1.68-.04-3.5-.11-5.2-.18-4.25-.44-8.53-.61-12.78-.03-.74.03-1.5,0-2.24l-21.13-1.29-.09-.32,20.01-19.95-19.89-22.29c.11-.32.18-.42.52-.45,2.89-.25,6.14.21,9.06,0,.29,0,.55.13.83.13,3.19.03,6.39-.02,9.59-.02.23-.44.09-.91.13-1.37.62-7.16,1.34-14.33,1.81-21.48.03-.42-.18-1.76.31-1.87l21.25,23.77,22.9-22.31c.23.09.4.15.45.4.08.45.02,1.54,0,2.06-.17,5.02-.44,10.06-.61,15.08-.06,1.71-.02,3.42-.12,5.13l21.92,1.08c.09.2.09.42,0,.61-.22.43-1.46,1.37-1.87,1.75-6.13,6.06-12.44,11.93-18.58,17.99l19.55,22.56c-.13.56-2.89.14-3.44.43-5.9.14-11.78.59-17.68.72ZM1522.46,113.02l-12.48-13.72-13.81,15.37,14.16,12.26,12.09-13.63c.07-.09.07-.17.05-.28Z"/>
  </g>
  <rect class="cls-2" x="-21.17" y="17.22" width="1956.78" height="3.76"/>
</svg>