<?xml version="1.0" encoding="UTF-8"?>
<svg id="Layer_1" data-name="Layer 1" xmlns="http://www.w3.org/2000/svg" xmlns:xlink="http://www.w3.org/1999/xlink" viewBox="0 0 239.93 428.48">
  <defs>
    <style>
      .cls-1, .cls-2 {
        fill: none;
      }

      .cls-2 {
        stroke: #e08a00;
        stroke-miterlimit: 10;
        stroke-width: 1.5px;
      }

      .cls-3 {
        clip-path: url(#clippath);
      }
    </style>
    <clipPath id="clippath">
      <rect class="cls-1" y="-4.9" width="239.93" height="440.26"/>
    </clipPath>
  </defs>
  <g class="cls-3">
    <path class="cls-2" d="M-142.95,69.75c.05-.29.69-1.36,1.01-1.56,1.96-1.23,15.18-.44,18.67-.53,11.17-.31,22.64-1.04,33.81-1.27,7.76-.15,15.55.17,23.31.03L-104.41,8.78c-.58-.86.23-2.43,1.16-2.74,15.49-.04,31-.25,46.5-.12,1.44.01,2.74.65,4.18.66,48.43.37,96.79-.22,145.16.57.94.05,1.52.58,1.54,1.52l-39.34,61.98,77.73-.64c.64-.37,1.49,1.21,1.49,1.55v66.22c5.74.15,11.52-.18,17.26-.03,20.26.55,40.77.55,61.02,1.27,2.25.08,13.18-.57,13.97.55.61.85.02,2.13-.52,2.88l-69.66,56.42-2.09,2.63,81.03,65.38c-.29,1.54-1.29,2-2.73,2.15-8.79.96-20.47-.21-29.69-.06-15.39.25-31.12.96-46.51,1.27-7.96.16-15.96-.17-23.92-.03.11,3.52-.14,7.07,0,10.59.52,13.57,1.01,27.5,1.24,41.09.11,6.27.65,15.26,0,21.22-.16,1.45-.57,2.44-2.15,2.68-4.33.68-9.01.31-13.3.61-18.09,1.24-36.31,2.74-54.42,3.64-1.45.07-8.46-.31-8.77,0-.16.16.01,1.4.32,1.79l39.28,65.96c.63.54-.11,3.6-.3,3.6H-103.34c-1.31,0-.97-3.42-.02-4.26l42.18-70.29.47-2.25-80.46,2.15c-.68-.49-1.12-3.82-1.2-4.85-.98-13-.39-28.98-.61-42.33-.06-3.84.56-27.59-.24-28.79-.17-.26-.43-.41-.72-.49-7.63-.29-15.29.1-22.93-.05-12.57-.26-25.47-1.03-38.04-1.27-12.45-.23-25.92.84-38.15-.55-5.05-.57,1-5.34,2.74-7,20.11-19.15,42.07-38.36,62.89-56.86,1.46-1.3,3.11-.65.63-3-19.88-18.88-43.32-35.7-63.52-54.4-.88-.82-5.07-4.64-3.6-5.73.23-.17,3.23-.61,3.89-.66,14.89-1.03,30.99.8,46.01.06,15.46-2.52,33.74,1.21,48.98-.6.6-.07,2.09-.26,2.09-.94v-69.54ZM-1.07,166.85l-49.35,52.88L-2.28,261.72l46.15-45.7L-1.07,166.85Z"/>
  </g>
</svg>