<?xml version="1.0" encoding="UTF-8"?>
<svg id="Layer_1" xmlns="http://www.w3.org/2000/svg" version="1.1" viewBox="0 0 1944.94 66.52">
  <!-- Generator: Adobe Illustrator 29.7.1, SVG Export Plug-In . SVG Version: 2.1.1 Build 8)  -->
  <defs>
    <style>
      .st0 {
        fill: #001751;
      }
    </style>
  </defs>
  <path class="st0" d="M1948.63,35.06v31.46H-4.07v-20.78l-.34.3c-.05-2.47-.09-4.94.01-7.41.13-2.92-.21-5.96.04-8.82.05-.62.02-1.23-.06-1.82.02-.45.05-.9.07-1.35L7.7,14.51c.14-.15.32-.18.5-.07,1.7,1.86,3.48,3.65,5.21,5.5,3.03,3.21,6,6.53,9.04,9.73.43.46,1.83,1.72,2.62,2.56,4.86-4.82,9.53-9.85,14.31-14.73.4-.41,2.94-3.06,3.16-3.11.13-.04.2-.02.32.05.29.15,1.05,1.08,1.39,1.39,5.02,4.6,9.76,9.55,14.75,14.19.55.51,1.02,1.09,1.6,1.57l18.36-16.25.35.07c2.85,2.55,5.56,5.3,8.33,7.93,2.02,1.92,4.12,3.79,6.13,5.7.73.7,1.47,1.62,2.22,2.24.22.17.62.53.88.47l8.99-8.68c2.32-2.09,4.52-4.32,6.82-6.4.37-.33,1.17-1.38,1.6-1.34.43.05,2,1.78,2.43,2.17,5.02,4.56,10.09,9.1,15.03,13.77.58.54.76.84.82,1.19,4.95-4.9,9.68-10,14.54-14.96.4-.41,2.94-3.06,3.15-3.11.15-.04.21-.02.32.05.3.15,1.06,1.08,1.39,1.39,5.03,4.6,9.77,9.55,14.75,14.19.55.51,1.03,1.09,1.6,1.57l18.37-16.25.35.07c2.85,2.55,5.55,5.3,8.33,7.93,2.02,1.92,4.11,3.79,6.13,5.7.72.7,1.47,1.62,2.22,2.24.21.17.62.53.88.47l9-8.68c2.31-2.09,4.5-4.32,6.81-6.4.37-.33,1.17-1.38,1.59-1.34.44.05,2.01,1.78,2.44,2.17,5.02,4.56,10.1,9.1,15.02,13.77.24.22.41.4.53.56l17.78-16.65c.41-.43.88.09,1.25.41,1.13.95,2.24,2.29,3.33,3.34,3.97,3.81,7.95,7.64,11.97,11.4.29.26,1.66,1.79,1.88,1.74l16.49-17.78c.55-.36,1.61,1.24,1.93,1.58,1.27,1.33,2.67,2.53,3.97,3.81,4.16,4.11,8.22,8.31,12.45,12.33l.19.05,17.81-17.94c.14-.15.33-.18.49-.07,1.72,1.86,3.5,3.66,5.22,5.49,3.03,3.23,6,6.54,9.04,9.75.58.62,3.35,3.54,3.58,4.07l18.12-18.18c.41-.43.88.09,1.25.41,1.14.95,2.24,2.29,3.33,3.34,3.96,3.81,7.95,7.64,11.97,11.4.28.26,1.66,1.79,1.87,1.74l16.5-17.78c.54-.36,1.61,1.24,1.93,1.58,1.27,1.33,2.67,2.53,3.97,3.81,4.15,4.11,8.22,8.31,12.44,12.33l.19.05,17.82-17.94c.15-.15.32-.18.49-.07,1.71,1.86,3.49,3.66,5.23,5.49,3.02,3.23,5.99,6.54,9.03,9.75.43.46,1.83,1.71,2.62,2.55,4.86-4.82,9.53-9.84,14.31-14.73.4-.41,2.94-3.06,3.16-3.11.14-.03.2-.01.32.05.29.15,1.06,1.09,1.39,1.4,5.02,4.59,9.76,9.54,14.75,14.18.54.5,1.03,1.09,1.59,1.57l18.37-16.25.35.07c2.85,2.55,5.55,5.3,8.33,7.94,2.02,1.91,4.12,3.78,6.13,5.69.72.69,1.48,1.63,2.22,2.24.22.17.62.54.88.46l9-8.67c2.24-2.02,4.38-4.18,6.62-6.21l.19-.19c.09-.07.19-.19.32-.32l.11-.13.12-.11.15-.16c.41-.43.88.09,1.25.41,1.14.96,2.23,2.29,3.33,3.35,3.97,3.8,7.96,7.63,11.97,11.4.28.26,1.67,1.79,1.87,1.73l.65-.7,15.86-17.08c.53-.36,1.59,1.25,1.92,1.59,1.28,1.32,2.67,2.53,3.97,3.81,4.16,4.1,8.23,8.3,12.45,12.33l.19.04,17.81-17.93c.14-.15.32-.18.5-.07,1.71,1.86,3.49,3.65,5.22,5.5,3.03,3.21,5.99,6.53,9.03,9.73.43.46,1.82,1.72,2.62,2.56,4.86-4.82,9.54-9.85,14.31-14.73.4-.41,2.94-3.06,3.16-3.11.13-.04.2-.02.32.05.29.15,1.06,1.08,1.39,1.39,5.03,4.6,9.77,9.55,14.75,14.19.54.51,1.02,1.09,1.59,1.57l18.37-16.25.35.07c2.85,2.55,5.55,5.3,8.34,7.93,2.01,1.92,4.1,3.79,6.12,5.7.73.7,1.47,1.62,2.23,2.24.2.17.61.53.87.47l9-8.68c2.32-2.09,4.51-4.32,6.82-6.4.36-.33,1.16-1.38,1.59-1.34.42.05,2,1.78,2.44,2.17,5.01,4.56,10.09,9.1,15.02,13.77.58.54.77.84.81,1.19,4.96-4.9,9.69-10,14.55-14.96.4-.41,2.95-3.06,3.15-3.11.15-.04.21-.02.33.05.29.15,1.06,1.08,1.39,1.39,5.02,4.6,9.76,9.55,14.74,14.19.56.51,1.04,1.09,1.6,1.57l18.37-16.25.34.07c2.86,2.55,5.57,5.3,8.35,7.93,2.01,1.92,4.1,3.79,6.12,5.7.72.7,1.47,1.62,2.22,2.24.21.17.62.53.88.47l8.99-8.68c2.33-2.09,4.51-4.32,6.82-6.4.38-.33,1.16-1.38,1.6-1.34.43.05,2,1.78,2.43,2.17,5.03,4.56,10.1,9.1,15.03,13.77.23.22.4.4.53.56l17.78-16.65c.4-.43.87.09,1.24.41,1.13.95,2.24,2.29,3.34,3.34,3.96,3.81,7.95,7.64,11.96,11.4.29.26,1.66,1.79,1.87,1.74l16.51-17.78c.53-.36,1.6,1.24,1.92,1.58,1.28,1.33,2.67,2.53,3.98,3.81,4.15,4.11,8.22,8.31,12.44,12.33l.19.05,17.81-17.94c.14-.15.33-.18.5-.07,1.71,1.86,3.49,3.66,5.21,5.49,3.04,3.23,6,6.54,9.04,9.75.59.62,3.36,3.54,3.58,4.07l18.12-18.18c.4-.43.88.09,1.25.41,1.13.95,2.24,2.29,3.33,3.34,3.97,3.81,7.95,7.64,11.97,11.4.28.26,1.66,1.79,1.87,1.74l16.51-17.78c.53-.36,1.59,1.24,1.92,1.58,1.27,1.33,2.67,2.53,3.97,3.81,4.16,4.11,8.22,8.31,12.44,12.33l.2.05,17.81-17.94c.14-.15.33-.18.49-.07,1.72,1.86,3.5,3.66,5.22,5.49,3.03,3.23,6,6.54,9.04,9.75.43.46,1.83,1.71,2.62,2.55,4.87-4.82,9.54-9.84,14.32-14.73.39-.41,2.94-3.06,3.15-3.11.14-.03.21-.01.32.05.29.15,1.05,1.09,1.39,1.4,5.03,4.59,9.77,9.54,14.75,14.18.54.5,1.02,1.09,1.6,1.57l18.36-16.25.35.07c2.86,2.55,5.56,5.3,8.33,7.94,2.02,1.91,4.12,3.78,6.14,5.69.72.69,1.47,1.63,2.21,2.24.22.17.62.54.89.46l8.99-8.67c2.32-2.08,4.51-4.31,6.82-6.4.37-.33,1.16-1.38,1.59-1.33.24.02.84.58,1.4,1.13,0,0,.01,0,.01.01.43.42.84.85,1.03,1.02.09.09.18.16.27.24.63.66,1.26,1.36,1.89,1.97,3.96,3.8,7.95,7.63,11.97,11.4.24.22,1.31,1.39,1.72,1.67.07.05.12.07.15.06l16.5-17.78c.54-.36,1.61,1.25,1.93,1.59,1.27,1.32,2.67,2.53,3.97,3.81,4.16,4.1,8.22,8.3,12.44,12.33l.19.04,17.82-17.93c.14-.15.32-.18.49-.07,1.71,1.86,3.49,3.65,5.23,5.5,3.02,3.21,5.99,6.53,9.03,9.73.43.46,1.83,1.72,2.62,2.56,4.86-4.82,9.53-9.85,14.32-14.73.39-.41,2.93-3.06,3.15-3.11.14-.04.2-.02.32.05.29.15,1.06,1.08,1.39,1.39,5.02,4.6,9.76,9.55,14.75,14.19.54.51,1.03,1.09,1.59,1.57l18.37-16.25.35.07c2.85,2.55,5.56,5.3,8.33,7.93,2.02,1.92,4.12,3.79,6.13,5.7.73.7,1.48,1.62,2.22,2.24.22.17.62.53.88.47l9-8.68c2.31-2.09,4.51-4.32,6.81-6.4.38-.33,1.17-1.38,1.6-1.34.43.05,2,1.78,2.43,2.17,5.03,4.56,10.1,9.1,15.03,13.77.58.54.76.84.81,1.19,4.95-4.9,9.7-10,14.55-14.96.39-.41,2.94-3.06,3.16-3.11.14-.04.2-.02.32.05.28.15,1.05,1.08,1.39,1.39,5.02,4.6,9.76,9.55,14.75,14.19.54.51,1.02,1.09,1.59,1.57l18.36-16.25.36.07c2.84,2.55,5.55,5.3,8.34,7.93,2.02,1.92,4.1,3.79,6.12,5.7.72.7,1.47,1.62,2.22,2.24.21.17.61.53.87.47l9.01-8.68c2.31-2.09,4.51-4.32,6.82-6.4.36-.33,1.16-1.38,1.59-1.34.43.05,2,1.78,2.44,2.17,5.01,4.56,10.09,9.1,15.02,13.77.24.22.4.4.52.56l17.79-16.65c.4-.43.87.09,1.24.41,1.13.95,2.24,2.29,3.34,3.34,3.96,3.81,7.94,7.64,11.96,11.4.29.26,1.67,1.79,1.87,1.74l16.51-17.78c.54-.36,1.6,1.24,1.92,1.58,1.27,1.33,2.67,2.53,3.97,3.81,4.16,4.11,8.22,8.31,12.45,12.33l.19.05,17.81-17.94c.14-.15.33-.18.49-.07,1.71,1.86,3.49,3.66,5.22,5.49,3.03,3.23,6,6.54,9.04,9.75.59.62,3.35,3.54,3.58,4.07l18.12-18.18c.41-.43.88.09,1.25.41,1.14.95,2.23,2.29,3.33,3.34,3.97,3.81,7.96,7.64,11.97,11.4.28.26,1.66,1.79,1.87,1.74l16.5-17.78c.55-.36,1.6,1.24,1.93,1.58,1.28,1.33,2.67,2.53,3.97,3.81,4.16,4.11,8.23,8.31,12.45,12.33l.19.05,17.82-17.94c.13-.15.31-.18.49-.07,1.7,1.86,3.48,3.66,5.22,5.49,3.03,3.23,5.99,6.54,9.04,9.75.42.46,1.81,1.71,2.61,2.55,4.86-4.82,9.53-9.84,14.31-14.73.4-.41,2.94-3.06,3.16-3.11.13-.03.2-.01.32.05.29.15,1.06,1.09,1.4,1.4,5.01,4.59,9.75,9.54,14.74,14.18.54.5,1.02,1.09,1.59,1.57l18.37-16.25.35.07c2.85,2.55,5.55,5.3,8.34,7.94,2.02,1.91,4.1,3.78,6.12,5.69.73.69,1.47,1.63,2.22,2.24.21.17.62.54.88.46l8.99-8.67c2.26-2.02,4.39-4.18,6.63-6.21l.1-.09s.07-.07.1-.1c.09-.07.19-.19.3-.32l.13-.13.26-.27c.4-.43.88.09,1.25.41,1.13.96,2.24,2.29,3.34,3.35,3.96,3.8,7.94,7.63,11.96,11.4.28.26,1.66,1.79,1.87,1.73l.65-.7,15.86-17.08c.53-.36,1.59,1.25,1.92,1.59,1.28,1.32,2.67,2.53,3.97,3.81,4.16,4.1,8.22,8.3,12.44,12.33l.2.04,17.81-17.93c.14-.15.33-.18.5-.07,1.71,1.86,3.49,3.65,5.21,5.5,3.03,3.21,6,6.53,9.04,9.73.43.46,1.83,1.72,2.62,2.56,4.86-4.82,9.54-9.85,14.32-14.73.39-.41,2.94-3.06,3.15-3.11.14-.04.21-.02.32.05.29.15,1.05,1.08,1.39,1.39,5.03,4.6,9.77,9.55,14.75,14.19.55.51,1.02,1.09,1.6,1.57l18.36-16.25.35.07c2.86,2.55,5.56,5.3,8.33,7.93,2.02,1.92,4.12,3.79,6.14,5.7.72.7,1.47,1.62,2.21,2.24.22.17.62.53.89.47l8.99-8.68c2.32-2.09,4.51-4.32,6.82-6.4.37-.33,1.16-1.38,1.59-1.34.43.05,2,1.78,2.44,2.17,4.24,3.86,8.51,7.71,12.71,11.63,0,1.98-.04,3.95-.07,5.93h.35Z"/>
</svg>