<?xml version="1.0" encoding="UTF-8"?>
<svg id="Layer_1" data-name="Layer 1" xmlns="http://www.w3.org/2000/svg" xmlns:xlink="http://www.w3.org/1999/xlink" viewBox="0 0 1944.94 143.99">
  <defs>
    <style>
      .cls-1, .cls-2, .cls-3 {
        fill: none;
      }

      .cls-4 {
        fill: #e08a00;
      }

      .cls-2 {
        stroke-width: 1.22px;
      }

      .cls-2, .cls-3 {
        stroke: #a0421d;
        stroke-miterlimit: 10;
      }

      .cls-3 {
        stroke-width: 1.22px;
      }

      .cls-5 {
        clip-path: url(#clippath);
      }
    </style>
    <clipPath id="clippath">
      <rect class="cls-1" x="-.39" y="-9.64" width="1945.33" height="153.63"/>
    </clipPath>
  </defs>
  <g class="cls-5">
    <g>
      <g>
        <g>
          <path class="cls-4" d="M548.79,96.01c-3.92.27-8.44-1.29-11.49-3.72-3.96-3.15-4.88-11.06-2.71-15.42,3.07-6.2,8.67-8.88,15.5-7.88,4.95.73,8.73,4.65,10.14,9.34,2.29,7.65-3.2,17.13-11.43,17.69Z"/>
          <path class="cls-4" d="M576.03,89.35c-.22.04-.44-.17-.64-.24-3.89-2.28-8-4.21-11.88-6.49-.23-.13-.7-.35-.54-.66l11.54-7.29c4.63,2.33,9.18,4.82,13.77,7.22.28.15.34.39.06.58l-12.31,6.89Z"/>
          <path class="cls-4" d="M571.97,66.94l-13.42,3.92c-.17.07-.35-.1-.35-.26l2.9-13.92,14.45-3.84.07.25-3.66,13.85Z"/>
          <path class="cls-4" d="M547.98,124.37c-.1.03-.22.02-.31-.04-2.36-4.13-4.63-8.34-6.91-12.52,2.14-4.56,4.47-9.05,6.66-13.6.31-.66.71.35.91.69,2.13,3.72,4.1,7.53,6.18,11.28l-5.45,11.98c-.22.27-.92,2.17-1.08,2.22Z"/>
          <path class="cls-4" d="M576.22,111.74l-13.22-4.39-.29-.16-4.48-13.52c0-.38.31-.44.62-.35l12.94,3.52.3.16,4.38,14.45c-.01.14-.12.25-.24.31Z"/>
          <path class="cls-4" d="M517.71,112.19c-.32-.02-.48-.22-.36-.53,1.76-4.57,3.35-9.21,5.17-13.75l12.59-3.59c.29-.05.49-.05.49.3l-3.34,13.3c-4.83,1.5-9.71,2.84-14.55,4.27Z"/>
          <path class="cls-4" d="M536.06,71.63c-.12.12-1.3-.27-1.53-.34-4.17-1.23-8.28-2.7-12.45-3.91-.08-.03-.17-.07-.23-.13-.14-.14-.49-1.22-.59-1.51-1.4-3.9-2.63-7.86-4.07-11.74-.1-.26-.04-.5.27-.46l14.41,4.52c.12.11.16.28.21.43,1.45,4.14,2.51,8.44,3.96,12.59.04.11.07.52.04.55Z"/>
          <path class="cls-4" d="M547.06,66.77c-.16.05-.31.02-.39-.14l-6.65-12.6c.15-.43.34-.85.53-1.27,1.53-3.37,3.3-6.81,4.94-10.15.13-.26.68-1.48.86-1.52.1-.02.16.07.22.13l7.12,13.18c.1.18.16.39.05.58l-6.46,11.55c-.05.09-.12.2-.23.23Z"/>
          <path class="cls-4" d="M531.01,83.4l-11.65,6.12-13.15-5.83-.14-.23,12.12-7.81,12.76,7.26c.12.12.12.33.07.49Z"/>
        </g>
        <g>
          <path class="cls-4" d="M444.34,96.01c-3.92.27-8.44-1.29-11.49-3.72-3.96-3.15-4.88-11.06-2.71-15.42,3.07-6.2,8.67-8.88,15.5-7.88,4.95.73,8.73,4.65,10.14,9.34,2.29,7.65-3.2,17.13-11.43,17.69Z"/>
          <path class="cls-4" d="M471.59,89.35c-.22.04-.44-.17-.64-.24-3.89-2.28-8-4.21-11.88-6.49-.23-.13-.7-.35-.54-.66l11.54-7.29c4.63,2.33,9.18,4.82,13.77,7.22.28.15.34.39.06.58l-12.31,6.89Z"/>
          <path class="cls-4" d="M467.52,66.94l-13.42,3.92c-.17.07-.35-.1-.35-.26l2.9-13.92,14.45-3.84.07.25-3.66,13.85Z"/>
          <path class="cls-4" d="M443.54,124.37c-.1.03-.22.02-.31-.04-2.36-4.13-4.63-8.34-6.91-12.52,2.14-4.56,4.47-9.05,6.66-13.6.31-.66.71.35.91.69,2.13,3.72,4.1,7.53,6.18,11.28l-5.45,11.98c-.22.27-.92,2.17-1.08,2.22Z"/>
          <path class="cls-4" d="M471.78,111.74l-13.22-4.39-.29-.16-4.48-13.52c0-.38.31-.44.62-.35l12.94,3.52.3.16,4.38,14.45c-.01.14-.12.25-.24.31Z"/>
          <path class="cls-4" d="M413.27,112.19c-.32-.02-.48-.22-.36-.53,1.76-4.57,3.35-9.21,5.17-13.75l12.59-3.59c.29-.05.49-.05.49.3l-3.34,13.3c-4.83,1.5-9.71,2.84-14.55,4.27Z"/>
          <path class="cls-4" d="M431.62,71.63c-.12.12-1.3-.27-1.53-.34-4.17-1.23-8.28-2.7-12.45-3.91-.08-.03-.17-.07-.23-.13-.14-.14-.49-1.22-.59-1.51-1.4-3.9-2.63-7.86-4.07-11.74-.1-.26-.04-.5.27-.46l14.41,4.52c.12.11.16.28.21.43,1.45,4.14,2.51,8.44,3.96,12.59.04.11.07.52.04.55Z"/>
          <path class="cls-4" d="M442.62,66.77c-.16.05-.31.02-.39-.14l-6.65-12.6c.15-.43.34-.85.53-1.27,1.53-3.37,3.3-6.81,4.94-10.15.13-.26.68-1.48.86-1.52.1-.02.16.07.22.13l7.12,13.18c.1.18.16.39.05.58l-6.46,11.55c-.05.09-.12.2-.23.23Z"/>
          <path class="cls-4" d="M426.57,83.4l-11.65,6.12-13.15-5.83-.14-.23,12.12-7.81,12.76,7.26c.12.12.12.33.07.49Z"/>
        </g>
        <g>
          <path class="cls-4" d="M335.04,96.01c-3.92.27-8.44-1.29-11.49-3.72-3.96-3.15-4.88-11.06-2.71-15.42,3.07-6.2,8.67-8.88,15.5-7.88,4.95.73,8.73,4.65,10.14,9.34,2.29,7.65-3.2,17.13-11.43,17.69Z"/>
          <path class="cls-4" d="M362.28,89.35c-.22.04-.44-.17-.64-.24-3.89-2.28-8-4.21-11.88-6.49-.23-.13-.7-.35-.54-.66l11.54-7.29c4.63,2.33,9.18,4.82,13.77,7.22.28.15.34.39.06.58l-12.31,6.89Z"/>
          <path class="cls-4" d="M358.22,66.94l-13.42,3.92c-.17.07-.35-.1-.35-.26l2.9-13.92,14.45-3.84.07.25-3.66,13.85Z"/>
          <path class="cls-4" d="M334.23,124.37c-.1.03-.22.02-.31-.04-2.36-4.13-4.63-8.34-6.91-12.52,2.14-4.56,4.47-9.05,6.66-13.6.31-.66.71.35.91.69,2.13,3.72,4.1,7.53,6.18,11.28l-5.45,11.98c-.22.27-.92,2.17-1.08,2.22Z"/>
          <path class="cls-4" d="M362.47,111.74l-13.22-4.39-.29-.16-4.48-13.52c0-.38.31-.44.62-.35l12.94,3.52.3.16,4.38,14.45c-.01.14-.12.25-.24.31Z"/>
          <path class="cls-4" d="M303.96,112.19c-.32-.02-.48-.22-.36-.53,1.76-4.57,3.35-9.21,5.17-13.75l12.59-3.59c.29-.05.49-.05.49.3l-3.34,13.3c-4.83,1.5-9.71,2.84-14.55,4.27Z"/>
          <path class="cls-4" d="M322.31,71.63c-.12.12-1.3-.27-1.53-.34-4.17-1.23-8.28-2.7-12.45-3.91-.08-.03-.17-.07-.23-.13-.14-.14-.49-1.22-.59-1.51-1.4-3.9-2.63-7.86-4.07-11.74-.1-.26-.04-.5.27-.46l14.41,4.52c.12.11.16.28.21.43,1.45,4.14,2.51,8.44,3.96,12.59.04.11.07.52.04.55Z"/>
          <path class="cls-4" d="M333.31,66.77c-.16.05-.31.02-.39-.14l-6.65-12.6c.15-.43.34-.85.53-1.27,1.53-3.37,3.3-6.81,4.94-10.15.13-.26.68-1.48.86-1.52.1-.02.16.07.22.13l7.12,13.18c.1.18.16.39.05.58l-6.46,11.55c-.05.09-.12.2-.23.23Z"/>
          <path class="cls-4" d="M317.26,83.4l-11.65,6.12-13.15-5.83-.14-.23,12.12-7.81,12.76,7.26c.12.12.12.33.07.49Z"/>
        </g>
        <g>
          <path class="cls-4" d="M226.85,96.01c-3.92.27-8.44-1.29-11.49-3.72-3.96-3.15-4.88-11.06-2.71-15.42,3.07-6.2,8.67-8.88,15.5-7.88,4.95.73,8.73,4.65,10.14,9.34,2.29,7.65-3.2,17.13-11.43,17.69Z"/>
          <path class="cls-4" d="M254.1,89.35c-.22.04-.44-.17-.64-.24-3.89-2.28-8-4.21-11.88-6.49-.23-.13-.7-.35-.54-.66l11.54-7.29c4.63,2.33,9.18,4.82,13.77,7.22.28.15.34.39.06.58l-12.31,6.89Z"/>
          <path class="cls-4" d="M250.03,66.94l-13.42,3.92c-.17.07-.35-.1-.35-.26l2.9-13.92,14.45-3.84.07.25-3.66,13.85Z"/>
          <path class="cls-4" d="M226.04,124.37c-.1.03-.22.02-.31-.04-2.36-4.13-4.63-8.34-6.91-12.52,2.14-4.56,4.47-9.05,6.66-13.6.31-.66.71.35.91.69,2.13,3.72,4.1,7.53,6.18,11.28l-5.45,11.98c-.22.27-.92,2.17-1.08,2.22Z"/>
          <path class="cls-4" d="M254.29,111.74l-13.22-4.39-.29-.16-4.48-13.52c0-.38.31-.44.62-.35l12.94,3.52.3.16,4.38,14.45c-.01.14-.12.25-.24.31Z"/>
          <path class="cls-4" d="M195.78,112.19c-.32-.02-.48-.22-.36-.53,1.76-4.57,3.35-9.21,5.17-13.75l12.59-3.59c.29-.05.49-.05.49.3l-3.34,13.3c-4.83,1.5-9.71,2.84-14.55,4.27Z"/>
          <path class="cls-4" d="M214.12,71.63c-.12.12-1.3-.27-1.53-.34-4.17-1.23-8.28-2.7-12.45-3.91-.08-.03-.17-.07-.23-.13-.14-.14-.49-1.22-.59-1.51-1.4-3.9-2.63-7.86-4.07-11.74-.1-.26-.04-.5.27-.46l14.41,4.52c.12.11.16.28.21.43,1.45,4.14,2.51,8.44,3.96,12.59.04.11.07.52.04.55Z"/>
          <path class="cls-4" d="M225.12,66.77c-.16.05-.31.02-.39-.14l-6.65-12.6c.15-.43.34-.85.53-1.27,1.53-3.37,3.3-6.81,4.94-10.15.13-.26.68-1.48.86-1.52.1-.02.16.07.22.13l7.12,13.18c.1.18.16.39.05.58l-6.46,11.55c-.05.09-.12.2-.23.23Z"/>
          <path class="cls-4" d="M209.08,83.4l-11.65,6.12-13.15-5.83-.14-.23,12.12-7.81,12.76,7.26c.12.12.12.33.07.49Z"/>
        </g>
        <g>
          <path class="cls-4" d="M118.67,96.01c-3.92.27-8.44-1.29-11.49-3.72-3.96-3.15-4.88-11.06-2.71-15.42,3.07-6.2,8.67-8.88,15.5-7.88,4.95.73,8.73,4.65,10.14,9.34,2.29,7.65-3.2,17.13-11.43,17.69Z"/>
          <path class="cls-4" d="M145.91,89.35c-.22.04-.44-.17-.64-.24-3.89-2.28-8-4.21-11.88-6.49-.23-.13-.7-.35-.54-.66l11.54-7.29c4.63,2.33,9.18,4.82,13.77,7.22.28.15.34.39.06.58l-12.31,6.89Z"/>
          <path class="cls-4" d="M141.85,66.94l-13.42,3.92c-.17.07-.35-.1-.35-.26l2.9-13.92,14.45-3.84.07.25-3.66,13.85Z"/>
          <path class="cls-4" d="M117.86,124.37c-.1.03-.22.02-.31-.04-2.36-4.13-4.63-8.34-6.91-12.52,2.14-4.56,4.47-9.05,6.66-13.6.31-.66.71.35.91.69,2.13,3.72,4.1,7.53,6.18,11.28l-5.45,11.98c-.22.27-.92,2.17-1.08,2.22Z"/>
          <path class="cls-4" d="M146.1,111.74l-13.22-4.39-.29-.16-4.48-13.52c0-.38.31-.44.62-.35l12.94,3.52.3.16,4.38,14.45c-.01.14-.12.25-.24.31Z"/>
          <path class="cls-4" d="M87.59,112.19c-.32-.02-.48-.22-.36-.53,1.76-4.57,3.35-9.21,5.17-13.75l12.59-3.59c.29-.05.49-.05.49.3l-3.34,13.3c-4.83,1.5-9.71,2.84-14.55,4.27Z"/>
          <path class="cls-4" d="M105.94,71.63c-.12.12-1.3-.27-1.53-.34-4.17-1.23-8.28-2.7-12.45-3.91-.08-.03-.17-.07-.23-.13-.14-.14-.49-1.22-.59-1.51-1.4-3.9-2.63-7.86-4.07-11.74-.1-.26-.04-.5.27-.46l14.41,4.52c.12.11.16.28.21.43,1.45,4.14,2.51,8.44,3.96,12.59.04.11.07.52.04.55Z"/>
          <path class="cls-4" d="M116.94,66.77c-.16.05-.31.02-.39-.14l-6.65-12.6c.15-.43.34-.85.53-1.27,1.53-3.37,3.3-6.81,4.94-10.15.13-.26.68-1.48.86-1.52.1-.02.16.07.22.13l7.12,13.18c.1.18.16.39.05.58l-6.46,11.55c-.05.09-.12.2-.23.23Z"/>
          <path class="cls-4" d="M100.89,83.4l-11.65,6.12-13.15-5.83-.14-.23,12.12-7.81,12.76,7.26c.12.12.12.33.07.49Z"/>
        </g>
        <g>
          <path class="cls-4" d="M12.73,96.01c-3.92.27-8.44-1.29-11.49-3.72-3.96-3.15-4.88-11.06-2.71-15.42,3.07-6.2,8.67-8.88,15.5-7.88,4.95.73,8.73,4.65,10.14,9.34,2.29,7.65-3.2,17.13-11.43,17.69Z"/>
          <path class="cls-4" d="M39.97,89.35c-.22.04-.44-.17-.64-.24-3.89-2.28-8-4.21-11.88-6.49-.23-.13-.7-.35-.54-.66l11.54-7.29c4.63,2.33,9.18,4.82,13.77,7.22.28.15.34.39.06.58l-12.31,6.89Z"/>
          <path class="cls-4" d="M35.91,66.94l-13.42,3.92c-.17.07-.35-.1-.35-.26l2.9-13.92,14.45-3.84.07.25-3.66,13.85Z"/>
          <path class="cls-4" d="M11.92,124.37c-.1.03-.22.02-.31-.04-2.36-4.13-4.63-8.34-6.91-12.52,2.14-4.56,4.47-9.05,6.66-13.6.31-.66.71.35.91.69,2.13,3.72,4.1,7.53,6.18,11.28l-5.45,11.98c-.22.27-.92,2.17-1.08,2.22Z"/>
          <path class="cls-4" d="M40.17,111.74l-13.22-4.39-.29-.16-4.48-13.52c0-.38.31-.44.62-.35l12.94,3.52.3.16,4.38,14.45c-.01.14-.12.25-.24.31Z"/>
          <path class="cls-4" d="M0,71.63c-.12.12-1.3-.27-1.53-.34-4.17-1.23-8.28-2.7-12.45-3.91-.08-.03-.17-.07-.23-.13-.14-.14-.49-1.22-.59-1.51-1.4-3.9-2.63-7.86-4.07-11.74-.1-.26-.04-.5.27-.46l14.41,4.52c.12.11.16.28.21.43,1.45,4.14,2.51,8.44,3.96,12.59.04.11.07.52.04.55Z"/>
          <path class="cls-4" d="M11,66.77c-.16.05-.31.02-.39-.14l-6.65-12.6c.15-.43.34-.85.53-1.27,1.53-3.37,3.3-6.81,4.94-10.15.13-.26.68-1.48.86-1.52.1-.02.16.07.22.13l7.12,13.18c.1.18.16.39.05.58l-6.46,11.55c-.05.09-.12.2-.23.23Z"/>
        </g>
        <path class="cls-2" d="M560.8,7.1c-3.06,1.86-6.03,3.35-9.12,5.13-2.02,1.17-3.68,1.98-5.64,3.17l-19.37-10.47c-.26-.04-.83.28-1.06.41-.55.3-1.05.71-1.59,1.03-3.95,2.36-7.41,4.43-11.36,6.78-1.09.65-2.13,1.36-3.25,1.99l-19.66-10.41-15.28,10.2-16.51-9.83-17.77,10.03-18.26-10.31c-.4-.08-.67.14-.98.27l-17.51,9.59-18.31-9.73c-.28-.14-.66-.22-.94-.06-5.58,3.56-11.05,7.17-16.57,10.75l-17.72-10.55-17.77,10.03-18.26-10.31c-.4-.08-.67.14-.98.27l-17.51,9.59-18.31-9.73c-.28-.14-.66-.22-.94-.06-5.6,3.57-11.1,7.2-16.65,10.8l-18.62-10.92c-.18-.02-.29.03-.44.09-.6.26-1.62,1.08-2.23,1.45-3.06,1.86-6.11,3.78-9.12,5.68-1.93,1.21-3.78,2.48-5.73,3.67l-18.53-10.79c-.26-.04-.83.28-1.06.41-.55.3-1.05.71-1.59,1.03-3.95,2.36-7.92,4.72-11.87,7.07-1.09.65-2.13,1.36-3.25,1.99l-19.66-10.41-16.01,10.69-18.59-10.89c-.18-.02-.3.03-.44.09-.6.26-1.62,1.08-2.23,1.45-3.06,1.86-6.11,3.78-9.12,5.68-1.93,1.21-3.78,2.48-5.73,3.67l-18.53-10.79c-.26-.04-.83.28-1.06.41-.55.3-1.05.71-1.59,1.03-3.95,2.36-7.92,4.72-11.87,7.07-1.09.65-2.13,1.36-3.25,1.99l-19.66-10.41-15.28,10.2L27.49,5.37,9.72,15.4c-.98-.53-1.96-1.07-2.94-1.6L.29,10.27c-2.19-1.19-4.37-2.38-6.56-3.57-.97-.53-1.94-1.05-2.91-1.58-.07-.04-.15-.08-.23-.11-.21-.07-.48-.07-.7,0-.46.13-.87.5-1.23.73-.46.3-.93.59-1.39.89-.93.6-1.85,1.19-2.77,1.79-1.84,1.2-3.68,2.4-5.52,3.59-1.27.83-2.54,1.66-3.81,2.48s-2.65,1.57-3.76,2.44c-.21.16-.21.41,0,.57,0,0,10.92,6.4,10.91,6.4l1.03.6.19.11.51.3.76.44.93.55,1.03.61,1.06.62,1.02.6.9.53.71.42c.18.1.35.21.53.31.01,0,.02.01.03.02.09.03.2,0,.28-.03.28-.08.65-.32.81-.42.56-.33,1.06-.67,1.6-.99,3.95-2.36,7.92-4.72,11.87-7.07,1.09-.65,2.13-1.36,3.25-1.99l19.66,10.41,15.28-10.2,16.51,9.83,17.77-10.03,18.26,10.31c.4.08.67-.14.98-.27l17.51-9.59,18.31,9.73c.28.14.66.22.94.06,5.58-3.56,11.05-7.17,16.57-10.75l17.72,10.55,17.77-10.03,18.26,10.31c.4.08.67-.14.98-.27l17.51-9.59,18.31,9.73c.28.14.66.22.94.06,5.6-3.57,11.1-7.2,16.65-10.8l18.62,10.92c.18.02.29-.03.44-.09.6-.26,1.62-1.08,2.23-1.45,3.06-1.86,6.11-3.78,9.12-5.68,1.93-1.21,3.78-2.48,5.73-3.67l18.53,10.79c.26.04.83-.28,1.06-.41.55-.3,1.05-.71,1.59-1.03,3.95-2.36,7.92-4.72,11.87-7.07,1.09-.65,2.13-1.36,3.25-1.99l19.66,10.41,16.01-10.69,18.59,10.89c.18.02.3-.03.44-.09.6-.26,1.62-1.08,2.23-1.45,3.06-1.86,6.11-3.78,9.12-5.68,1.93-1.21,3.78-2.48,5.73-3.67l18.53,10.79c.26.04.83-.28,1.06-.41.55-.3,1.05-.71,1.59-1.03,3.95-2.36,7.92-4.72,11.87-7.07,1.09-.65,2.13-1.36,3.25-1.99l19.66,10.41,15.28-10.2,16.51,9.83,17.77-10.03,18.67,10.71c.4.08.67-.14.98-.27l16.98-10.18,18.43,9.73"/>
        <g>
          <path class="cls-4" d="M980.57,96.01c-3.92.27-8.44-1.29-11.49-3.72-3.96-3.15-4.88-11.06-2.71-15.42,3.07-6.2,8.67-8.88,15.5-7.88,4.95.73,8.73,4.65,10.14,9.34,2.29,7.65-3.2,17.13-11.43,17.69Z"/>
          <path class="cls-4" d="M1007.82,89.35c-.22.04-.44-.17-.64-.24-3.89-2.28-8-4.21-11.88-6.49-.23-.13-.7-.35-.54-.66l11.54-7.29c4.63,2.33,9.18,4.82,13.77,7.22.28.15.34.39.06.58l-12.31,6.89Z"/>
          <path class="cls-4" d="M1003.75,66.94l-13.42,3.92c-.17.07-.35-.1-.35-.26l2.9-13.92,14.45-3.84.07.25-3.66,13.85Z"/>
          <path class="cls-4" d="M979.77,124.37c-.1.03-.22.02-.31-.04-2.36-4.13-4.63-8.34-6.91-12.52,2.14-4.56,4.47-9.05,6.66-13.6.31-.66.71.35.91.69,2.13,3.72,4.1,7.53,6.18,11.28l-5.45,11.98c-.22.27-.92,2.17-1.08,2.22Z"/>
          <path class="cls-4" d="M1008.01,111.74l-13.22-4.39-.29-.16-4.48-13.52c0-.38.31-.44.62-.35l12.94,3.52.3.16,4.38,14.45c-.01.14-.12.25-.24.31Z"/>
          <path class="cls-4" d="M949.5,112.19c-.32-.02-.48-.22-.36-.53,1.76-4.57,3.35-9.21,5.17-13.75l12.59-3.59c.29-.05.49-.05.49.3l-3.34,13.3c-4.83,1.5-9.71,2.84-14.55,4.27Z"/>
          <path class="cls-4" d="M967.85,71.63c-.12.12-1.3-.27-1.53-.34-4.17-1.23-8.28-2.7-12.45-3.91-.08-.03-.17-.07-.23-.13-.14-.14-.49-1.22-.59-1.51-1.4-3.9-2.63-7.86-4.07-11.74-.1-.26-.04-.5.27-.46l14.41,4.52c.12.11.16.28.21.43,1.45,4.14,2.51,8.44,3.96,12.59.04.11.07.52.04.55Z"/>
          <path class="cls-4" d="M978.85,66.77c-.16.05-.31.02-.39-.14l-6.65-12.6c.15-.43.34-.85.53-1.27,1.53-3.37,3.3-6.81,4.94-10.15.13-.26.68-1.48.86-1.52.1-.02.16.07.22.13l7.12,13.18c.1.18.16.39.05.58l-6.46,11.55c-.05.09-.12.2-.23.23Z"/>
          <path class="cls-4" d="M962.8,83.4l-11.65,6.12-13.15-5.83-.14-.23,12.12-7.81,12.76,7.26c.12.12.12.33.07.49Z"/>
        </g>
        <g>
          <path class="cls-4" d="M871.26,96.01c-3.92.27-8.44-1.29-11.49-3.72-3.96-3.15-4.88-11.06-2.71-15.42,3.07-6.2,8.67-8.88,15.5-7.88,4.95.73,8.73,4.65,10.14,9.34,2.29,7.65-3.2,17.13-11.43,17.69Z"/>
          <path class="cls-4" d="M898.51,89.35c-.22.04-.44-.17-.64-.24-3.89-2.28-8-4.21-11.88-6.49-.23-.13-.7-.35-.54-.66l11.54-7.29c4.63,2.33,9.18,4.82,13.77,7.22.28.15.34.39.06.58l-12.31,6.89Z"/>
          <path class="cls-4" d="M894.44,66.94l-13.42,3.92c-.17.07-.35-.1-.35-.26l2.9-13.92,14.45-3.84.07.25-3.66,13.85Z"/>
          <path class="cls-4" d="M870.46,124.37c-.1.03-.22.02-.31-.04-2.36-4.13-4.63-8.34-6.91-12.52,2.14-4.56,4.47-9.05,6.66-13.6.31-.66.71.35.91.69,2.13,3.72,4.1,7.53,6.18,11.28l-5.45,11.98c-.22.27-.92,2.17-1.08,2.22Z"/>
          <path class="cls-4" d="M898.7,111.74l-13.22-4.39-.29-.16-4.48-13.52c0-.38.31-.44.62-.35l12.94,3.52.3.16,4.38,14.45c-.01.14-.12.25-.24.31Z"/>
          <path class="cls-4" d="M840.19,112.19c-.32-.02-.48-.22-.36-.53,1.76-4.57,3.35-9.21,5.17-13.75l12.59-3.59c.29-.05.49-.05.49.3l-3.34,13.3c-4.83,1.5-9.71,2.84-14.55,4.27Z"/>
          <path class="cls-4" d="M858.54,71.63c-.12.12-1.3-.27-1.53-.34-4.17-1.23-8.28-2.7-12.45-3.91-.08-.03-.17-.07-.23-.13-.14-.14-.49-1.22-.59-1.51-1.4-3.9-2.63-7.86-4.07-11.74-.1-.26-.04-.5.27-.46l14.41,4.52c.12.11.16.28.21.43,1.45,4.14,2.51,8.44,3.96,12.59.04.11.07.52.04.55Z"/>
          <path class="cls-4" d="M869.54,66.77c-.16.05-.31.02-.39-.14l-6.65-12.6c.15-.43.34-.85.53-1.27,1.53-3.37,3.3-6.81,4.94-10.15.13-.26.68-1.48.86-1.52.1-.02.16.07.22.13l7.12,13.18c.1.18.16.39.05.58l-6.46,11.55c-.05.09-.12.2-.23.23Z"/>
          <path class="cls-4" d="M853.49,83.4l-11.65,6.12-13.15-5.83-.14-.23,12.12-7.81,12.76,7.26c.12.12.12.33.07.49Z"/>
        </g>
        <g>
          <path class="cls-4" d="M763.08,96.01c-3.92.27-8.44-1.29-11.49-3.72-3.96-3.15-4.88-11.06-2.71-15.42,3.07-6.2,8.67-8.88,15.5-7.88,4.95.73,8.73,4.65,10.14,9.34,2.29,7.65-3.2,17.13-11.43,17.69Z"/>
          <path class="cls-4" d="M790.33,89.35c-.22.04-.44-.17-.64-.24-3.89-2.28-8-4.21-11.88-6.49-.23-.13-.7-.35-.54-.66l11.54-7.29c4.63,2.33,9.18,4.82,13.77,7.22.28.15.34.39.06.58l-12.31,6.89Z"/>
          <path class="cls-4" d="M786.26,66.94l-13.42,3.92c-.17.07-.35-.1-.35-.26l2.9-13.92,14.45-3.84.07.25-3.66,13.85Z"/>
          <path class="cls-4" d="M762.27,124.37c-.1.03-.22.02-.31-.04-2.36-4.13-4.63-8.34-6.91-12.52,2.14-4.56,4.47-9.05,6.66-13.6.31-.66.71.35.91.69,2.13,3.72,4.1,7.53,6.18,11.28l-5.45,11.98c-.22.27-.92,2.17-1.08,2.22Z"/>
          <path class="cls-4" d="M790.52,111.74l-13.22-4.39-.29-.16-4.48-13.52c0-.38.31-.44.62-.35l12.94,3.52.3.16,4.38,14.45c-.01.14-.12.25-.24.31Z"/>
          <path class="cls-4" d="M732.01,112.19c-.32-.02-.48-.22-.36-.53,1.76-4.57,3.35-9.21,5.17-13.75l12.59-3.59c.29-.05.49-.05.49.3l-3.34,13.3c-4.83,1.5-9.71,2.84-14.55,4.27Z"/>
          <path class="cls-4" d="M750.35,71.63c-.12.12-1.3-.27-1.53-.34-4.17-1.23-8.28-2.7-12.45-3.91-.08-.03-.17-.07-.23-.13-.14-.14-.49-1.22-.59-1.51-1.4-3.9-2.63-7.86-4.07-11.74-.1-.26-.04-.5.27-.46l14.41,4.52c.12.11.16.28.21.43,1.45,4.14,2.51,8.44,3.96,12.59.04.11.07.52.04.55Z"/>
          <path class="cls-4" d="M761.35,66.77c-.16.05-.31.02-.39-.14l-6.65-12.6c.15-.43.34-.85.53-1.27,1.53-3.37,3.3-6.81,4.94-10.15.13-.26.68-1.48.86-1.52.1-.02.16.07.22.13l7.12,13.18c.1.18.16.39.05.58l-6.46,11.55c-.05.09-.12.2-.23.23Z"/>
          <path class="cls-4" d="M745.31,83.4l-11.65,6.12-13.15-5.83-.14-.23,12.12-7.81,12.76,7.26c.12.12.12.33.07.49Z"/>
        </g>
        <g>
          <path class="cls-4" d="M654.89,96.01c-3.92.27-8.44-1.29-11.49-3.72-3.96-3.15-4.88-11.06-2.71-15.42,3.07-6.2,8.67-8.88,15.5-7.88,4.95.73,8.73,4.65,10.14,9.34,2.29,7.65-3.2,17.13-11.43,17.69Z"/>
          <path class="cls-4" d="M682.14,89.35c-.22.04-.44-.17-.64-.24-3.89-2.28-8-4.21-11.88-6.49-.23-.13-.7-.35-.54-.66l11.54-7.29c4.63,2.33,9.18,4.82,13.77,7.22.28.15.34.39.06.58l-12.31,6.89Z"/>
          <path class="cls-4" d="M678.07,66.94l-13.42,3.92c-.17.07-.35-.1-.35-.26l2.9-13.92,14.45-3.84.07.25-3.66,13.85Z"/>
          <path class="cls-4" d="M654.09,124.37c-.1.03-.22.02-.31-.04-2.36-4.13-4.63-8.34-6.91-12.52,2.14-4.56,4.47-9.05,6.66-13.6.31-.66.71.35.91.69,2.13,3.72,4.1,7.53,6.18,11.28l-5.45,11.98c-.22.27-.92,2.17-1.08,2.22Z"/>
          <path class="cls-4" d="M682.33,111.74l-13.22-4.39-.29-.16-4.48-13.52c0-.38.31-.44.62-.35l12.94,3.52.3.16,4.38,14.45c-.01.14-.12.25-.24.31Z"/>
          <path class="cls-4" d="M623.82,112.19c-.32-.02-.48-.22-.36-.53,1.76-4.57,3.35-9.21,5.17-13.75l12.59-3.59c.29-.05.49-.05.49.3l-3.34,13.3c-4.83,1.5-9.71,2.84-14.55,4.27Z"/>
          <path class="cls-4" d="M642.17,71.63c-.12.12-1.3-.27-1.53-.34-4.17-1.23-8.28-2.7-12.45-3.91-.08-.03-.17-.07-.23-.13-.14-.14-.49-1.22-.59-1.51-1.4-3.9-2.63-7.86-4.07-11.74-.1-.26-.04-.5.27-.46l14.41,4.52c.12.11.16.28.21.43,1.45,4.14,2.51,8.44,3.96,12.59.04.11.07.52.04.55Z"/>
          <path class="cls-4" d="M653.17,66.77c-.16.05-.31.02-.39-.14l-6.65-12.6c.15-.43.34-.85.53-1.27,1.53-3.37,3.3-6.81,4.94-10.15.13-.26.68-1.48.86-1.52.1-.02.16.07.22.13l7.12,13.18c.1.18.16.39.05.58l-6.46,11.55c-.05.09-.12.2-.23.23Z"/>
          <path class="cls-4" d="M637.12,83.4l-11.65,6.12-13.15-5.83-.14-.23,12.12-7.81,12.76,7.26c.12.12.12.33.07.49Z"/>
        </g>
        <path class="cls-3" d="M1083.45,15.43l-18.58-10.79c-.26-.04-.83.28-1.07.41-.55.3-1.05.71-1.59,1.03-3.96,2.36-7.94,4.72-11.9,7.07-1.1.65-2.14,1.36-3.26,1.99l-19.71-10.41-15.32,10.2-16.56-9.83-17.82,10.03-18.31-10.31c-.4-.08-.68.14-.98.27l-17.56,9.59-18.36-9.73c-.28-.14-.66-.22-.94-.06-5.59,3.56-11.08,7.17-16.62,10.75l-17.77-10.55-17.82,10.03-18.31-10.31c-.4-.08-.68.14-.98.27l-17.56,9.59-18.36-9.73c-.28-.14-.66-.22-.94-.06-5.62,3.57-11.13,7.2-16.69,10.8l-18.67-10.92c-.19-.02-.3.03-.44.09-.6.26-1.62,1.08-2.24,1.45-3.07,1.86-6.12,3.78-9.15,5.68-1.93,1.21-3.79,2.48-5.75,3.67l-18.58-10.79c-.26-.04-.83.28-1.07.41-.55.3-1.05.71-1.59,1.03-3.96,2.36-7.94,4.72-11.9,7.07-1.1.65-2.14,1.36-3.26,1.99l-19.71-10.41-16.05,10.69-18.63-10.89c-.19-.02-.3.03-.44.09-.6.26-1.62,1.08-2.24,1.45-3.07,1.86-6.12,3.78-9.15,5.68-1.93,1.21-3.79,2.48-5.75,3.67l-18.58-10.79c-.26-.04-.83.28-1.07.41-.55.3-1.05.71-1.59,1.03-3.96,2.36-7.94,4.72-11.9,7.07-1.1.65-2.14,1.36-3.26,1.99l-19.71-10.41-15.32,10.2-16.56-9.83-17.82,10.03c-.98-.53-1.97-1.07-2.95-1.6-2.17-1.18-4.34-2.35-6.51-3.53-2.19-1.19-4.38-2.38-6.58-3.57-.97-.53-1.94-1.05-2.91-1.58-.07-.04-.15-.08-.23-.11-.21-.07-.48-.07-.7,0-.47.13-.87.5-1.23.73-.47.3-.93.59-1.39.89-.93.6-1.85,1.19-2.78,1.79"/>
        <path class="cls-3" d="M518.59,23.91l1.04.6.19.11.51.3.76.44.93.55,1.04.61,1.06.62,1.02.6.9.53.71.42c.18.1.35.21.53.31.01,0,.02.01.03.02.09.03.2,0,.28-.03.28-.08.65-.32.82-.42.56-.33,1.07-.67,1.6-.99,3.96-2.36,7.94-4.72,11.9-7.07,1.1-.65,2.14-1.36,3.26-1.99l19.71,10.41,15.32-10.2,16.56,9.83,17.82-10.03,18.31,10.31c.4.08.68-.14.98-.27l17.56-9.59,18.36,9.73c.28.14.66.22.94.06,5.59-3.56,11.08-7.17,16.62-10.75l17.77,10.55,17.82-10.03,18.31,10.31c.4.08.68-.14.98-.27l17.56-9.59,18.36,9.73c.28.14.66.22.94.06,5.62-3.57,11.13-7.2,16.69-10.8l18.67,10.92c.19.02.3-.03.44-.09.6-.26,1.62-1.08,2.24-1.45,3.07-1.86,6.12-3.78,9.15-5.68,1.93-1.21,3.79-2.48,5.75-3.67l18.58,10.79c.26.04.83-.28,1.07-.41.55-.3,1.05-.71,1.59-1.03,3.96-2.36,7.94-4.72,11.9-7.07,1.1-.65,2.14-1.36,3.26-1.99l19.71,10.41,16.05-10.69,18.63,10.89c.19.02.3-.03.44-.09.6-.26,1.62-1.08,2.24-1.45,3.07-1.86,6.12-3.78,9.15-5.68,1.93-1.21,3.79-2.48,5.75-3.67l18.58,10.79c.26.04.83-.28,1.07-.41.55-.3,1.05-.71,1.59-1.03,3.96-2.36,7.94-4.72,11.9-7.07,1.1-.65,2.14-1.36,3.26-1.99l19.71,10.41,15.32-10.2,16.56,9.83,17.82-10.03,18.31,10.31c.4.08.68-.14.98-.27l17.56-9.59"/>
      </g>
      <g>
        <g>
          <path class="cls-4" d="M1622.63,96.01c-3.92.27-8.44-1.29-11.49-3.72-3.96-3.15-4.88-11.06-2.71-15.42,3.07-6.2,8.67-8.88,15.5-7.88,4.95.73,8.73,4.65,10.14,9.34,2.29,7.65-3.2,17.13-11.43,17.69Z"/>
          <path class="cls-4" d="M1649.87,89.35c-.22.04-.44-.17-.64-.24-3.89-2.28-8-4.21-11.88-6.49-.23-.13-.7-.35-.54-.66l11.54-7.29c4.63,2.33,9.18,4.82,13.77,7.22.28.15.34.39.06.58l-12.31,6.89Z"/>
          <path class="cls-4" d="M1645.81,66.94l-13.42,3.92c-.17.07-.35-.1-.35-.26l2.9-13.92,14.45-3.84.07.25-3.66,13.85Z"/>
          <path class="cls-4" d="M1621.82,124.37c-.1.03-.22.02-.31-.04-2.36-4.13-4.63-8.34-6.91-12.52,2.14-4.56,4.47-9.05,6.66-13.6.31-.66.71.35.91.69,2.13,3.72,4.1,7.53,6.18,11.28l-5.45,11.98c-.22.27-.92,2.17-1.08,2.22Z"/>
          <path class="cls-4" d="M1650.07,111.74l-13.22-4.39-.29-.16-4.48-13.52c0-.38.31-.44.62-.35l12.94,3.52.3.16,4.38,14.45c-.01.14-.12.25-.24.31Z"/>
          <path class="cls-4" d="M1591.55,112.19c-.32-.02-.48-.22-.36-.53,1.76-4.57,3.35-9.21,5.17-13.75l12.59-3.59c.29-.05.49-.05.49.3l-3.34,13.3c-4.83,1.5-9.71,2.84-14.55,4.27Z"/>
          <path class="cls-4" d="M1609.9,71.63c-.12.12-1.3-.27-1.53-.34-4.17-1.23-8.28-2.7-12.45-3.91-.08-.03-.17-.07-.23-.13-.14-.14-.49-1.22-.59-1.51-1.4-3.9-2.63-7.86-4.07-11.74-.1-.26-.04-.5.27-.46l14.41,4.52c.12.11.16.28.21.43,1.45,4.14,2.51,8.44,3.96,12.59.04.11.07.52.04.55Z"/>
          <path class="cls-4" d="M1620.9,66.77c-.16.05-.31.02-.39-.14l-6.65-12.6c.15-.43.34-.85.53-1.27,1.53-3.37,3.3-6.81,4.94-10.15.13-.26.68-1.48.86-1.52.1-.02.16.07.22.13l7.12,13.18c.1.18.16.39.05.58l-6.46,11.55c-.05.09-.12.2-.23.23Z"/>
          <path class="cls-4" d="M1604.85,83.4l-11.65,6.12-13.15-5.83-.14-.23,12.12-7.81,12.76,7.26c.12.12.12.33.07.49Z"/>
        </g>
        <g>
          <path class="cls-4" d="M1518.19,96.01c-3.92.27-8.44-1.29-11.49-3.72-3.96-3.15-4.88-11.06-2.71-15.42,3.07-6.2,8.67-8.88,15.5-7.88,4.95.73,8.73,4.65,10.14,9.34,2.29,7.65-3.2,17.13-11.43,17.69Z"/>
          <path class="cls-4" d="M1545.43,89.35c-.22.04-.44-.17-.64-.24-3.89-2.28-8-4.21-11.88-6.49-.23-.13-.7-.35-.54-.66l11.54-7.29c4.63,2.33,9.18,4.82,13.77,7.22.28.15.34.39.06.58l-12.31,6.89Z"/>
          <path class="cls-4" d="M1541.37,66.94l-13.42,3.92c-.17.07-.35-.1-.35-.26l2.9-13.92,14.45-3.84.07.25-3.66,13.85Z"/>
          <path class="cls-4" d="M1517.38,124.37c-.1.03-.22.02-.31-.04-2.36-4.13-4.63-8.34-6.91-12.52,2.14-4.56,4.47-9.05,6.66-13.6.31-.66.71.35.91.69,2.13,3.72,4.1,7.53,6.18,11.28l-5.45,11.98c-.22.27-.92,2.17-1.08,2.22Z"/>
          <path class="cls-4" d="M1545.62,111.74l-13.22-4.39-.29-.16-4.48-13.52c0-.38.31-.44.62-.35l12.94,3.52.3.16,4.38,14.45c-.01.14-.12.25-.24.31Z"/>
          <path class="cls-4" d="M1487.11,112.19c-.32-.02-.48-.22-.36-.53,1.76-4.57,3.35-9.21,5.17-13.75l12.59-3.59c.29-.05.49-.05.49.3l-3.34,13.3c-4.83,1.5-9.71,2.84-14.55,4.27Z"/>
          <path class="cls-4" d="M1505.46,71.63c-.12.12-1.3-.27-1.53-.34-4.17-1.23-8.28-2.7-12.45-3.91-.08-.03-.17-.07-.23-.13-.14-.14-.49-1.22-.59-1.51-1.4-3.9-2.63-7.86-4.07-11.74-.1-.26-.04-.5.27-.46l14.41,4.52c.12.11.16.28.21.43,1.45,4.14,2.51,8.44,3.96,12.59.04.11.07.52.04.55Z"/>
          <path class="cls-4" d="M1516.46,66.77c-.16.05-.31.02-.39-.14l-6.65-12.6c.15-.43.34-.85.53-1.27,1.53-3.37,3.3-6.81,4.94-10.15.13-.26.68-1.48.86-1.52.1-.02.16.07.22.13l7.12,13.18c.1.18.16.39.05.58l-6.46,11.55c-.05.09-.12.2-.23.23Z"/>
          <path class="cls-4" d="M1500.41,83.4l-11.65,6.12-13.15-5.83-.14-.23,12.12-7.81,12.76,7.26c.12.12.12.33.07.49Z"/>
        </g>
        <g>
          <path class="cls-4" d="M1408.88,96.01c-3.92.27-8.44-1.29-11.49-3.72-3.96-3.15-4.88-11.06-2.71-15.42,3.07-6.2,8.67-8.88,15.5-7.88,4.95.73,8.73,4.65,10.14,9.34,2.29,7.65-3.2,17.13-11.43,17.69Z"/>
          <path class="cls-4" d="M1436.12,89.35c-.22.04-.44-.17-.64-.24-3.89-2.28-8-4.21-11.88-6.49-.23-.13-.7-.35-.54-.66l11.54-7.29c4.63,2.33,9.18,4.82,13.77,7.22.28.15.34.39.06.58l-12.31,6.89Z"/>
          <path class="cls-4" d="M1432.06,66.94l-13.42,3.92c-.17.07-.35-.1-.35-.26l2.9-13.92,14.45-3.84.07.25-3.66,13.85Z"/>
          <path class="cls-4" d="M1408.07,124.37c-.1.03-.22.02-.31-.04-2.36-4.13-4.63-8.34-6.91-12.52,2.14-4.56,4.47-9.05,6.66-13.6.31-.66.71.35.91.69,2.13,3.72,4.1,7.53,6.18,11.28l-5.45,11.98c-.22.27-.92,2.17-1.08,2.22Z"/>
          <path class="cls-4" d="M1436.32,111.74l-13.22-4.39-.29-.16-4.48-13.52c0-.38.31-.44.62-.35l12.94,3.52.3.16,4.38,14.45c-.01.14-.12.25-.24.31Z"/>
          <path class="cls-4" d="M1377.8,112.19c-.32-.02-.48-.22-.36-.53,1.76-4.57,3.35-9.21,5.17-13.75l12.59-3.59c.29-.05.49-.05.49.3l-3.34,13.3c-4.83,1.5-9.71,2.84-14.55,4.27Z"/>
          <path class="cls-4" d="M1396.15,71.63c-.12.12-1.3-.27-1.53-.34-4.17-1.23-8.28-2.7-12.45-3.91-.08-.03-.17-.07-.23-.13-.14-.14-.49-1.22-.59-1.51-1.4-3.9-2.63-7.86-4.07-11.74-.1-.26-.04-.5.27-.46l14.41,4.52c.12.11.16.28.21.43,1.45,4.14,2.51,8.44,3.96,12.59.04.11.07.52.04.55Z"/>
          <path class="cls-4" d="M1407.15,66.77c-.16.05-.31.02-.39-.14l-6.65-12.6c.15-.43.34-.85.53-1.27,1.53-3.37,3.3-6.81,4.94-10.15.13-.26.68-1.48.86-1.52.1-.02.16.07.22.13l7.12,13.18c.1.18.16.39.05.58l-6.46,11.55c-.05.09-.12.2-.23.23Z"/>
          <path class="cls-4" d="M1391.1,83.4l-11.65,6.12-13.15-5.83-.14-.23,12.12-7.81,12.76,7.26c.12.12.12.33.07.49Z"/>
        </g>
        <g>
          <path class="cls-4" d="M1300.69,96.01c-3.92.27-8.44-1.29-11.49-3.72-3.96-3.15-4.88-11.06-2.71-15.42,3.07-6.2,8.67-8.88,15.5-7.88,4.95.73,8.73,4.65,10.14,9.34,2.29,7.65-3.2,17.13-11.43,17.69Z"/>
          <path class="cls-4" d="M1327.94,89.35c-.22.04-.44-.17-.64-.24-3.89-2.28-8-4.21-11.88-6.49-.23-.13-.7-.35-.54-.66l11.54-7.29c4.63,2.33,9.18,4.82,13.77,7.22.28.15.34.39.06.58l-12.31,6.89Z"/>
          <path class="cls-4" d="M1323.87,66.94l-13.42,3.92c-.17.07-.35-.1-.35-.26l2.9-13.92,14.45-3.84.07.25-3.66,13.85Z"/>
          <path class="cls-4" d="M1299.89,124.37c-.1.03-.22.02-.31-.04-2.36-4.13-4.63-8.34-6.91-12.52,2.14-4.56,4.47-9.05,6.66-13.6.31-.66.71.35.91.69,2.13,3.72,4.1,7.53,6.18,11.28l-5.45,11.98c-.22.27-.92,2.17-1.08,2.22Z"/>
          <path class="cls-4" d="M1328.13,111.74l-13.22-4.39-.29-.16-4.48-13.52c0-.38.31-.44.62-.35l12.94,3.52.3.16,4.38,14.45c-.01.14-.12.25-.24.31Z"/>
          <path class="cls-4" d="M1269.62,112.19c-.32-.02-.48-.22-.36-.53,1.76-4.57,3.35-9.21,5.17-13.75l12.59-3.59c.29-.05.49-.05.49.3l-3.34,13.3c-4.83,1.5-9.71,2.84-14.55,4.27Z"/>
          <path class="cls-4" d="M1287.97,71.63c-.12.12-1.3-.27-1.53-.34-4.17-1.23-8.28-2.7-12.45-3.91-.08-.03-.17-.07-.23-.13-.14-.14-.49-1.22-.59-1.51-1.4-3.9-2.63-7.86-4.07-11.74-.1-.26-.04-.5.27-.46l14.41,4.52c.12.11.16.28.21.43,1.45,4.14,2.51,8.44,3.96,12.59.04.11.07.52.04.55Z"/>
          <path class="cls-4" d="M1298.96,66.77c-.16.05-.31.02-.39-.14l-6.65-12.6c.15-.43.34-.85.53-1.27,1.53-3.37,3.3-6.81,4.94-10.15.13-.26.68-1.48.86-1.52.1-.02.16.07.22.13l7.12,13.18c.1.18.16.39.05.58l-6.46,11.55c-.05.09-.12.2-.23.23Z"/>
          <path class="cls-4" d="M1282.92,83.4l-11.65,6.12-13.15-5.83-.14-.23,12.12-7.81,12.76,7.26c.12.12.12.33.07.49Z"/>
        </g>
        <g>
          <path class="cls-4" d="M1192.51,96.01c-3.92.27-8.44-1.29-11.49-3.72-3.96-3.15-4.88-11.06-2.71-15.42,3.07-6.2,8.67-8.88,15.5-7.88,4.95.73,8.73,4.65,10.14,9.34,2.29,7.65-3.2,17.13-11.43,17.69Z"/>
          <path class="cls-4" d="M1219.75,89.35c-.22.04-.44-.17-.64-.24-3.89-2.28-8-4.21-11.88-6.49-.23-.13-.7-.35-.54-.66l11.54-7.29c4.63,2.33,9.18,4.82,13.77,7.22.28.15.34.39.06.58l-12.31,6.89Z"/>
          <path class="cls-4" d="M1215.69,66.94l-13.42,3.92c-.17.07-.35-.1-.35-.26l2.9-13.92,14.45-3.84.07.25-3.66,13.85Z"/>
          <path class="cls-4" d="M1191.7,124.37c-.1.03-.22.02-.31-.04-2.36-4.13-4.63-8.34-6.91-12.52,2.14-4.56,4.47-9.05,6.66-13.6.31-.66.71.35.91.69,2.13,3.72,4.1,7.53,6.18,11.28l-5.45,11.98c-.22.27-.92,2.17-1.08,2.22Z"/>
          <path class="cls-4" d="M1219.95,111.74l-13.22-4.39-.29-.16-4.48-13.52c0-.38.31-.44.62-.35l12.94,3.52.3.16,4.38,14.45c-.01.14-.12.25-.24.31Z"/>
          <path class="cls-4" d="M1161.43,112.19c-.32-.02-.48-.22-.36-.53,1.76-4.57,3.35-9.21,5.17-13.75l12.59-3.59c.29-.05.49-.05.49.3l-3.34,13.3c-4.83,1.5-9.71,2.84-14.55,4.27Z"/>
          <path class="cls-4" d="M1179.78,71.63c-.12.12-1.3-.27-1.53-.34-4.17-1.23-8.28-2.7-12.45-3.91-.08-.03-.17-.07-.23-.13-.14-.14-.49-1.22-.59-1.51-1.4-3.9-2.63-7.86-4.07-11.74-.1-.26-.04-.5.27-.46l14.41,4.52c.12.11.16.28.21.43,1.45,4.14,2.51,8.44,3.96,12.59.04.11.07.52.04.55Z"/>
          <path class="cls-4" d="M1190.78,66.77c-.16.05-.31.02-.39-.14l-6.65-12.6c.15-.43.34-.85.53-1.27,1.53-3.37,3.3-6.81,4.94-10.15.13-.26.68-1.48.86-1.52.1-.02.16.07.22.13l7.12,13.18c.1.18.16.39.05.58l-6.46,11.55c-.05.09-.12.2-.23.23Z"/>
          <path class="cls-4" d="M1174.73,83.4l-11.65,6.12-13.15-5.83-.14-.23,12.12-7.81,12.76,7.26c.12.12.12.33.07.49Z"/>
        </g>
        <g>
          <path class="cls-4" d="M1086.57,96.01c-3.92.27-8.44-1.29-11.49-3.72-3.96-3.15-4.88-11.06-2.71-15.42,3.07-6.2,8.67-8.88,15.5-7.88,4.95.73,8.73,4.65,10.14,9.34,2.29,7.65-3.2,17.13-11.43,17.69Z"/>
          <path class="cls-4" d="M1113.81,89.35c-.22.04-.44-.17-.64-.24-3.89-2.28-8-4.21-11.88-6.49-.23-.13-.7-.35-.54-.66l11.54-7.29c4.63,2.33,9.18,4.82,13.77,7.22.28.15.34.39.06.58l-12.31,6.89Z"/>
          <path class="cls-4" d="M1109.75,66.94l-13.42,3.92c-.17.07-.35-.1-.35-.26l2.9-13.92,14.45-3.84.07.25-3.66,13.85Z"/>
          <path class="cls-4" d="M1085.76,124.37c-.1.03-.22.02-.31-.04-2.36-4.13-4.63-8.34-6.91-12.52,2.14-4.56,4.47-9.05,6.66-13.6.31-.66.71.35.91.69,2.13,3.72,4.1,7.53,6.18,11.28l-5.45,11.98c-.22.27-.92,2.17-1.08,2.22Z"/>
          <path class="cls-4" d="M1114.01,111.74l-13.22-4.39-.29-.16-4.48-13.52c0-.38.31-.44.62-.35l12.94,3.52.3.16,4.38,14.45c-.01.14-.12.25-.24.31Z"/>
          <path class="cls-4" d="M1055.49,112.19c-.32-.02-.48-.22-.36-.53,1.76-4.57,3.35-9.21,5.17-13.75l12.59-3.59c.29-.05.49-.05.49.3l-3.34,13.3c-4.83,1.5-9.71,2.84-14.55,4.27Z"/>
          <path class="cls-4" d="M1073.84,71.63c-.12.12-1.3-.27-1.53-.34-4.17-1.23-8.28-2.7-12.45-3.91-.08-.03-.17-.07-.23-.13-.14-.14-.49-1.22-.59-1.51-1.4-3.9-2.63-7.86-4.07-11.74-.1-.26-.04-.5.27-.46l14.41,4.52c.12.11.16.28.21.43,1.45,4.14,2.51,8.44,3.96,12.59.04.11.07.52.04.55Z"/>
          <path class="cls-4" d="M1084.84,66.77c-.16.05-.31.02-.39-.14l-6.65-12.6c.15-.43.34-.85.53-1.27,1.53-3.37,3.3-6.81,4.94-10.15.13-.26.68-1.48.86-1.52.1-.02.16.07.22.13l7.12,13.18c.1.18.16.39.05.58l-6.46,11.55c-.05.09-.12.2-.23.23Z"/>
          <path class="cls-4" d="M1068.8,83.4l-11.65,6.12-13.15-5.83-.14-.23,12.12-7.81,12.76,7.26c.12.12.12.33.07.49Z"/>
        </g>
        <path class="cls-2" d="M1067.27,27.31c3.95-2.36,8.17-4.42,12.25-6.69,1.11-.62,2.28-1.26,3.4-1.89l19.43,10.19,15.28-10.2,16.51,9.83,17.77-10.03,18.26,10.31c.4.08.67-.14.98-.27l17.51-9.59,18.31,9.73c.28.14.66.22.94.06,5.58-3.56,11.05-7.17,16.57-10.75l17.72,10.55,17.77-10.03,18.26,10.31c.4.08.67-.14.98-.27l17.51-9.59,18.31,9.73c.28.14.66.22.94.06,5.6-3.57,11.1-7.2,16.65-10.8l18.62,10.92c.18.02.29-.03.44-.09.6-.26,1.62-1.08,2.23-1.45,3.06-1.86,6.11-3.78,9.12-5.68,1.93-1.21,3.78-2.48,5.73-3.67l18.53,10.79c.26.04.83-.28,1.06-.41.55-.3,1.05-.71,1.59-1.03,3.95-2.36,7.92-4.72,11.87-7.07,1.09-.65,2.13-1.36,3.25-1.99l19.66,10.41,16.01-10.69,18.59,10.89c.18.02.3-.03.44-.09.6-.26,1.62-1.08,2.23-1.45,3.06-1.86,6.11-3.78,9.12-5.68,1.93-1.21,3.78-2.48,5.73-3.67l18.53,10.79c.26.04.83-.28,1.06-.41.55-.3,1.05-.71,1.59-1.03,3.95-2.36,7.92-4.72,11.87-7.07,1.09-.65,2.13-1.36,3.25-1.99l19.66,10.41,15.28-10.2,16.51,9.83,17.77-10.03,18.67,10.71c.4.08.67-.14.98-.27l16.98-10.18,18.43,9.73"/>
        <path class="cls-2" d="M1634.64,7.1c-3.06,1.86-6.03,3.35-9.12,5.13-2.02,1.17-3.68,1.98-5.64,3.17l-19.37-10.47c-.26-.04-.83.28-1.06.41-.55.3-1.05.71-1.59,1.03-3.95,2.36-7.41,4.43-11.36,6.78-1.09.65-2.13,1.36-3.25,1.99l-19.66-10.41-15.28,10.2-16.51-9.83-17.77,10.03-18.26-10.31c-.4-.08-.67.14-.98.27l-17.51,9.59-18.31-9.73c-.28-.14-.66-.22-.94-.06-5.58,3.56-11.05,7.17-16.57,10.75l-17.72-10.55-17.77,10.03-18.26-10.31c-.4-.08-.67.14-.98.27l-17.51,9.59-18.31-9.73c-.28-.14-.66-.22-.94-.06-5.6,3.57-11.1,7.2-16.65,10.8l-18.62-10.92c-.18-.02-.29.03-.44.09-.6.26-1.62,1.08-2.23,1.45-3.06,1.86-6.11,3.78-9.12,5.68-1.93,1.21-3.78,2.48-5.73,3.67l-18.53-10.79c-.26-.04-.83.28-1.06.41-.55.3-1.05.71-1.59,1.03-3.95,2.36-7.92,4.72-11.87,7.07-1.09.65-2.13,1.36-3.25,1.99l-19.66-10.41-16.01,10.69-18.59-10.89c-.18-.02-.3.03-.44.09-.6.26-1.62,1.08-2.23,1.45-3.06,1.86-6.11,3.78-9.12,5.68-1.93,1.21-3.78,2.48-5.73,3.67l-18.53-10.79c-.26-.04-.83.28-1.06.41-.55.3-1.05.71-1.59,1.03-3.95,2.36-7.92,4.72-11.87,7.07-1.09.65-2.13,1.36-3.25,1.99l-19.66-10.41-15.28,10.2-16.51-9.83-17.88,10.06c-.98-.53-1.85-1.1-2.83-1.63-2.16-1.18-4.11-2.48-6.27-3.66s-4.59-2.75-6.78-3.94"/>
        <g>
          <path class="cls-4" d="M1945.11,96.01c-3.92.27-8.44-1.29-11.49-3.72-3.96-3.15-4.88-11.06-2.71-15.42,3.07-6.2,8.67-8.88,15.5-7.88,4.95.73,8.73,4.65,10.14,9.34,2.29,7.65-3.2,17.13-11.43,17.69Z"/>
          <path class="cls-4" d="M1944.3,124.37c-.1.03-.22.02-.31-.04-2.36-4.13-4.63-8.34-6.91-12.52,2.14-4.56,4.47-9.05,6.66-13.6.31-.66.71.35.91.69,2.13,3.72,4.1,7.53,6.18,11.28l-5.45,11.98c-.22.27-.92,2.17-1.08,2.22Z"/>
          <path class="cls-4" d="M1914.03,112.19c-.32-.02-.48-.22-.36-.53,1.76-4.57,3.35-9.21,5.17-13.75l12.59-3.59c.29-.05.49-.05.49.3l-3.34,13.3c-4.83,1.5-9.71,2.84-14.55,4.27Z"/>
          <path class="cls-4" d="M1932.38,71.63c-.12.12-1.3-.27-1.53-.34-4.17-1.23-8.28-2.7-12.45-3.91-.08-.03-.17-.07-.23-.13-.14-.14-.49-1.22-.59-1.51-1.4-3.9-2.63-7.86-4.07-11.74-.1-.26-.04-.5.27-.46l14.41,4.52c.12.11.16.28.21.43,1.45,4.14,2.51,8.44,3.96,12.59.04.11.07.52.04.55Z"/>
          <path class="cls-4" d="M1943.38,66.77c-.16.05-.31.02-.39-.14l-6.65-12.6c.15-.43.34-.85.53-1.27,1.53-3.37,3.3-6.81,4.94-10.15.13-.26.68-1.48.86-1.52.1-.02.16.07.22.13l7.12,13.18c.1.18.16.39.05.58l-6.46,11.55c-.05.09-.12.2-.23.23Z"/>
          <path class="cls-4" d="M1927.33,83.4l-11.65,6.12-13.15-5.83-.14-.23,12.12-7.81,12.76,7.26c.12.12.12.33.07.49Z"/>
        </g>
        <g>
          <path class="cls-4" d="M1836.92,96.01c-3.92.27-8.44-1.29-11.49-3.72-3.96-3.15-4.88-11.06-2.71-15.42,3.07-6.2,8.67-8.88,15.5-7.88,4.95.73,8.73,4.65,10.14,9.34,2.29,7.65-3.2,17.13-11.43,17.69Z"/>
          <path class="cls-4" d="M1864.17,89.35c-.22.04-.44-.17-.64-.24-3.89-2.28-8-4.21-11.88-6.49-.23-.13-.7-.35-.54-.66l11.54-7.29c4.63,2.33,9.18,4.82,13.77,7.22.28.15.34.39.06.58l-12.31,6.89Z"/>
          <path class="cls-4" d="M1860.1,66.94l-13.42,3.92c-.17.07-.35-.1-.35-.26l2.9-13.92,14.45-3.84.07.25-3.66,13.85Z"/>
          <path class="cls-4" d="M1836.11,124.37c-.1.03-.22.02-.31-.04-2.36-4.13-4.63-8.34-6.91-12.52,2.14-4.56,4.47-9.05,6.66-13.6.31-.66.71.35.91.69,2.13,3.72,4.1,7.53,6.18,11.28l-5.45,11.98c-.22.27-.92,2.17-1.08,2.22Z"/>
          <path class="cls-4" d="M1864.36,111.74l-13.22-4.39-.29-.16-4.48-13.52c0-.38.31-.44.62-.35l12.94,3.52.3.16,4.38,14.45c-.01.14-.12.25-.24.31Z"/>
          <path class="cls-4" d="M1805.85,112.19c-.32-.02-.48-.22-.36-.53,1.76-4.57,3.35-9.21,5.17-13.75l12.59-3.59c.29-.05.49-.05.49.3l-3.34,13.3c-4.83,1.5-9.71,2.84-14.55,4.27Z"/>
          <path class="cls-4" d="M1824.19,71.63c-.12.12-1.3-.27-1.53-.34-4.17-1.23-8.28-2.7-12.45-3.91-.08-.03-.17-.07-.23-.13-.14-.14-.49-1.22-.59-1.51-1.4-3.9-2.63-7.86-4.07-11.74-.1-.26-.04-.5.27-.46l14.41,4.52c.12.11.16.28.21.43,1.45,4.14,2.51,8.44,3.96,12.59.04.11.07.52.04.55Z"/>
          <path class="cls-4" d="M1835.19,66.77c-.16.05-.31.02-.39-.14l-6.65-12.6c.15-.43.34-.85.53-1.27,1.53-3.37,3.3-6.81,4.94-10.15.13-.26.68-1.48.86-1.52.1-.02.16.07.22.13l7.12,13.18c.1.18.16.39.05.58l-6.46,11.55c-.05.09-.12.2-.23.23Z"/>
          <path class="cls-4" d="M1819.15,83.4l-11.65,6.12-13.15-5.83-.14-.23,12.12-7.81,12.76,7.26c.12.12.12.33.07.49Z"/>
        </g>
        <g>
          <path class="cls-4" d="M1728.74,96.01c-3.92.27-8.44-1.29-11.49-3.72-3.96-3.15-4.88-11.06-2.71-15.42,3.07-6.2,8.67-8.88,15.5-7.88,4.95.73,8.73,4.65,10.14,9.34,2.29,7.65-3.2,17.13-11.43,17.69Z"/>
          <path class="cls-4" d="M1755.98,89.35c-.22.04-.44-.17-.64-.24-3.89-2.28-8-4.21-11.88-6.49-.23-.13-.7-.35-.54-.66l11.54-7.29c4.63,2.33,9.18,4.82,13.77,7.22.28.15.34.39.06.58l-12.31,6.89Z"/>
          <path class="cls-4" d="M1751.92,66.94l-13.42,3.92c-.17.07-.35-.1-.35-.26l2.9-13.92,14.45-3.84.07.25-3.66,13.85Z"/>
          <path class="cls-4" d="M1727.93,124.37c-.1.03-.22.02-.31-.04-2.36-4.13-4.63-8.34-6.91-12.52,2.14-4.56,4.47-9.05,6.66-13.6.31-.66.71.35.91.69,2.13,3.72,4.1,7.53,6.18,11.28l-5.45,11.98c-.22.27-.92,2.17-1.08,2.22Z"/>
          <path class="cls-4" d="M1756.17,111.74l-13.22-4.39-.29-.16-4.48-13.52c0-.38.31-.44.62-.35l12.94,3.52.3.16,4.38,14.45c-.01.14-.12.25-.24.31Z"/>
          <path class="cls-4" d="M1697.66,112.19c-.32-.02-.48-.22-.36-.53,1.76-4.57,3.35-9.21,5.17-13.75l12.59-3.59c.29-.05.49-.05.49.3l-3.34,13.3c-4.83,1.5-9.71,2.84-14.55,4.27Z"/>
          <path class="cls-4" d="M1716.01,71.63c-.12.12-1.3-.27-1.53-.34-4.17-1.23-8.28-2.7-12.45-3.91-.08-.03-.17-.07-.23-.13-.14-.14-.49-1.22-.59-1.51-1.4-3.9-2.63-7.86-4.07-11.74-.1-.26-.04-.5.27-.46l14.41,4.52c.12.11.16.28.21.43,1.45,4.14,2.51,8.44,3.96,12.59.04.11.07.52.04.55Z"/>
          <path class="cls-4" d="M1727.01,66.77c-.16.05-.31.02-.39-.14l-6.65-12.6c.15-.43.34-.85.53-1.27,1.53-3.37,3.3-6.81,4.94-10.15.13-.26.68-1.48.86-1.52.1-.02.16.07.22.13l7.12,13.18c.1.18.16.39.05.58l-6.46,11.55c-.05.09-.12.2-.23.23Z"/>
          <path class="cls-4" d="M1710.96,83.4l-11.65,6.12-13.15-5.83-.14-.23,12.12-7.81,12.76,7.26c.12.12.12.33.07.49Z"/>
        </g>
        <path class="cls-3" d="M2157.29,15.43l-18.58-10.79c-.26-.04-.83.28-1.07.41-.55.3-1.05.71-1.59,1.03-3.96,2.36-7.94,4.72-11.9,7.07-1.1.65-2.14,1.36-3.26,1.99l-19.71-10.41-15.32,10.2-16.56-9.83-17.82,10.03-18.31-10.31c-.4-.08-.68.14-.98.27l-17.56,9.59-18.36-9.73c-.28-.14-.66-.22-.94-.06-5.59,3.56-11.08,7.17-16.62,10.75l-17.77-10.55-17.82,10.03-18.31-10.31c-.4-.08-.68.14-.98.27l-17.56,9.59-18.36-9.73c-.28-.14-.66-.22-.94-.06-5.62,3.57-11.13,7.2-16.69,10.8l-18.67-10.92c-.19-.02-.3.03-.44.09-.6.26-1.62,1.08-2.24,1.45-3.07,1.86-6.12,3.78-9.15,5.68-1.93,1.21-3.79,2.48-5.75,3.67l-18.58-10.79c-.26-.04-.83.28-1.07.41-.55.3-1.05.71-1.59,1.03-3.96,2.36-7.94,4.72-11.9,7.07-1.1.65-2.14,1.36-3.26,1.99l-19.71-10.41-16.05,10.69-18.63-10.89c-.19-.02-.3.03-.44.09-.6.26-1.62,1.08-2.24,1.45-3.07,1.86-6.12,3.78-9.15,5.68-1.93,1.21-3.79,2.48-5.75,3.67l-18.58-10.79c-.26-.04-.83.28-1.07.41-.55.3-1.05.71-1.59,1.03-3.96,2.36-7.94,4.72-11.9,7.07-1.1.65-2.14,1.36-3.26,1.99l-19.71-10.41-15.32,10.2-16.56-9.83-17.82,10.03c-.98-.53-1.97-1.07-2.95-1.6l-6.51-3.53c-2.19-1.19-4.38-2.38-6.58-3.57-.97-.53-1.94-1.05-2.91-1.58-.07-.04-.15-.08-.23-.11-.21-.07-.48-.07-.7,0-.47.13-.87.5-1.23.73-.47.3-.93.59-1.39.89-.93.6-1.85,1.19-2.78,1.79"/>
        <path class="cls-3" d="M1592.43,23.91l1.04.6.19.11.51.3.76.44.93.55,1.04.61,1.06.62,1.02.6.9.53.71.42c.18.1.35.21.53.31.01,0,.02.01.03.02.09.03.2,0,.28-.03.28-.08.65-.32.82-.42.56-.33,1.07-.67,1.6-.99,3.96-2.36,7.94-4.72,11.9-7.07,1.1-.65,2.14-1.36,3.26-1.99l19.71,10.41,15.32-10.2,16.56,9.83,17.82-10.03,18.31,10.31c.4.08.68-.14.98-.27l17.56-9.59,18.36,9.73c.28.14.66.22.94.06,5.59-3.56,11.08-7.17,16.62-10.75l17.77,10.55,17.82-10.03,18.31,10.31c.4.08.68-.14.98-.27l17.56-9.59,18.36,9.73c.28.14.66.22.94.06,5.62-3.57,11.13-7.2,16.69-10.8l18.67,10.92c.19.02.3-.03.44-.09.6-.26,1.62-1.08,2.24-1.45,3.07-1.86,6.12-3.78,9.15-5.68,1.93-1.21,3.79-2.48,5.75-3.67l18.58,10.79c.26.04.83-.28,1.07-.41.55-.3,1.05-.71,1.59-1.03,3.96-2.36,7.94-4.72,11.9-7.07,1.1-.65,2.14-1.36,3.26-1.99l19.71,10.41,16.05-10.69,18.63,10.89c.19.02.3-.03.44-.09.6-.26,1.62-1.08,2.24-1.45,3.07-1.86,6.12-3.78,9.15-5.68,1.93-1.21,3.79-2.48,5.75-3.67l18.58,10.79c.26.04.83-.28,1.07-.41.55-.3,1.05-.71,1.59-1.03,3.96-2.36,7.94-4.72,11.9-7.07,1.1-.65,2.14-1.36,3.26-1.99l19.71,10.41,15.32-10.2,16.56,9.83,17.82-10.03,18.31,10.31c.4.08.68-.14.98-.27l17.56-9.59"/>
      </g>
    </g>
  </g>
</svg>