<?xml version="1.0" encoding="UTF-8"?>
<svg id="Layer_1" data-name="Layer 1" xmlns="http://www.w3.org/2000/svg" viewBox="0 0 88.82 89.71">
  <defs>
    <style>
      .cls-1 {
        fill: #e08a00;
      }
    </style>
  </defs>
  <path class="cls-1" d="M46.01,59.15c-4.22.29-9.09-1.39-12.38-4.01-4.26-3.4-5.25-11.91-2.92-16.61,3.31-6.67,9.34-9.57,16.7-8.49,5.34.78,9.4,5,10.92,10.06,2.46,8.24-3.45,18.45-12.31,19.05Z"/>
  <path class="cls-1" d="M75.35,51.97c-.23.04-.47-.18-.68-.26-4.19-2.46-8.61-4.54-12.8-6.99-.25-.14-.75-.38-.58-.71l12.43-7.85c4.98,2.51,9.89,5.19,14.84,7.77.31.16.37.42.06.62l-13.26,7.42Z"/>
  <path class="cls-1" d="M70.97,27.84l-14.45,4.22c-.18.08-.38-.11-.37-.28l3.13-14.99,15.56-4.14.08.27-3.94,14.92Z"/>
  <path class="cls-1" d="M45.14,89.69c-.11.03-.23.02-.34-.04-2.54-4.45-4.98-8.98-7.44-13.49,2.31-4.92,4.82-9.75,7.17-14.65.33-.71.77.38.98.75,2.29,4.01,4.42,8.11,6.66,12.14l-5.87,12.9c-.23.29-.99,2.33-1.16,2.39Z"/>
  <path class="cls-1" d="M75.56,76.09l-14.24-4.73-.32-.18-4.83-14.56c0-.41.33-.47.67-.38l13.93,3.79.32.17,4.72,15.56c-.01.15-.13.27-.26.33Z"/>
  <path class="cls-1" d="M12.54,76.58c-.34-.02-.52-.23-.38-.57,1.89-4.92,3.61-9.92,5.57-14.81l13.56-3.87c.32-.05.53-.05.53.32l-3.6,14.33c-5.2,1.62-10.45,3.06-15.67,4.6Z"/>
  <path class="cls-1" d="M32.3,32.89c-.13.13-1.4-.29-1.65-.37-4.49-1.33-8.91-2.91-13.41-4.21-.09-.03-.18-.08-.25-.14-.15-.15-.53-1.32-.64-1.63-1.51-4.2-2.83-8.47-4.39-12.65-.11-.28-.04-.54.29-.5l15.52,4.87c.13.11.17.31.23.46,1.56,4.46,2.7,9.09,4.26,13.56.04.11.08.56.04.6Z"/>
  <path class="cls-1" d="M44.15,27.65c-.17.05-.34.02-.41-.15l-7.16-13.57c.16-.46.36-.92.57-1.37,1.65-3.63,3.55-7.34,5.32-10.93.14-.27.74-1.59.93-1.63.11-.02.17.07.24.14l7.67,14.19c.11.2.17.42.06.63l-6.95,12.44c-.06.1-.13.21-.25.25Z"/>
  <path class="cls-1" d="M26.87,45.57l-12.55,6.59L.15,45.89l-.15-.25,13.05-8.42,13.74,7.82c.13.13.13.35.08.53Z"/>
</svg>