<?xml version="1.0" encoding="UTF-8"?>
<svg id="Layer_1" data-name="Layer 1" xmlns="http://www.w3.org/2000/svg" viewBox="0 0 310.01 186.65">
  <defs>
    <style>
      .cls-1 {
        fill: #f4efe6;
      }
    </style>
  </defs>
  <g>
    <path class="cls-1" d="M283.1,172.38l-4.39-.91s-.02-.05-.02-.08c-.03-.08-.06-.17-.06-.25-.3-2.52-.22-4.86-.13-7.35.02-.72.05-1.44.07-2.18.04-1.69.09-3.4.14-5.11.08-2.63.16-5.35.19-8.01,0-.44.02-.94.03-1.49.08-3.37.21-8.46-1.1-10.77-1.18-2.09-6.99-7.11-9.15-8.33-1.3-.73-2.58-.85-3.89-.92-.88-.04-1.82-.06-2.8-.06-2.5,0-4.89.14-6.75.39-1,.13-2.35.93-3.66,1.69-.86.51-1.67.98-2.3,1.23-.02-.48-.01-1.47.05-3.42l.05-1.85c.04-1.65.09-3.3.12-4.96.02-.93.07-1.9.13-2.84.11-1.91.22-3.89.05-5.8-.1-1.17-2.68-5.02-3.53-5.67-.85-.66-4.9-2.39-5.87-2.76-.56-.22-1.02-.32-1.44-.32-1.02,0-1.7.62-2.37,1.32-.58.61-2.2,2.95-2.32,3.81-.09.6,0,1,.65,1.4.35.22,1.28.58,2.77,1.16.93.36,2.17.84,2.61,1.06,0,.48,0,.96,0,1.44,0,.75-.01,1.49,0,2.24.1,17.24-.2,34.81-.49,51.81,0,.26-.01.57-.02.91-.05,1.66-.12,3.94.26,5.09.28.83,2.55,3.63,3.22,4.17.32.26,1.13.64,2.41,1.14.14.05,3.38,1.31,4.95,1.31.27,0,.49-.04.67-.11.99-.42,2.18-2.95,2.19-2.98,1.26-2.75.71-3.24.53-3.41-.29-.26-1.25-.6-3.45-1.31-.58-.19-1.08-.35-1.33-.43-.04-.05-.06-.25-.07-.34-.25-2.57-.17-4.88-.09-7.33.03-.98.07-1.97.08-3,.03-2.01.04-4.01.06-6.02.04-4.89.08-9.95.27-14.91.01-.35-.01-.81-.04-1.3-.03-.61-.07-1.36-.02-1.77.65-.38,3.64-1.63,4.35-1.89l.29-.11c.42-.16.91-.35,1.3-.4.62-.08,2.13-.14,3.67-.14,1.29,0,2.35.04,2.82.11,1.6.23,5.92,4.04,7.11,5.47.45.54.52.71.53.75.15.63.09,2.23.05,3.3-.01.3-.02.57-.03.79-.08,3.73-.13,7.54-.18,11.23-.05,3.29-.09,6.58-.16,9.86-.05,2.53,0,4.58.17,6.24.14,1.45,1.36,2.85,2.17,3.78,1.49,1.71,2.31,2.07,4.48,2.83,1.2.42,3.33,1.13,4.22,1.13h0c1.28,0,2.73-2.53,2.89-2.82.14-.26,1.39-2.55.87-3.67-.14-.3-.39-.51-.75-.6Z"/>
    <path class="cls-1" d="M129.15,111.23c-.12-.22-.27-.49-.43-.81-.2-.4-1.63-2.84-2.12-3.23-.58-.46-2.75-.98-3.43-1.11-1.69-.32-4.61-.84-5.75-.96-.11-.01-.22-.02-.32-.02-1.69,0-2.36,1.48-2.65,2.11-.51,1.12-1.15,2.85-1.34,4.71-.07.69.24.98.51,1.1.16.07.34.11.54.11h.09c1.11-.05,2.29-.23,3.54-.41.65-.1,1.33-.19,2.01-.28-.04.27-.11.68-.23,1.33l-.03.18c-.35,2.08-1.23,4.7-2.01,7.01-.28.83-.55,1.62-.79,2.36-4.23,13.31-8.7,26.39-13.29,38.87l-.12.31c-.15.42-.31.84-.47,1.26-.11-.28-.24-.6-.39-.97-.12-.28-.22-.51-.26-.64-.32-1.03-.65-2.06-.97-3.08-.67-2.11-1.35-4.22-2.02-6.33-.46-1.44-.92-2.87-1.39-4.31-.91-2.81-1.81-5.62-2.7-8.44-.97-3.07-1.9-6.2-2.8-9.23-.77-2.58-1.56-5.25-2.37-7.87-.38-1.23-.75-2.58-1.11-3.88-1.27-4.6-2.58-9.36-4.9-11.24-1.14-.93-2.38-1.27-3.55-1.51-1.24-.25-4.33-.73-6.2-.73-.4,0-.71.02-.96.06-1.13.19-1.99,1.79-2.7,5.05-.02.08-.04.17-.07.28-.19.69-.5,1.85.46,2.11.15.04.35.06.64.06.8,0,2.17-.14,3.38-.27.67-.07,1.3-.14,1.71-.16l21.81,66.03s.04.09.07.13c.07.09.13.26.2.42.16.42.41,1.06,1.17,1.14.02,0,.08,0,.1,0,.55,0,2.24-.48,2.94-.68l.28-.08c.98-.27,1.81-.53,2.16-.93.16-.19.29-.47.41-.73.03-.07.06-.13.09-.19.5-1.01.95-2.16,1.38-3.27.18-.45.35-.9.52-1.33,7.93-19.54,14.66-37.64,20-53.82.14-.43.32-.93.51-1.46.56-1.57,1.19-3.35,1.38-4.59.14-.89-.07-1.26-.52-2.09Z"/>
    <path class="cls-1" d="M162.96,142.88c-.12-2.44-.32-4.47-1.71-6.49-2.97-4.31-8.38-9.49-13.87-9.88-.16-.01-.32-.02-.49-.02-4.75,0-10.29,4.75-12.56,7.26-2.11,2.33-3.63,4.02-4.04,7.42-.48,4.01-.53,8.15-.58,12.16-.01,1.09-.03,2.19-.05,3.27-.02.88-.05,1.76-.08,2.65-.09,2.72-.18,5.53.05,8.26.11,1.38,2.5,4.16,3.22,4.99,4.15,4.69,14.18,6.86,19.53,7.12h.14c.43.03.97.06,1.55.06,2.13,0,3.43-.39,3.98-1.2.6-.88.72-2.41.84-3.76.02-.24.04-.47.06-.69.03-.3-.07-.58-.27-.81-.21-.23-.49-.37-.82-.4-6.48-.51-11.61-1.81-15.68-3.98-.83-.44-2.21-1.28-2.38-1.5-.1-.22-.06-1.19-.05-1.72.01-.37.03-.7.01-.92-.14-2.88-.14-5.51,0-8.5,0-.15,0-.53,0-.96,0-.41-.02-1.03-.01-1.37.17-.02.47-.03,1.01-.03h.48c.19,0,.35,0,.44,0,5.15-.42,16.01-2.2,20.21-5.93,1.28-1.13,1.17-3.04,1.08-4.57l-.02-.44ZM139.94,142.61c.04-.78.16-1.61.28-2.42.1-.67.2-1.36.25-2.03.29-.61.56-1.22.84-1.84.52-1.16,1.05-2.36,1.65-3.47,0,0,.04-.07.04-.08.4.05,1.41.27,1.81.38,6.39,1.77,8.27,8.44,8.78,11.23.04.19.12.65.07.73-.03.06-.36.21-.62.33l-.24.11c-3.01,1.38-8.23,2.11-11.07,2.42l-.16.02c-.35.04-.99.12-1.46.12-.06,0-.12,0-.16,0-.09-1-.06-4.78-.02-5.51Z"/>
    <path class="cls-1" d="M187.27,126.66c-.86-.1-1.87-.2-2.86-.2-2.36,0-4.13.58-5.76,1.89-1.49,1.2-3.29,2.97-4.69,4.39-2.48,2.5-3.89,4.14-4.18,4.89-.4,1-.54,3.01-.65,4.62-.04.53-.07,1.01-.11,1.38-.44,4.35-.46,8.52-.49,12.55,0,.84-.03,1.77-.06,2.75-.13,4.44-.29,9.97,1.37,13.35.8,1.63,3.3,2.95,4.95,3.82l.24.13c3.55,1.88,8.27,2.94,14.44,3.24.27.01.98.04,1.83.04,3.07,0,3.72-.38,3.94-.51,1.42-.84,1.52-4.9,1.38-5.8-.15-.94-1.47-.94-1.97-.94-.14,0-.27,0-.4,0-.1,0-.2,0-.29,0-.07,0-.12,0-.17,0-.71-.05-1.48-.1-2.28-.15-4.23-.26-9.5-.58-12.9-2.22-.67-.32-.68-.44-.76-1.4-.17-2.08-.16-4.22-.15-6.29,0-1.08.01-2.2,0-3.3l-.03-1.7c-.13-6.62-.27-13.46,2.02-19.8l3.69-4.21s.04,0,.06,0c.09,0,.19.02.28.03l.13.02c1.35.18,3.26.73,4.57,1.12,1.28.38,2.54.89,3.76,1.38.93.37,1.89.76,2.86,1.1.06.02.12.03.17.03.02,0,.05,0,.07,0,.48-.06.81-.31,1.03-.5.72-.63,2.41-3.3,2.67-4.1.3-.94-.13-1.51-.59-1.95-1.99-1.9-8.85-3.42-11.11-3.68Z"/>
    <path class="cls-1" d="M220.58,126.66c-.86-.1-1.87-.2-2.86-.2-2.36,0-4.13.58-5.76,1.89-1.49,1.2-3.29,2.97-4.69,4.39-2.48,2.5-3.89,4.14-4.18,4.89-.4,1-.54,3.01-.65,4.62-.04.53-.07,1.01-.11,1.38-.44,4.34-.46,8.51-.49,12.55,0,.84-.03,1.77-.06,2.75-.13,4.44-.29,9.97,1.37,13.35.8,1.63,3.3,2.95,4.95,3.82l.24.13c3.55,1.88,8.27,2.94,14.44,3.24.27.01.98.04,1.83.04,3.07,0,3.72-.38,3.94-.51,1.42-.84,1.52-4.9,1.38-5.8-.15-.94-1.47-.94-1.97-.94-.14,0-.27,0-.4,0-.1,0-.2,0-.29,0-.07,0-.12,0-.17,0-.71-.05-1.48-.1-2.28-.15-4.23-.26-9.5-.58-12.9-2.22-.67-.32-.68-.44-.76-1.4-.17-2.08-.16-4.22-.15-6.3,0-1.08.01-2.2,0-3.3l-.03-1.69c-.13-6.62-.27-13.46,2.02-19.8l3.69-4.21s.04,0,.06,0c.09,0,.19.02.28.03l.13.02c1.35.18,3.26.73,4.57,1.12,1.28.38,2.54.89,3.76,1.38.93.37,1.89.76,2.86,1.1.06.02.12.03.17.03.02,0,.05,0,.07,0,.48-.06.81-.31,1.03-.5.72-.63,2.41-3.3,2.67-4.1.3-.94-.13-1.51-.59-1.95-1.99-1.9-8.85-3.42-11.11-3.68Z"/>
    <path class="cls-1" d="M305.7,173.71l-5.26-2.53c-.06-.03-.07-.04-.09-.13-.1-.53-.05-1.62-.02-2.42,0-.2.02-.39.02-.55.07-2.58.15-5.16.24-7.75.17-5.46.35-11.11.43-16.66,0-.02,0-.03,0-.05-.15-1.5-.07-3.21.02-4.86.1-1.92.2-3.91-.07-5.66-.09-.58-.35-1.19-.71-1.63-1.42-1.77-7.68-4.52-9.92-4.8-.15-.02-.29-.03-.42-.03-1.33,0-1.9.88-2.47,1.75-.02.02-1.6,2.66-1.48,3.41.06.36.28.49,2.72,1.55,1.01.44,2.62,1.13,3.13,1.47-.03,3.53-.14,7.11-.24,10.57-.16,5.23-.32,10.64-.21,15.96-.03,1.01-.07,2.06-.13,3.13-.12,2.65-.25,5.4-.05,7.9.07.9.3,1.61.67,2.12,1.19,1.62,7.38,4.36,9.36,4.71.37.07.69.1.98.1,1.55,0,2.16-.99,2.79-2.05.01-.02,1.25-2.27,1.24-2.82,0-.25-.11-.58-.54-.76Z"/>
    <path class="cls-1" d="M289.06,118.67l4.58,3.59c.21.14.47.22.73.22.24,0,.47-.06.68-.19l6.14-3.79c.3-.18.48-.48.5-.81s-.14-.65-.45-.87l-4.85-3.04c-.28-.2-.63-.31-.98-.31-.31,0-.61.08-.88.24l-5.41,3.3c-.3.18-.48.49-.49.83,0,.33.16.65.42.82Z"/>
  </g>
  <g>
    <path class="cls-1" d="M248.54,76.54c-.6-.16-1.2-.29-1.79-.41-.96-.2-1.86-.39-2.74-.71-.09-.03-.19-.06-.29-.1-.27-.09-.99-.32-1.02-.51-.08-.46-.03-1.89.15-4.24.01-.16.02-.27.02-.31.49-8.97.7-18.56.66-29.35,0-.31.01-.63.03-.95.03-.66.06-1.34-.04-2.04-.1-.7-.87-2.02-2.29-3.92-1.82-2.43-2.55-2.92-2.95-3.07-1.38-.54-4.51-.9-5.88-.96-.43-.02-.88-.03-1.34-.03-5.41,0-12.38,1.39-16.58,3.32-3.63,1.66-2.84,3.81-2,6.08.18.48.36.97.51,1.48.04.12.13.23.25.29.07.03.15.05.23.05.06,0,.11,0,.17-.03l1.49-.49c5.56-1.83,11.3-3.73,17.3-3.73.45,0,.9.01,1.35.03-.08,2.38-.02,6.37,0,8.13,0,.44,0,.73,0,.79-.02,1.17,0,2.35,0,3.49.02,1.8.04,3.65-.06,5.47-.04.01-.2.05-.24.06-2.38.64-4.91,1.11-7.35,1.56-3.57.66-7.26,1.34-10.71,2.59-2.2.8-4.36,2.55-5.35,4.37-1.54,2.8-.07,8.35,1.4,11.23,1.18,2.31,4.64,6.38,7.15,7.23,1.27.43,3.6.72,5.78.72,1.07,0,2.56-.07,3.56-.41,1.6-.54,3.19-1.41,4.72-2.25.89-.48,1.73-.94,2.57-1.34.2.15.52.46.71.64.22.21.41.39.55.5,1.7,1.25,5.15,2.68,7.57,2.83.09,0,.18,0,.27,0,3.53,0,4.28-4.15,4.53-5.51.04-.24-.11-.47-.36-.53ZM218.63,64.7c.06-.03.12-.07.17-.1,1.2-.72,2.98-1.4,5.44-2.09,3-.85,6.24-1.45,9.39-1.75v12.98c-.24.11-.85.34-2.4.78l-.59.17c-1.47.43-2.62.77-3.8.77-.97,0-1.92-.23-3.01-.74-3.9-1.8-5.09-6.4-5.63-9.75.08-.09.31-.22.43-.28Z"/>
    <path class="cls-1" d="M29.68,21.14c-.02-1.08-.02-2.15-.03-3.23v-.65c0-.64-.01-1.29-.02-1.93v-.43c-.01-.19-.02-.39-.02-.58,0-.36-.03-.75-.23-1.13-.15-.28-.36-.56-.64-.82-.15-.14-3.83-3.22-4.53-3.33-.49-.08-1.47-.14-2-.17-.38-.02-.76-.03-1.15-.03-3.54,0-7.15.78-9.9,1.47-2.88.71-3.29.97-4,3.81l-.05.18c-.35,1.31-.62,2.6-.19,3.26.14.21.34.35.59.41.07.02.15.02.23.02.15,0,.29-.03.4-.05,2.66-.58,5.32-1.16,7.98-1.74l3.51-.77-.19,59.38-15.03,8.1s-.02.01-.04.03c-.02,0-.03.01-.04.02-.05.02-.09.05-.14.08-.18.13-.25.29-.31.41-.14.31-.15.64-.03.93.12.31.36.54.53.69,1.01.87,3.22,2.1,4.56,2.66.86.35,1.62.59,2.33.73.42.08.77.12,1.11.12.07,0,.14,0,.21,0,.57-.03.92-.24,1.32-.5.13-.09.27-.18.41-.26.11-.07.23-.14.34-.22,1.76-1.15,3.64-2.39,5.5-3.71,2-1.42,3.71-2.76,5.22-4.07,1.28-1.12,2.84-2.52,3.5-3.44.69-.96.63-2.85.58-4.37-.01-.46-.03-.9-.02-1.23.25-7.33.19-14.79.14-21.99v-.55c-.03-3.87.02-7.8.07-11.61.07-4.85.13-9.87.04-14.81v-.68Z"/>
    <path class="cls-1" d="M72.2,46.18c-.12-2.44-.32-4.47-1.71-6.49-2.97-4.31-8.38-9.49-13.87-9.88-.16-.01-.33-.02-.49-.02-4.75,0-10.29,4.75-12.56,7.26-2.11,2.33-3.63,4.02-4.04,7.42-.48,4.02-.53,8.16-.58,12.16-.01,1.09-.03,2.18-.05,3.27-.02.88-.05,1.76-.08,2.65-.09,2.72-.18,5.53.05,8.26.11,1.37,2.5,4.16,3.22,4.99,4.15,4.69,14.18,6.86,19.53,7.12h.14c.43.03.97.06,1.55.06,2.13,0,3.43-.39,3.98-1.2.6-.87.73-2.4.84-3.75.02-.24.04-.48.06-.69.03-.3-.07-.58-.27-.81-.21-.23-.49-.37-.82-.4-6.48-.51-11.61-1.81-15.68-3.98-.83-.44-2.21-1.28-2.38-1.5-.1-.22-.06-1.19-.05-1.72.01-.37.03-.69.01-.92-.14-2.88-.14-5.5,0-8.5,0-.15,0-.53,0-.95,0-.41-.02-1.03-.01-1.38.17-.02.47-.04,1.01-.04h.48c.19,0,.35,0,.44,0,5.15-.42,16.01-2.2,20.21-5.93,1.28-1.13,1.17-3.04,1.08-4.57l-.02-.44ZM49.18,45.91c.04-.78.16-1.61.28-2.42.1-.67.2-1.35.25-2.02.29-.61.56-1.23.84-1.85.51-1.16,1.05-2.35,1.65-3.47,0,0,.04-.07.04-.08.4.05,1.42.27,1.81.38,6.4,1.77,8.27,8.44,8.78,11.23.04.19.12.65.07.73-.03.06-.36.21-.62.33l-.24.11c-3.01,1.38-8.23,2.11-11.07,2.42l-.16.02c-.35.04-.99.12-1.46.12-.06,0-.11,0-.16,0-.09-1-.06-4.78-.02-5.51Z"/>
    <path class="cls-1" d="M101.97,55.38c-1.63-1.23-3.44-2.36-5.36-3.57-3.47-2.18-7.05-4.43-9.4-7.2-1.43-1.69-1-2.81-.23-4.84l.05-.12c.18-.47,1.19-2.61,1.54-3.15.14-.01.38-.02.8-.02.7,0,1.58.03,1.99.05,3.29.17,6.38.99,9.44,2.52.14.07.36.2.62.36,1.15.7,2.16,1.27,2.84,1.27.2,0,.37-.05.52-.14.21-.14,1.11-1.43,1.12-1.44.88-1.36,1.49-3.18,1.56-4.64.12-2.38-3.57-3.39-4.96-3.78-2.17-.6-4.39-.9-6.59-.9-3.5,0-7.09.76-10.69,2.26l-.15.06c-1.29.54-2.07.86-2.97,2.11-2.04,2.81-4.05,10.53-3.15,13.74.46,1.63,1.65,2.83,2.94,4,2.73,2.49,5.85,4.61,8.87,6.67,2.78,1.89,5.66,3.85,8.2,6.07,1.6,1.41,2.43,2.53,2.46,3.34.03.83-1.19,2.74-1.66,3.46-.96,1.49-1.81,2.63-2.27,3.05-.24.22-.78.54-.95.56-.03,0-.07,0-.12,0-.78,0-2.77-.44-3.62-.63l-.24-.05c-2.82-.62-5.06-1.39-7.49-2.6-.45-.22-.99-.55-1.57-.9-.88-.53-1.79-1.08-2.5-1.33l-.08-.03c-.16-.06-.35-.13-.58-.13-.19,0-.38.05-.56.16-.58.34-1.5,2.23-1.63,2.58-.91,2.49-1.03,4.53,1.34,6.35,3.4,2.61,7.85,3.88,13.59,3.88.97,0,2.01-.04,3.08-.11,7.97-.55,12.83-10.31,13.28-17.18.09-1.38.17-2.68-.78-3.91-1.25-1.61-4.32-4.06-6.68-5.84Z"/>
    <path class="cls-1" d="M138.54,55.38c-1.63-1.23-3.44-2.37-5.36-3.57-3.47-2.18-7.05-4.43-9.4-7.2-1.43-1.69-1-2.81-.23-4.84l.05-.12c.18-.47,1.19-2.61,1.54-3.15.14-.01.38-.02.8-.02.7,0,1.58.03,1.99.05,3.29.17,6.38.99,9.44,2.52.14.07.36.2.62.36,1.15.7,2.16,1.27,2.84,1.27.2,0,.37-.05.52-.14.21-.14,1.11-1.43,1.12-1.44.88-1.36,1.49-3.18,1.56-4.64.12-2.38-3.57-3.39-4.96-3.78-2.17-.6-4.39-.9-6.59-.9-3.5,0-7.09.76-10.69,2.26l-.15.06c-1.29.54-2.07.86-2.97,2.11-2.04,2.81-4.05,10.53-3.15,13.74.46,1.63,1.65,2.83,2.94,4,2.73,2.49,5.85,4.61,8.87,6.67,2.78,1.89,5.66,3.85,8.2,6.07,1.6,1.41,2.43,2.53,2.46,3.34.03.83-1.19,2.74-1.66,3.46-.96,1.49-1.81,2.63-2.27,3.05-.24.22-.78.54-.95.56-.03,0-.07,0-.12,0-.78,0-2.77-.44-3.62-.63l-.24-.05c-2.82-.62-5.06-1.39-7.49-2.6-.45-.22-.99-.55-1.57-.9-.88-.53-1.79-1.08-2.5-1.33l-.09-.03c-.16-.06-.35-.13-.58-.13-.19,0-.38.05-.56.16-.58.34-1.5,2.23-1.63,2.58-.91,2.49-1.03,4.53,1.34,6.35,3.4,2.61,7.85,3.88,13.59,3.88.97,0,2.01-.04,3.08-.11,7.97-.55,12.83-10.31,13.28-17.19.09-1.38.17-2.68-.78-3.91-1.25-1.61-4.32-4.06-6.68-5.84Z"/>
    <path class="cls-1" d="M194.16,29.88c-.69-.06-1.6-.13-2.48-.13-2.55,0-4.42.63-6.08,2.04-1.45,1.23-3.21,3.05-4.57,4.5-2.41,2.56-3.77,4.24-4.05,4.99-.37,1.01-.45,3.02-.52,4.63-.02.53-.04,1.01-.07,1.38-.32,4.35-.23,8.52-.14,12.55.02.84.02,1.77.02,2.76,0,4.44-.01,9.97,1.74,13.31.85,1.61,3.38,2.87,5.05,3.7l.24.12c3.6,1.79,8.35,2.74,14.53,2.89.23,0,.53.01.89.01,2.57,0,4.21-.21,4.86-.62,1.4-.88,1.39-4.94,1.22-5.84-.17-.89-1.38-.89-1.78-.89-.21,0-.42,0-.61.02-.14,0-.27.01-.38.01h-.08c-.72-.04-1.48-.06-2.28-.09-4.24-.15-9.52-.35-12.96-1.9-.68-.31-.69-.43-.8-1.38-.23-2.07-.28-4.22-.32-6.29-.02-1.08-.05-2.2-.1-3.29l-.08-1.69c-.32-6.61-.65-13.45,1.47-19.84l3.58-4.29s.05,0,.08,0c.09,0,.17.01.26.02l.13.02c1.35.15,3.28.65,4.6,1.01,1.29.35,2.56.83,3.79,1.29.94.35,1.91.71,2.89,1.03.05.02.11.03.16.03.03,0,.06,0,.08,0,.48-.07.81-.33,1.01-.52.71-.64,2.32-3.36,2.55-4.17.27-.94-.18-1.51-.65-1.93-2.05-1.85-8.94-3.21-11.21-3.41Z"/>
    <path class="cls-1" d="M170.77,77.01l-5.26-2.53c-.06-.03-.07-.04-.09-.13-.1-.53-.05-1.62-.02-2.42,0-.2.02-.39.02-.55.07-2.58.15-5.17.24-7.76.17-5.46.35-11.1.43-16.64,0-.02,0-.03,0-.05-.15-1.5-.07-3.21.02-4.86.1-1.92.2-3.91-.07-5.66-.09-.58-.35-1.19-.71-1.63-1.42-1.77-7.68-4.52-9.92-4.8-.15-.02-.29-.03-.42-.03-1.33,0-1.9.88-2.47,1.75-.02.02-1.6,2.66-1.48,3.41.06.36.28.49,2.72,1.55,1.01.44,2.62,1.13,3.13,1.47-.03,3.53-.14,7.11-.24,10.57-.16,5.23-.32,10.64-.21,15.96-.03,1.01-.08,2.06-.13,3.13-.12,2.65-.25,5.4-.05,7.9.07.9.3,1.61.68,2.12,1.19,1.62,7.38,4.36,9.36,4.71.37.07.69.1.98.1,1.56,0,2.16-.99,2.79-2.05.01-.02,1.25-2.26,1.24-2.82,0-.25-.11-.58-.54-.76Z"/>
    <path class="cls-1" d="M154.13,21.97l4.58,3.59c.21.14.47.22.73.22.24,0,.47-.06.68-.19l6.14-3.79c.3-.18.48-.48.5-.81.02-.33-.14-.65-.45-.87l-4.85-3.04c-.28-.2-.63-.31-.98-.31-.31,0-.61.08-.88.24l-5.41,3.3c-.3.18-.48.49-.49.83,0,.33.16.65.42.82Z"/>
    <path class="cls-1" d="M56.19,26.31c.34,0,.82-.01,1.2-.08.22-.04.44-.14.62-.28,2.71-2.13,5.38-4.32,8.39-6.92l.55-.47s.09-.08.14-.12c.17-.14.36-.3.5-.5.28-.4.28-.84,0-1.12-.07-.07-.15-.13-.25-.18-.19-.09-.38-.12-.53-.13-.27-.03-.97-.04-1.72-.04h-.4c-.35-.01-.63-.02-.88-.02-.46-.01-.84-.02-1.45-.02-.17,0-.33,0-.5,0-.19,0-.38,0-.57,0-.23,0-.46,0-.69.02-.55.04-1.17.11-1.7.4-.49.27-.89.61-1.24.94-1.43,1.31-3.07,3.28-3.71,4.07-2.07,2.54-2.01,2.95-1.97,3.18.18,1.21,3.27,1.31,4.21,1.31Z"/>
  </g>
</svg>