<?xml version="1.0" encoding="UTF-8"?>
<svg id="Layer_1" data-name="Layer 1" xmlns="http://www.w3.org/2000/svg" xmlns:xlink="http://www.w3.org/1999/xlink" viewBox="0 0 1945.33 50.87">
  <defs>
    <style>
      .cls-1, .cls-2, .cls-3 {
        fill: none;
      }

      .cls-4 {
        fill: #e08a00;
      }

      .cls-2 {
        stroke-width: 1.22px;
      }

      .cls-2, .cls-3 {
        stroke: #a0421d;
        stroke-miterlimit: 10;
      }

      .cls-3 {
        stroke-width: 1.22px;
      }

      .cls-5 {
        clip-path: url(#clippath);
      }
    </style>
    <clipPath id="clippath">
      <rect class="cls-1" width="1945.33" height="50.87"/>
    </clipPath>
  </defs>
  <g class="cls-5">
    <g>
      <g>
        <path class="cls-4" d="M547.45,76.41c-.16.05-.31.02-.39-.14l-6.65-12.6c.15-.43.34-.85.53-1.27,1.53-3.37,3.3-6.81,4.94-10.15.13-.26.68-1.48.86-1.52.1-.02.16.07.22.13l7.12,13.18c.1.18.16.39.05.58l-6.46,11.55c-.05.09-.12.2-.23.23Z"/>
        <path class="cls-4" d="M443.01,76.41c-.16.05-.31.02-.39-.14l-6.65-12.6c.15-.43.34-.85.53-1.27,1.53-3.37,3.3-6.81,4.94-10.15.13-.26.68-1.48.86-1.52.1-.02.16.07.22.13l7.12,13.18c.1.18.16.39.05.58l-6.46,11.55c-.05.09-.12.2-.23.23Z"/>
        <path class="cls-4" d="M333.7,76.41c-.16.05-.31.02-.39-.14l-6.65-12.6c.15-.43.34-.85.53-1.27,1.53-3.37,3.3-6.81,4.94-10.15.13-.26.68-1.48.86-1.52.1-.02.16.07.22.13l7.12,13.18c.1.18.16.39.05.58l-6.46,11.55c-.05.09-.12.2-.23.23Z"/>
        <path class="cls-4" d="M225.51,76.41c-.16.05-.31.02-.39-.14l-6.65-12.6c.15-.43.34-.85.53-1.27,1.53-3.37,3.3-6.81,4.94-10.15.13-.26.68-1.48.86-1.52.1-.02.16.07.22.13l7.12,13.18c.1.18.16.39.05.58l-6.46,11.55c-.05.09-.12.2-.23.23Z"/>
        <path class="cls-4" d="M117.33,76.41c-.16.05-.31.02-.39-.14l-6.65-12.6c.15-.43.34-.85.53-1.27,1.53-3.37,3.3-6.81,4.94-10.15.13-.26.68-1.48.86-1.52.1-.02.16.07.22.13l7.12,13.18c.1.18.16.39.05.58l-6.46,11.55c-.05.09-.12.2-.23.23Z"/>
        <path class="cls-4" d="M11.39,76.41c-.16.05-.31.02-.39-.14l-6.65-12.6c.15-.43.34-.85.53-1.27,1.53-3.37,3.3-6.81,4.94-10.15.13-.26.68-1.48.86-1.52.1-.02.16.07.22.13l7.12,13.18c.1.18.16.39.05.58l-6.46,11.55c-.05.09-.12.2-.23.23Z"/>
        <path class="cls-2" d="M561.19,16.73c-3.06,1.86-6.03,3.35-9.12,5.13-2.02,1.17-3.68,1.98-5.64,3.17l-19.37-10.47c-.26-.04-.83.28-1.06.41-.55.3-1.05.71-1.59,1.03-3.95,2.36-7.41,4.43-11.36,6.78-1.09.65-2.13,1.36-3.25,1.99l-19.66-10.41-15.28,10.2-16.51-9.83-17.77,10.03-18.26-10.31c-.4-.08-.67.14-.98.27l-17.51,9.59-18.31-9.73c-.28-.14-.66-.22-.94-.06-5.58,3.56-11.05,7.17-16.57,10.75l-17.72-10.55-17.77,10.03-18.26-10.31c-.4-.08-.67.14-.98.27l-17.51,9.59-18.31-9.73c-.28-.14-.66-.22-.94-.06-5.6,3.57-11.1,7.2-16.65,10.8l-18.62-10.92c-.18-.02-.29.03-.44.09-.6.26-1.62,1.08-2.23,1.45-3.06,1.86-6.11,3.78-9.12,5.68-1.93,1.21-3.78,2.48-5.73,3.67l-18.53-10.79c-.26-.04-.83.28-1.06.41-.55.3-1.05.71-1.59,1.03-3.95,2.36-7.92,4.72-11.87,7.07-1.09.65-2.13,1.36-3.25,1.99l-19.66-10.41-16.01,10.69-18.59-10.89c-.18-.02-.3.03-.44.09-.6.26-1.62,1.08-2.23,1.45-3.06,1.86-6.11,3.78-9.12,5.68-1.93,1.21-3.78,2.48-5.73,3.67l-18.53-10.79c-.26-.04-.83.28-1.06.41-.55.3-1.05.71-1.59,1.03-3.95,2.36-7.92,4.72-11.87,7.07-1.09.65-2.13,1.36-3.25,1.99l-19.66-10.41-15.28,10.2-16.51-9.83-17.77,10.03c-.98-.53-1.96-1.07-2.94-1.6l-6.49-3.53c-2.19-1.19-4.37-2.38-6.56-3.57-.97-.53-1.94-1.05-2.91-1.58-.07-.04-.15-.08-.23-.11-.21-.07-.48-.07-.7,0-.46.13-.87.5-1.23.73-.46.3-.93.59-1.39.89-.93.6-1.85,1.19-2.77,1.79-1.84,1.2-3.68,2.4-5.52,3.59-1.27.83-2.54,1.66-3.81,2.48s-2.65,1.57-3.76,2.44c-.21.16-.21.41,0,.57,0,0,10.92,6.4,10.91,6.4l1.03.6.19.11.51.3.76.44.93.55,1.03.61,1.06.62,1.02.6.9.53.71.42c.18.1.35.21.53.31.01,0,.02.01.03.02.09.03.2,0,.28-.03.28-.08.65-.32.81-.42.56-.33,1.06-.67,1.6-.99,3.95-2.36,7.92-4.72,11.87-7.07,1.09-.65,2.13-1.36,3.25-1.99l19.66,10.41,15.28-10.2,16.51,9.83,17.77-10.03,18.26,10.31c.4.08.67-.14.98-.27l17.51-9.59,18.31,9.73c.28.14.66.22.94.06,5.58-3.56,11.05-7.17,16.57-10.75l17.72,10.55,17.77-10.03,18.26,10.31c.4.08.67-.14.98-.27l17.51-9.59,18.31,9.73c.28.14.66.22.94.06,5.6-3.57,11.1-7.2,16.65-10.8l18.62,10.92c.18.02.29-.03.44-.09.6-.26,1.62-1.08,2.23-1.45,3.06-1.86,6.11-3.78,9.12-5.68,1.93-1.21,3.78-2.48,5.73-3.67l18.53,10.79c.26.04.83-.28,1.06-.41.55-.3,1.05-.71,1.59-1.03,3.95-2.36,7.92-4.72,11.87-7.07,1.09-.65,2.13-1.36,3.25-1.99l19.66,10.41,16.01-10.69,18.59,10.89c.18.02.3-.03.44-.09.6-.26,1.62-1.08,2.23-1.45,3.06-1.86,6.11-3.78,9.12-5.68,1.93-1.21,3.78-2.48,5.73-3.67l18.53,10.79c.26.04.83-.28,1.06-.41.55-.3,1.05-.71,1.59-1.03,3.95-2.36,7.92-4.72,11.87-7.07,1.09-.65,2.13-1.36,3.25-1.99l19.66,10.41,15.28-10.2,16.51,9.83,17.77-10.03,18.67,10.71c.4.08.67-.14.98-.27l16.98-10.18,18.43,9.73"/>
        <path class="cls-4" d="M979.23,76.41c-.16.05-.31.02-.39-.14l-6.65-12.6c.15-.43.34-.85.53-1.27,1.53-3.37,3.3-6.81,4.94-10.15.13-.26.68-1.48.86-1.52.1-.02.16.07.22.13l7.12,13.18c.1.18.16.39.05.58l-6.46,11.55c-.05.09-.12.2-.23.23Z"/>
        <path class="cls-4" d="M869.93,76.41c-.16.05-.31.02-.39-.14l-6.65-12.6c.15-.43.34-.85.53-1.27,1.53-3.37,3.3-6.81,4.94-10.15.13-.26.68-1.48.86-1.52.1-.02.16.07.22.13l7.12,13.18c.1.18.16.39.05.58l-6.46,11.55c-.05.09-.12.2-.23.23Z"/>
        <path class="cls-4" d="M761.74,76.41c-.16.05-.31.02-.39-.14l-6.65-12.6c.15-.43.34-.85.53-1.27,1.53-3.37,3.3-6.81,4.94-10.15.13-.26.68-1.48.86-1.52.1-.02.16.07.22.13l7.12,13.18c.1.18.16.39.05.58l-6.46,11.55c-.05.09-.12.2-.23.23Z"/>
        <path class="cls-4" d="M653.56,76.41c-.16.05-.31.02-.39-.14l-6.65-12.6c.15-.43.34-.85.53-1.27,1.53-3.37,3.3-6.81,4.94-10.15.13-.26.68-1.48.86-1.52.1-.02.16.07.22.13l7.12,13.18c.1.18.16.39.05.58l-6.46,11.55c-.05.09-.12.2-.23.23Z"/>
        <path class="cls-3" d="M1083.84,25.07l-18.58-10.79c-.26-.04-.83.28-1.07.41-.55.3-1.05.71-1.59,1.03-3.96,2.36-7.94,4.72-11.9,7.07-1.1.65-2.14,1.36-3.26,1.99l-19.71-10.41-15.32,10.2-16.56-9.83-17.82,10.03-18.31-10.31c-.4-.08-.68.14-.98.27l-17.56,9.59-18.36-9.73c-.28-.14-.66-.22-.94-.06-5.59,3.56-11.08,7.17-16.62,10.75l-17.77-10.55-17.82,10.03-18.31-10.31c-.4-.08-.68.14-.98.27l-17.56,9.59-18.36-9.73c-.28-.14-.66-.22-.94-.06-5.62,3.57-11.13,7.2-16.69,10.8l-18.67-10.92c-.19-.02-.3.03-.44.09-.6.26-1.62,1.08-2.24,1.45-3.07,1.86-6.12,3.78-9.15,5.68-1.93,1.21-3.79,2.48-5.75,3.67l-18.58-10.79c-.26-.04-.83.28-1.07.41-.55.3-1.05.71-1.59,1.03-3.96,2.36-7.94,4.72-11.9,7.07-1.1.65-2.14,1.36-3.26,1.99l-19.71-10.41-16.05,10.69-18.63-10.89c-.19-.02-.3.03-.44.09-.6.26-1.62,1.08-2.24,1.45-3.07,1.86-6.12,3.78-9.15,5.68-1.93,1.21-3.79,2.48-5.75,3.67l-18.58-10.79c-.26-.04-.83.28-1.07.41-.55.3-1.05.71-1.59,1.03-3.96,2.36-7.94,4.72-11.9,7.07-1.1.65-2.14,1.36-3.26,1.99l-19.71-10.41-15.32,10.2-16.56-9.83-17.82,10.03c-.98-.53-1.97-1.07-2.95-1.6-2.17-1.18-4.34-2.35-6.51-3.53-2.19-1.19-4.38-2.38-6.58-3.57-.97-.53-1.94-1.05-2.91-1.58-.07-.04-.15-.08-.23-.11-.21-.07-.48-.07-.7,0-.47.13-.87.5-1.23.73-.47.3-.93.59-1.39.89-.93.6-1.85,1.19-2.78,1.79"/>
        <path class="cls-3" d="M518.98,33.55l1.04.6.19.11.51.3.76.44.93.55,1.04.61,1.06.62,1.02.6.9.53.71.42c.18.1.35.21.53.31.01,0,.02.01.03.02.09.03.2,0,.28-.03.28-.08.65-.32.82-.42.56-.33,1.07-.67,1.6-.99,3.96-2.36,7.94-4.72,11.9-7.07,1.1-.65,2.14-1.36,3.26-1.99l19.71,10.41,15.32-10.2,16.56,9.83,17.82-10.03,18.31,10.31c.4.08.68-.14.98-.27l17.56-9.59,18.36,9.73c.28.14.66.22.94.06,5.59-3.56,11.08-7.17,16.62-10.75l17.77,10.55,17.82-10.03,18.31,10.31c.4.08.68-.14.98-.27l17.56-9.59,18.36,9.73c.28.14.66.22.94.06,5.62-3.57,11.13-7.2,16.69-10.8l18.67,10.92c.19.02.3-.03.44-.09.6-.26,1.62-1.08,2.24-1.45,3.07-1.86,6.12-3.78,9.15-5.68,1.93-1.21,3.79-2.48,5.75-3.67l18.58,10.79c.26.04.83-.28,1.07-.41.55-.3,1.05-.71,1.59-1.03,3.96-2.36,7.94-4.72,11.9-7.07,1.1-.65,2.14-1.36,3.26-1.99l19.71,10.41,16.05-10.69,18.63,10.89c.19.02.3-.03.44-.09.6-.26,1.62-1.08,2.24-1.45,3.07-1.86,6.12-3.78,9.15-5.68,1.93-1.21,3.79-2.48,5.75-3.67l18.58,10.79c.26.04.83-.28,1.07-.41.55-.3,1.05-.71,1.59-1.03,3.96-2.36,7.94-4.72,11.9-7.07,1.1-.65,2.14-1.36,3.26-1.99l19.71,10.41,15.32-10.2,16.56,9.83,17.82-10.03,18.31,10.31c.4.08.68-.14.98-.27l17.56-9.59"/>
      </g>
      <g>
        <path class="cls-4" d="M1621.29,76.41c-.16.05-.31.02-.39-.14l-6.65-12.6c.15-.43.34-.85.53-1.27,1.53-3.37,3.3-6.81,4.94-10.15.13-.26.68-1.48.86-1.52.1-.02.16.07.22.13l7.12,13.18c.1.18.16.39.05.58l-6.46,11.55c-.05.09-.12.2-.23.23Z"/>
        <path class="cls-4" d="M1516.85,76.41c-.16.05-.31.02-.39-.14l-6.65-12.6c.15-.43.34-.85.53-1.27,1.53-3.37,3.3-6.81,4.94-10.15.13-.26.68-1.48.86-1.52.1-.02.16.07.22.13l7.12,13.18c.1.18.16.39.05.58l-6.46,11.55c-.05.09-.12.2-.23.23Z"/>
        <path class="cls-4" d="M1407.54,76.41c-.16.05-.31.02-.39-.14l-6.65-12.6c.15-.43.34-.85.53-1.27,1.53-3.37,3.3-6.81,4.94-10.15.13-.26.68-1.48.86-1.52.1-.02.16.07.22.13l7.12,13.18c.1.18.16.39.05.58l-6.46,11.55c-.05.09-.12.2-.23.23Z"/>
        <path class="cls-4" d="M1299.35,76.41c-.16.05-.31.02-.39-.14l-6.65-12.6c.15-.43.34-.85.53-1.27,1.53-3.37,3.3-6.81,4.94-10.15.13-.26.68-1.48.86-1.52.1-.02.16.07.22.13l7.12,13.18c.1.18.16.39.05.58l-6.46,11.55c-.05.09-.12.2-.23.23Z"/>
        <path class="cls-4" d="M1191.17,76.41c-.16.05-.31.02-.39-.14l-6.65-12.6c.15-.43.34-.85.53-1.27,1.53-3.37,3.3-6.81,4.94-10.15.13-.26.68-1.48.86-1.52.1-.02.16.07.22.13l7.12,13.18c.1.18.16.39.05.58l-6.46,11.55c-.05.09-.12.2-.23.23Z"/>
        <path class="cls-4" d="M1085.23,76.41c-.16.05-.31.02-.39-.14l-6.65-12.6c.15-.43.34-.85.53-1.27,1.53-3.37,3.3-6.81,4.94-10.15.13-.26.68-1.48.86-1.52.1-.02.16.07.22.13l7.12,13.18c.1.18.16.39.05.58l-6.46,11.55c-.05.09-.12.2-.23.23Z"/>
        <path class="cls-2" d="M1067.66,36.94c3.95-2.36,8.17-4.42,12.25-6.69,1.11-.62,2.28-1.26,3.4-1.89l19.43,10.19,15.28-10.2,16.51,9.83,17.77-10.03,18.26,10.31c.4.08.67-.14.98-.27l17.51-9.59,18.31,9.73c.28.14.66.22.94.06,5.58-3.56,11.05-7.17,16.57-10.75l17.72,10.55,17.77-10.03,18.26,10.31c.4.08.67-.14.98-.27l17.51-9.59,18.31,9.73c.28.14.66.22.94.06,5.6-3.57,11.1-7.2,16.65-10.8l18.62,10.92c.18.02.29-.03.44-.09.6-.26,1.62-1.08,2.23-1.45,3.06-1.86,6.11-3.78,9.12-5.68,1.93-1.21,3.78-2.48,5.73-3.67l18.53,10.79c.26.04.83-.28,1.06-.41.55-.3,1.05-.71,1.59-1.03,3.95-2.36,7.92-4.72,11.87-7.07,1.09-.65,2.13-1.36,3.25-1.99l19.66,10.41,16.01-10.69,18.59,10.89c.18.02.3-.03.44-.09.6-.26,1.62-1.08,2.23-1.45,3.06-1.86,6.11-3.78,9.12-5.68,1.93-1.21,3.78-2.48,5.73-3.67l18.53,10.79c.26.04.83-.28,1.06-.41.55-.3,1.05-.71,1.59-1.03,3.95-2.36,7.92-4.72,11.87-7.07,1.09-.65,2.13-1.36,3.25-1.99l19.66,10.41,15.28-10.2,16.51,9.83,17.77-10.03,18.67,10.71c.4.08.67-.14.98-.27l16.98-10.18,18.43,9.73"/>
        <path class="cls-2" d="M1635.03,16.73c-3.06,1.86-6.03,3.35-9.12,5.13-2.02,1.17-3.68,1.98-5.64,3.17l-19.37-10.47c-.26-.04-.83.28-1.06.41-.55.3-1.05.71-1.59,1.03-3.95,2.36-7.41,4.43-11.36,6.78-1.09.65-2.13,1.36-3.25,1.99l-19.66-10.41-15.28,10.2-16.51-9.83-17.77,10.03-18.26-10.31c-.4-.08-.67.14-.98.27l-17.51,9.59-18.31-9.73c-.28-.14-.66-.22-.94-.06-5.58,3.56-11.05,7.17-16.57,10.75l-17.72-10.55-17.77,10.03-18.26-10.31c-.4-.08-.67.14-.98.27l-17.51,9.59-18.31-9.73c-.28-.14-.66-.22-.94-.06-5.6,3.57-11.1,7.2-16.65,10.8l-18.62-10.92c-.18-.02-.29.03-.44.09-.6.26-1.62,1.08-2.23,1.45-3.06,1.86-6.11,3.78-9.12,5.68-1.93,1.21-3.78,2.48-5.73,3.67l-18.53-10.79c-.26-.04-.83.28-1.06.41-.55.3-1.05.71-1.59,1.03-3.95,2.36-7.92,4.72-11.87,7.07-1.09.65-2.13,1.36-3.25,1.99l-19.66-10.41-16.01,10.69-18.59-10.89c-.18-.02-.3.03-.44.09-.6.26-1.62,1.08-2.23,1.45-3.06,1.86-6.11,3.78-9.12,5.68-1.93,1.21-3.78,2.48-5.73,3.67l-18.53-10.79c-.26-.04-.83.28-1.06.41-.55.3-1.05.71-1.59,1.03-3.95,2.36-7.92,4.72-11.87,7.07-1.09.65-2.13,1.36-3.25,1.99l-19.66-10.41-15.28,10.2-16.51-9.83-17.88,10.06c-.98-.53-1.85-1.1-2.83-1.63-2.16-1.18-4.11-2.48-6.27-3.66s-4.59-2.75-6.78-3.94"/>
        <path class="cls-4" d="M1943.77,76.41c-.16.05-.31.02-.39-.14l-6.65-12.6c.15-.43.34-.85.53-1.27,1.53-3.37,3.3-6.81,4.94-10.15.13-.26.68-1.48.86-1.52.1-.02.16.07.22.13l7.12,13.18c.1.18.16.39.05.58l-6.46,11.55c-.05.09-.12.2-.23.23Z"/>
        <path class="cls-4" d="M1835.58,76.41c-.16.05-.31.02-.39-.14l-6.65-12.6c.15-.43.34-.85.53-1.27,1.53-3.37,3.3-6.81,4.94-10.15.13-.26.68-1.48.86-1.52.1-.02.16.07.22.13l7.12,13.18c.1.18.16.39.05.58l-6.46,11.55c-.05.09-.12.2-.23.23Z"/>
        <path class="cls-4" d="M1727.4,76.41c-.16.05-.31.02-.39-.14l-6.65-12.6c.15-.43.34-.85.53-1.27,1.53-3.37,3.3-6.81,4.94-10.15.13-.26.68-1.48.86-1.52.1-.02.16.07.22.13l7.12,13.18c.1.18.16.39.05.58l-6.46,11.55c-.05.09-.12.2-.23.23Z"/>
        <path class="cls-3" d="M2157.68,25.07l-18.58-10.79c-.26-.04-.83.28-1.07.41-.55.3-1.05.71-1.59,1.03-3.96,2.36-7.94,4.72-11.9,7.07-1.1.65-2.14,1.36-3.26,1.99l-19.71-10.41-15.32,10.2-16.56-9.83-17.82,10.03-18.31-10.31c-.4-.08-.68.14-.98.27l-17.56,9.59-18.36-9.73c-.28-.14-.66-.22-.94-.06-5.59,3.56-11.08,7.17-16.62,10.75l-17.77-10.55-17.82,10.03-18.31-10.31c-.4-.08-.68.14-.98.27l-17.56,9.59-18.36-9.73c-.28-.14-.66-.22-.94-.06-5.62,3.57-11.13,7.2-16.69,10.8l-18.67-10.92c-.19-.02-.3.03-.44.09-.6.26-1.62,1.08-2.24,1.45-3.07,1.86-6.12,3.78-9.15,5.68-1.93,1.21-3.79,2.48-5.75,3.67l-18.58-10.79c-.26-.04-.83.28-1.07.41-.55.3-1.05.71-1.59,1.03-3.96,2.36-7.94,4.72-11.9,7.07-1.1.65-2.14,1.36-3.26,1.99l-19.71-10.41-16.05,10.69-18.63-10.89c-.19-.02-.3.03-.44.09-.6.26-1.62,1.08-2.24,1.45-3.07,1.86-6.12,3.78-9.15,5.68-1.93,1.21-3.79,2.48-5.75,3.67l-18.58-10.79c-.26-.04-.83.28-1.07.41-.55.3-1.05.71-1.59,1.03-3.96,2.36-7.94,4.72-11.9,7.07-1.1.65-2.14,1.36-3.26,1.99l-19.71-10.41-15.32,10.2-16.56-9.83-17.82,10.03c-.98-.53-1.97-1.07-2.95-1.6-2.17-1.18-4.34-2.35-6.51-3.53-2.19-1.19-4.38-2.38-6.58-3.57-.97-.53-1.94-1.05-2.91-1.58-.07-.04-.15-.08-.23-.11-.21-.07-.48-.07-.7,0-.47.13-.87.5-1.23.73-.47.3-.93.59-1.39.89-.93.6-1.85,1.19-2.78,1.79"/>
        <path class="cls-3" d="M1592.82,33.55l1.04.6.19.11.51.3.76.44.93.55,1.04.61,1.06.62,1.02.6.9.53.71.42c.18.1.35.21.53.31.01,0,.02.01.03.02.09.03.2,0,.28-.03.28-.08.65-.32.82-.42.56-.33,1.07-.67,1.6-.99,3.96-2.36,7.94-4.72,11.9-7.07,1.1-.65,2.14-1.36,3.26-1.99l19.71,10.41,15.32-10.2,16.56,9.83,17.82-10.03,18.31,10.31c.4.08.68-.14.98-.27l17.56-9.59,18.36,9.73c.28.14.66.22.94.06,5.59-3.56,11.08-7.17,16.62-10.75l17.77,10.55,17.82-10.03,18.31,10.31c.4.08.68-.14.98-.27l17.56-9.59,18.36,9.73c.28.14.66.22.94.06,5.62-3.57,11.13-7.2,16.69-10.8l18.67,10.92c.19.02.3-.03.44-.09.6-.26,1.62-1.08,2.24-1.45,3.07-1.86,6.12-3.78,9.15-5.68,1.93-1.21,3.79-2.48,5.75-3.67l18.58,10.79c.26.04.83-.28,1.07-.41.55-.3,1.05-.71,1.59-1.03,3.96-2.36,7.94-4.72,11.9-7.07,1.1-.65,2.14-1.36,3.26-1.99l19.71,10.41,16.05-10.69,18.63,10.89c.19.02.3-.03.44-.09.6-.26,1.62-1.08,2.24-1.45,3.07-1.86,6.12-3.78,9.15-5.68,1.93-1.21,3.79-2.48,5.75-3.67l18.58,10.79c.26.04.83-.28,1.07-.41.55-.3,1.05-.71,1.59-1.03,3.96-2.36,7.94-4.72,11.9-7.07,1.1-.65,2.14-1.36,3.26-1.99l19.71,10.41,15.32-10.2,16.56,9.83,17.82-10.03,18.31,10.31c.4.08.68-.14.98-.27l17.56-9.59"/>
      </g>
    </g>
  </g>
</svg>