<?xml version="1.0" encoding="UTF-8"?>
<svg id="Layer_1" xmlns="http://www.w3.org/2000/svg" width="603.5" height="398.1" version="1.1" viewBox="0 0 603.5 398.1">
  <!-- Generator: Adobe Illustrator 29.5.1, SVG Export Plug-In . SVG Version: 2.1.0 Build 141)  -->
  <defs>
    <style>
      .st0 {
        fill: none;
        stroke: #e08a00;
        stroke-miterlimit: 10;
      }
    </style>
  </defs>
  <path class="st0" d="M20.6,132.1c0-33.5,1-84.5,1.1-99.3l-10.1,1c-.2-1.7-.4-3.4-.4-5.1,0-4.2,1.3-7.6,5.1-8.7,5.1-2.3,16.2-3,29.5-3,28.5,0,46,10.7,46,28.3s-.6,15.4-2.1,21.7c-5.7,20.7-24.2,29.3-48.7,31.2-.6,17.5-.8,31-.8,31,1.9,1.9,6.1,3.2,10.5,4.4-2.1,9.5-5.5,12.6-7.4,12.6-7.4,0-22.8-4.4-22.8-13.9ZM42.6,32.4c-.2,15-.6,33.7-1.1,50.8,8-.8,15.6-2.7,21.7-4.9,6.3-7.6,8.2-17.5,8.2-31v-4.2c-4.9-6.5-14.5-10.1-28.7-10.7Z"/>
  <path class="st0" d="M130.9,68c-1.3,0-2.7.2-3.8.4,0,29.5-1.5,61.4-1.5,61.4,1.7,1.7,6.5,3.8,9.1,4.6-1.7,9.5-5.5,11.6-7.2,11.6-7,0-20.4-6.1-20.4-15.4,0-29.3.8-59.7.8-59.7-2.1-1.9-6.8-4.6-10.1-5.9.6-8.4,5.3-12,7.2-12,6.3,0,14.6,4,19,8.7,2.3-4.4,6.7-8.7,12.4-8.7s16.2,4,16.2,10.3-2.3,7.8-6.3,11c-4.8-4.4-8.9-6.3-15.4-6.3Z"/>
  <path class="st0" d="M153.2,116.5c0-11.2,23-18.3,38.8-19.2.2-11.8.6-19.6.6-19.6-8-6.5-20-10.7-32.5-12.2.6-6.7,2.1-13.5,8.7-13.5,14.6,0,42.8,8.4,42.8,25.1,0,29.3-1.5,51.4-1.5,51.4,1.9,2.1,6.7,4.4,10.1,5.7-1.9,9.5-6.3,11.8-8.2,11.8-5.3,0-13.9-3.4-18.1-8.7-3,4.2-8.7,8.7-16.7,8.7-13.1,0-24-14.1-24-29.5ZM191.8,107.7c-8,1-17.5,3.6-21.9,7,1.9,11.8,7.8,17.9,16.7,17.9s3.6-.4,4.9-.8v-1.3c0-8.2,0-16,.2-22.8Z"/>
  <path class="st0" d="M267.9,68.9h-23c-1.9,4-2.7,8.6-3.4,14.3-1.3.2-2.7.4-4.2.4-5.5,0-8.2-2.9-8.2-7.6s.6-9.5,1.9-13.1c2.5-6.5,5.9-7.8,17.9-7.8h19c14.3,0,18.1-.2,22.6-.8.6,1,1.1,2.7,1.1,4.4,0,3-1,5.3-3.8,7l-24.2,39.2c-5.9,9.7-10.5,17.7-13.7,24.3h26.4c2.1-5.1,4.2-13.1,5.1-19,8.9,0,12.4,1,12.4,6.3s-1.3,14.8-3,18.4c-2.7,6.8-7,8.9-18.8,8.9h-14.1c-10.7,0-15,.2-22.6.8-3.2-2.1-7.8-7-7.8-10.7,0-5.3,7.4-17.3,21.7-38,6.5-10.1,13.1-19.6,18.6-27Z"/>
  <path class="st0" d="M303.4,121.8c0-19.2,0-26.4,1.1-36.5,2.1-19.4,25.9-32.3,32.5-32.3,9.7,0,24.3,15.4,24.3,30.1s-23.2,18.3-39.6,18.8v19.8c8,7,20.2,10.7,32.7,12.2-.2,6.5-1.5,13.3-8.6,13.3-15.4,0-42.6-8.6-42.6-25.3ZM327,65.7c-1.9,4.9-4,13.3-4.8,26.1,8-1,17.9-2.9,22.4-6.5-1-10.3-11-19.2-17.7-19.6Z"/>
  <path class="st0" d="M399.9,68c-1.3,0-2.7.2-3.8.4,0,29.5-1.5,61.4-1.5,61.4,1.7,1.7,6.5,3.8,9.1,4.6-1.7,9.5-5.5,11.6-7.2,11.6-7,0-20.4-6.1-20.4-15.4,0-29.3.8-59.7.8-59.7-2.1-1.9-6.8-4.6-10.1-5.9.6-8.4,5.3-12,7.2-12,6.3,0,14.6,4,19,8.7,2.3-4.4,6.7-8.7,12.4-8.7s16.2,4,16.2,10.3-2.3,7.8-6.3,11c-4.8-4.4-8.9-6.3-15.4-6.3Z"/>
  <path class="st0" d="M416.8,167.6c-4.2,0-6.1-1.7-6.1-5.9,9.9-2.7,16.2-8.6,16.2-16.4s-9.5-4-9.5-10.8,4.8-10.5,7-10.5c7.4,0,17.1,4.8,17.1,15.4-.2,16.4-12.6,28.2-24.7,28.2Z"/>
  <path class="st0" d="M135.7,369.9c18.6-5.9,24.7-18.4,25.7-62.4,1-30.8,1.1-68.1,1.1-68.1-3.4-.6-7.2-.8-11.4-.8-6.1,0-10.3.4-14.6,1.1-.2-1.7-.4-3.6-.4-5.5,0-4.2.8-6.3,2.7-7.8,2.5-2.3,8.7-3.4,18.3-3.4,19.2,0,26.2,3.2,26.2,10.1,0,49.8-1.1,75.9-1.9,88.4-2.7,37.9-15.6,59.2-38,59.2s-7-6.5-7.6-10.8Z"/>
  <path class="st0" d="M199.2,328c0-19.2,0-26.4,1.1-36.5,2.1-19.4,25.9-32.3,32.5-32.3,9.7,0,24.3,15.4,24.3,30.1s-23.2,18.3-39.6,18.8v19.8c8,7,20.2,10.7,32.7,12.2-.2,6.5-1.5,13.3-8.6,13.3-15.4,0-42.6-8.6-42.6-25.3ZM222.8,271.9c-1.9,4.9-4,13.3-4.8,26.1,8-1,17.9-2.9,22.4-6.5-1-10.3-11-19.2-17.7-19.6ZM240.5,221.1c3.6,0,12.2,1.5,12.2,4.6s-14.6,17.9-22.1,25.3c-4.8,0-8.6-.4-8.6-2.7,0-3.4,15.4-27.2,18.5-27.2Z"/>
  <path class="st0" d="M271.3,325.2c5.7,7.6,14.1,12,26.1,12.2,2.5-4,4.2-8.9,4.2-14.5-4-8.7-34.4-18.1-34.4-34s.8-8.4,1.7-11.2c3.4-9.9,16.9-18.4,27.2-18.4s20.5,4.2,20.5,9.3-3.6,9.3-6.7,12c-6.3-5.5-12.7-7.6-22.3-8.4-2.7,3.8-4.6,8.4-4.6,14.1,3.8,7,35.4,17.3,35.4,33.5s-.6,8-1.7,11.6c-2.7,9.3-15.4,20.9-28.2,20.9s-24-7.2-24-14.6,3.8-10.7,6.7-12.4Z"/>
  <path class="st0" d="M333.5,325.2c5.7,7.6,14.1,12,26.1,12.2,2.5-4,4.2-8.9,4.2-14.5-4-8.7-34.4-18.1-34.4-34s.8-8.4,1.7-11.2c3.4-9.9,16.9-18.4,27.2-18.4s20.5,4.2,20.5,9.3-3.6,9.3-6.7,12c-6.3-5.5-12.7-7.6-22.3-8.4-2.7,3.8-4.6,8.4-4.6,14.1,3.8,7,35.4,17.3,35.4,33.5s-.6,8-1.7,11.6c-2.7,9.3-15.4,20.9-28.2,20.9s-24-7.2-24-14.6,3.8-10.7,6.7-12.4Z"/>
  <path class="st0" d="M417.7,352.2c-7.4,0-20.5-6.1-20.5-15.4,0-29.3,1-59.7,1-59.7-2.3-1.9-7-4.6-10.1-5.9.6-8.4,5.1-12,7.2-12,9.1,0,22.1,7.6,22.1,15.4,0,29.5-1.7,61.4-1.7,61.4,2.1,1.9,6.5,3.4,10.3,4.6-2.1,9.5-6.5,11.6-8.2,11.6ZM410.9,250.2c-6.3,0-16.5-4.8-16.5-11.4s4-8.7,6.3-8.7c6.7,0,16.5,4.6,16.5,11.2s-4,8.9-6.3,8.9Z"/>
  <path class="st0" d="M474.6,353.3c-13.9,0-39.9-6.5-39.9-25.3s.4-29.3,1.5-37.9c2.3-17.7,21.5-31,30.1-31s21.7,3.8,21.7,9.7-2.7,7.4-9.9,11.2c-4.6-3.8-12.4-6.8-19.2-8.4-2.7,8-5.5,22.6-5.5,39.8l-.2,16.7c6.5,6.7,17.7,9.9,30.2,11.4-.6,6.5-1.7,13.7-8.7,13.7Z"/>
  <path class="st0" d="M490.6,322.7c0-11.2,23-18.3,38.8-19.2.2-11.8.6-19.6.6-19.6-8-6.5-20-10.7-32.5-12.2.6-6.7,2.1-13.5,8.7-13.5,14.6,0,42.8,8.4,42.8,25.1,0,29.3-1.5,51.4-1.5,51.4,1.9,2.1,6.7,4.4,10.1,5.7-1.9,9.5-6.3,11.8-8.2,11.8-5.3,0-13.9-3.4-18.1-8.7-3,4.2-8.7,8.7-16.7,8.7-13.1,0-24-14.1-24-29.5ZM529.2,314c-8,1-17.5,3.6-21.9,7,1.9,11.8,7.8,17.9,16.7,17.9s3.6-.4,4.9-.8v-1.3c0-8.2,0-16,.2-22.8Z"/>
  <path class="st0" d="M585.3,352.2c-6.1,0-16.4-4.6-16.4-11.4s4.8-10.5,7-10.5c6.5,0,16.5,4.9,16.5,11.4s-4.8,10.5-7.2,10.5ZM572.8,311.1c0-22.4.6-86.9.6-86.9,2.9-1.1,7.4-2.3,10.7-2.3,6.1,0,8.7,1.5,8.7,6.7,0,53.6-4.4,88.1-4.4,88.1-1.5,1-4.2,1.9-7.8,1.9s-7.8-1.5-7.8-7.4Z"/>
</svg>